<svg width="1250pt" height="1250pt" viewBox="0 0 1250 1250" xmlns="http://www.w3.org/2000/svg"><g fill="#a1a1a1"><path d="M368.64 214.69c72.62-45.64 157.64-71.18 243.38-73.26 77.54-2.16 155.57 14.56 225.22 48.76 1.98-4.38 5.78-8.17 10.72-8.79 6.82-1.24 13.93 3.8 15.06 10.62.84 3.68-.49 7.32-2.21 10.51 58.96 32.92 110.85 78.38 151.35 132.4-.56.28-1.7.84-2.26 1.12-40.38-53.7-92.05-98.88-150.75-131.59-4.57 3.36-11.02 4.62-16 1.38-4.71-2.61-6.59-8.1-6.59-13.22-67.95-33.4-143.91-50.16-219.59-48.8-83.81 1.2-167.18 24.88-239.01 68.1-59.36 35.54-110.91 84.02-150.02 141.09-47.47 68.94-76.34 150.51-82.7 233.97-4.24 54.15.59 109.03 14.51 161.54-.83.11-1.65.26-2.47.42-20.94-79.18-21.37-163.68-1.24-243.07 12.89-50.99 34.26-99.8 62.91-143.9 38.38-59.21 89.87-109.86 149.69-147.28Z"/><path d="M593.13 240.29c74.42-6.21 150.58 9.57 216.13 45.45 55.92 30.37 104.08 74.82 138.9 128.08 30.58 46.61 50.83 99.96 58.8 155.14 7.81 53.82 4.3 109.29-10.59 161.61 5.75 3.01 10.58 8.02 12.5 14.32 3.2 9.45-.47 20.63-8.63 26.36-5.55 4.18-12.86 5.26-19.57 3.97-24.6 58.35-63.93 110.37-113.2 150.13-50.58 40.99-111.7 68.87-175.88 79.92.23-.89.45-1.77.67-2.64 63.46-11.15 123.88-38.82 173.89-79.42 48.77-39.41 87.64-90.93 112.13-148.66-7.67-3.26-13.98-10.09-15.2-18.5-2.04-10.76 4.57-22.24 14.83-25.98 5.15-2.12 10.87-1.79 16.17-.48 12.14-43.01 16.65-88.13 13.4-132.68-3.69-51.67-18.04-102.55-41.97-148.5-29.2-56.32-72.66-105.14-125.14-140.77-53.88-36.75-117.33-59.3-182.32-64.73-21.3-1.83-42.74-1.85-64.05-.19-.22-.61-.66-1.82-.87-2.43ZM321.54 386.44c37.82-48.14 87.23-87.1 142.91-112.57.12.85.26 1.7.42 2.55-54.89 25.22-103.57 63.68-141.02 111.06 3.2 2.31 6.39 4.81 8.47 8.23 4.77 7.35 4.91 17.39.3 24.85-4.38 7.43-13.07 12.02-21.69 11.39-5.19-.16-9.95-2.58-14.1-5.54-24.74 40.87-41.82 86.37-49.82 133.47-12.84 74.68-3.19 153.15 28.05 222.23 26.17 58.46 67.43 109.92 118.37 148.69 2.11-2.99 4.36-5.99 7.44-8.06 7.34-5.24 17.74-5.65 25.46-.99 7.72 4.43 12.44 13.48 11.59 22.35-.25 4.73-2.45 9.03-4.98 12.93 39.82 23.08 83.82 38.89 129.23 46.36.22.87.46 1.76.72 2.65-46.3-7.48-91.17-23.56-131.7-47.14-4.66 4.24-10.78 7.07-17.17 6.84-9.63.01-18.77-6.58-21.89-15.66-2.07-5.48-1.62-11.55.29-16.99-50.78-38.34-91.91-89.37-118.4-147.23-31.91-69.11-42.26-147.79-30.06-222.88 7.85-48.86 25.33-96.12 51.07-138.37-3.9-4.64-6.5-10.51-6.28-16.65.02-9.85 6.94-19.16 16.35-22.06 5.33-1.85 11.17-1.27 16.44.54Z"/><path d="M538.03 361.94c41.27-13.68 85.77-17.3 128.75-10.8 62.91 9.31 122.01 41.43 164.36 88.84 8.07 8.97 15.53 18.49 22.39 28.43-.57.28-1.69.84-2.26 1.12-35.05-51.08-87.78-89.79-147.2-107.46-44.91-13.52-93.3-15.2-139.07-4.98-59.79 13.15-114.58 47.29-153.07 94.85-28.45 34.88-48.08 76.87-56.53 121.09l-2.53-.04c11.76-62.8 46.32-120.89 95.62-161.47 26.43-21.89 56.95-38.83 89.54-49.58ZM1064.23 427.83c.49-.36 1.49-1.08 1.98-1.44 31.87 70.38 46.13 148.52 41.79 225.62-4.1 76.55-26.85 152.01-65.82 218.03-31.2 53.06-72.65 100.05-121.32 137.72 2.95 5.19 4.46 11.33 3.23 17.27-1.75 10.14-10.86 18.4-21.13 19.13-8.04.85-16.02-2.99-21.01-9.21-64.58 40.63-138.93 65.57-214.96 71.99-78.5 6.83-158.67-5.63-231.17-36.59-45.45-19.32-87.87-45.69-125.36-77.82-47.32-40.51-86.77-90.19-115.36-145.53.52-.34 1.57-1.01 2.09-1.35 8.21 15.8 17.24 31.18 27.12 45.99 54.14 81.47 133.65 145.81 224.78 181.44 72.32 28.52 151.62 38.78 228.86 30.29 71.7-7.75 141.48-32.1 202.55-70.44-3.51-6.59-4.46-14.68-1.35-21.59 3.94-9.61 14.73-15.74 25.01-14.11 6.02.67 11.21 4.2 15.3 8.49 24.82-19.34 47.87-40.98 68.51-64.73 44.89-51.44 78.68-112.52 98.19-177.96 23.19-77.45 26.32-160.76 9.31-239.78-6.99-32.81-17.69-64.76-31.24-95.42Z"/><path d="M560.63 475.74c34.82-15.1 74.96-17.36 111.28-6.36 33.53 10 63.5 31.31 84.16 59.54 19.76 26.8 30.91 59.81 31.4 93.1.68 32.15-8.51 64.42-26.08 91.35-18.2 28.14-45.29 50.4-76.46 62.72-33.12 13.21-70.62 14.99-104.87 5.11-32.25-9.19-61.39-28.78-82.24-55.03-20.02-25.04-32.35-56.14-34.8-88.12-2.94-35.41 6.15-71.69 25.6-101.44a163.362 163.362 0 0 1 31.72-35.92c-2.95-6.25-3.57-13.69-.79-20.11 3.67-9.21 13.63-15.39 23.53-14.51 6.96.37 13.31 4.25 17.55 9.67m1.38 2.11c3.9 7.34 4.1 16.64-.3 23.82-5.16 9.02-16.67 13.67-26.64 10.73-5.51-1.4-10.04-5.14-13.46-9.56-9.83 8.45-18.77 17.97-26.34 28.49-19.63 27-30.38 60.27-30.27 93.65-.12 33.14 10.48 66.2 29.84 93.1 18.37 25.69 44.48 45.79 74.09 56.82 35.5 13.36 75.78 13.47 111.35.29 31.71-11.61 59.46-33.62 78.09-61.77 18.67-27.93 28.04-61.88 26.48-95.43-1.25-31.02-11.89-61.56-30.13-86.68-18.97-26.28-46.07-46.62-76.69-57.31-37.36-13.22-79.62-11.8-116.02 3.85ZM897.77 593.91c.81-.2 1.62-.41 2.45-.63 6.74 58.27-5.47 118.58-34.8 169.42-.63-.59-1.27-1.17-1.9-1.72 28.82-50.18 40.83-109.61 34.25-167.07Z"/><path d="M360.36 706.32c.56-.05 1.67-.16 2.23-.22 5.71 17.76 12.86 35.07 21.95 51.38 29.04 52.85 75.98 95.6 131.36 119.48 55.35 24.14 118.76 29 177.22 14.02 36.43-9.26 70.83-26.24 100.48-49.33.48.41 1.46 1.22 1.94 1.63-27.96 21.91-60.19 38.37-94.36 48.11-61.29 17.57-128.65 13.22-187.04-12.47-56.7-24.65-104.54-68.94-133.58-123.52-8.12-15.4-15.18-31.46-19.98-48.21l-.22-.87Z"/></g><g fill="#1d99ff"><path d="M503.88 202.82c15.13-6.67 32.77-7.36 48.41-1.98 18.56 6.26 33.94 21.12 40.84 39.45.21.61.65 1.82.87 2.43 4.85 14.33 4.66 30.32-.6 44.52-5.16 14.1-15.26 26.31-28.11 34.08-12.01 7.35-26.4 10.67-40.41 9.43-14.35-1.17-28.21-7.2-38.9-16.83-10.9-9.74-18.46-23.13-21.11-37.5-.16-.85-.3-1.7-.42-2.55-1.98-13.54.24-27.68 6.47-39.89 6.93-13.79 18.8-25.01 32.96-31.16m23.78 31.15c-3.25-.93-6.52-1.8-9.8-2.64 3.88 7.71 7.7 15.87 7.9 24.65.15 7.04-4.33 12.92-7.81 18.65 3.27.09 6.55.11 9.83.11 0 2.34 0 4.68.01 7.02-3.71-.08-7.48.38-11.13-.36-3.31-.86-4.28-4.43-4.7-7.38-6.41-.06-12.81-.08-19.22.03.27 3.16.55 6.41 1.9 9.34 3.21 7.54 11.12 12.84 19.36 12.61 11.35-.1 22.72.17 34.07-.13 6.87-1.15 9.77-8.41 13.31-13.53 1.94-3.53 5.58-5.44 9.03-7.18l-.09-5.01c-5.78 1.65-11.56 3.29-17.34 4.96-3.94.79-5.69 5.13-9.37 6.37-2.87.52-5.81.26-8.71.3 0-2.35-.01-4.7 0-7.05 1.93 0 3.87 0 5.81.01 5.15-5.18 11.77-11.61 9.95-19.65-2.41-8.26-9.16-14.31-15.71-19.45-.15-3.27 1.07-9.35-3.87-9.36-3.89.3-3.27 4.92-3.42 7.69m-30.53 32.95c6.01.16 12.01.07 18.02.12 1.92-3.45 4.27-6.98 4.25-11.08-.14-5.81-2.33-11.3-4.62-16.55-6.12 9.01-11.92 18.25-17.65 27.51ZM786.16 769.04c8.93-11.83 22.98-19.64 37.77-20.84 14.22-1.33 28.83 3.41 39.59 12.78.63.55 1.27 1.13 1.9 1.72 10.16 9.6 16.28 23.31 16.56 37.3.44 14.04-5.01 28.12-14.75 38.23-9.35 9.87-22.58 15.93-36.17 16.47-12.71.63-25.55-3.52-35.52-11.42-.48-.41-1.46-1.22-1.94-1.63-10.59-9.15-17.34-22.59-18.22-36.56-.95-12.8 2.96-25.87 10.78-36.05m31.23 3.44c-4.4 4.49-4.1 11.13-3.95 16.94h-3.84c0-3.27 0-6.54-.01-9.8-2.1.39-4.56.14-6.22 1.7-1.9 1.61-1.87 4.29-2.1 6.57-.82 12.4-1.87 24.79-2.69 37.2-.48 3.16 2.06 6.52 5.39 6.36 16.32.11 32.66.04 49 .03 3.49.38 6.46-2.98 5.91-6.39-.96-13.39-1.86-26.79-3.01-40.16-.17-4.11-4.6-5.33-7.99-5.33-.02 3.27-.02 6.55-.01 9.83-1.26-.01-2.5-.01-3.73.01.09-5.73.53-12.25-3.73-16.75-5.63-6.92-17.27-7.03-23.02-.21Z"/><path d="M819.39 779.76c1.88-3.61 5.25-6.89 9.62-6.6 4.25-.12 7.31 3.17 9.24 6.58-6.29.16-12.58.14-18.86.02ZM813.21 802.71c1.81-.51 3.63-.99 5.45-1.47 1.57 3.54 4.12 7.2 8.3 7.72 5.64 1.12 10.45-3.13 12.63-7.95 1.77.64 3.53 1.28 5.32 1.93-1.62 3.16-3.37 6.44-6.35 8.53-5.65 4.38-14.31 4.53-19.81-.17-2.78-2.15-4.18-5.47-5.54-8.59Z"/></g><g fill="#fff"><path d="M527.66 233.97c.15-2.77-.47-7.39 3.42-7.69 4.94.01 3.72 6.09 3.87 9.36 6.55 5.14 13.3 11.19 15.71 19.45 1.82 8.04-4.8 14.47-9.95 19.65-1.94-.01-3.88-.01-5.81-.01-.01 2.35 0 4.7 0 7.05 2.9-.04 5.84.22 8.71-.3 3.68-1.24 5.43-5.58 9.37-6.37 5.78-1.67 11.56-3.31 17.34-4.96l.09 5.01c-3.45 1.74-7.09 3.65-9.03 7.18-3.54 5.12-6.44 12.38-13.31 13.53-11.35.3-22.72.03-34.07.13-8.24.23-16.15-5.07-19.36-12.61-1.35-2.93-1.63-6.18-1.9-9.34 6.41-.11 12.81-.09 19.22-.03.42 2.95 1.39 6.52 4.7 7.38 3.65.74 7.42.28 11.13.36-.01-2.34-.01-4.68-.01-7.02-3.28 0-6.56-.02-9.83-.11 3.48-5.73 7.96-11.61 7.81-18.65-.2-8.78-4.02-16.94-7.9-24.65 3.28.84 6.55 1.71 9.8 2.64Z"/><path d="M497.13 266.92c5.73-9.26 11.53-18.5 17.65-27.51 2.29 5.25 4.48 10.74 4.62 16.55.02 4.1-2.33 7.63-4.25 11.08-6.01-.05-12.01.04-18.02-.12ZM1030.53 356.74c9.03-1.78 18.63-1.76 27.45 1.08 2.3.91 5.5 2.11 5.75 4.98-.63 2.85-3.83 3.93-6.24 4.86-8.92 2.67-18.57 2.71-27.63.74-3.31-.95-7.47-1.91-8.92-5.43.82-4.3 6.03-5.2 9.59-6.23ZM1046.21 373.2c6.1-.25 12.19-1.54 17.63-4.41-.15 1.91-.05 3.86-.46 5.75-2.34 3.39-6.82 3.94-10.47 5.05-1.72-2.63-4.02-4.79-6.7-6.39ZM1021.58 373.76c8.11-.88 16.88-.57 24.18 3.46 2.57 1.29 5.03 4.63 2.93 7.38-3.05 3.85-8.21 5.01-12.79 5.88-8.44 1.11-17.6.92-25.26-3.2-2.68-1.33-5.26-4.84-2.92-7.63 3.39-3.99 8.93-5.08 13.86-5.89ZM1053.02 383.21c3.74-.82 7.39-2.03 10.81-3.78-.15 1.95-.02 3.95-.48 5.88-2.4 3.22-6.7 3.82-10.29 4.93-.03-2.35-.04-4.69-.04-7.03Z"/><path d="M1006.69 389.13c8.63 5.5 19.38 6.35 29.3 4.96 4.84-.61 9.45-2.41 13.62-4.92-.13 2.25-.03 4.53-.43 6.77-3.46 4.12-9.37 4.68-14.36 5.46-8.62.66-17.97.69-25.75-3.58-3.24-1.66-2.02-5.77-2.38-8.69Z"/><path d="M1006.68 400.8c8.65 4.55 18.75 5.04 28.31 4.19 5.1-.4 10.06-1.87 14.62-4.18-.29 2.59.54 6.08-2.23 7.58-6.38 3.76-14.14 4.04-21.36 4-5.9-.34-12.18-.87-17.28-4.13-2.64-1.54-1.77-4.94-2.06-7.46ZM856.2 491.9h1.64c.01 3.31.01 6.62 0 9.93-.41 0-1.24-.01-1.65-.02-.02-3.31-.02-6.61.01-9.91ZM861.36 496.07c.13-2.33 2.27-4.21 4.6-4.17 5.2-.35 10.42-.04 15.63 0-.18.76-.54 2.26-.72 3.01-5.21.76-10.49-.18-15.7.51-1.33 5.31-.24 10.96-.59 16.41.92.15 2.75.46 3.67.61-1.16 3.28-2.28 6.69-4.48 9.45-.4.05-1.2.16-1.6.22-2.18-2.87-3.64-6.21-4.47-9.7l3.52-.56c.1-5.26-.28-10.53.14-15.78ZM894.46 492.57c10.31-3.24 22.18 3.45 24.98 13.83 2.21 7.41-.29 15.93-6.21 20.91-6.15 5.52-15.79 6.55-22.96 2.45-7-3.76-11.34-11.89-10.39-19.8.71-8.06 6.8-15.23 14.58-17.39m2.92 2.81c-6.47.97-12.04 6.02-13.68 12.33-2.84 9.49 4.48 20.15 14.29 21.06 9.64 1.45 19.17-7.02 18.85-16.76.31-9.96-9.67-18.47-19.46-16.63ZM850.91 502.61c-2.23-1.99-2.31-6.15.01-8.1.19 2.69.19 5.4-.01 8.1Z"/><path d="M870.64 497.07c2.7-.21 5.43-.21 8.15 0-2.04 2.28-6.09 2.24-8.15 0ZM896.21 497.32c8.1-2.32 17.28 3.4 18.68 11.73 1.9 8.25-4.4 17.17-12.84 18.02-8.04 1.34-16.29-4.92-17.09-13.03-1.17-7.39 3.96-15.03 11.25-16.72m-.91 2.08c-6.14 2.18-10.05 9.21-8.45 15.57 1.4 7.06 9.13 12.03 16.14 10.21 7.05-1.44 11.96-9.18 10.14-16.17-1.54-7.69-10.55-12.58-17.83-9.61ZM867.27 502.18c2.13-.15 4.27-.19 6.42-.1-1.52 2.18-4.79 2.09-6.42.1Z"/><path d="M893.95 506.01c1.59-1.83 3.89-2.81 5.92-4.08 1.75.87 3.52 1.68 5.33 2.46-.18.55-.52 1.65-.7 2.2-2.52.54-5.11.45-7.66.58 0 .74-.01 2.21-.02 2.94 2.15.14 4.34.11 6.48.55 3.32.73 4.59 5.5 2.3 7.9-1.64 1.46-3.62 2.44-5.47 3.58-1.79-.87-3.61-1.71-5.41-2.51.63-4.16 5.89-2.08 8.75-2.77-.16-.68-.47-2.04-.62-2.72-2.31-.47-4.71-.35-6.96-1.01-2.57-1.22-3.4-4.76-1.94-7.12ZM853.26 519.62c-.66-4.43-.62-8.94-.16-13.39 1.76 1.81 1.4 4.43 1.49 6.74-.05 2.26.13 4.74-1.33 6.65ZM848.96 526.43c-1.99-3.57-1.95-8.35 0-11.93.69 3.94.68 7.99 0 11.93ZM861.22 526.15c6.1-1.61 12.93-.15 17.79 3.9 5.56 4.42 8.47 11.91 7.25 18.93-.95 6.2-5.05 11.78-10.59 14.68-6.52 3.51-14.99 2.98-20.99-1.36-5.85-4.04-9.29-11.33-8.54-18.43.65-8.3 7.02-15.71 15.08-17.72m.21 3.46c-7.04 2.05-12.23 9.05-12 16.4-.08 9.14 8.38 17.16 17.51 16.58 9.4-.12 17.36-9.28 16.11-18.61-.77-10.13-11.95-17.65-21.62-14.37Z"/><path d="M861.33 531.38c8.41-3.17 18.63 2.74 19.89 11.67 1.69 8.05-4.32 16.58-12.46 17.69-7.5 1.39-15.42-3.72-17.18-11.14-2.1-7.42 2.39-15.9 9.75-18.22m2.14 1.18c-6.5 1.29-11.39 7.86-10.6 14.48.5 6.96 7.18 12.74 14.17 12.15 7.53-.19 13.77-7.68 12.63-15.13-.78-7.58-8.78-13.31-16.2-11.5ZM916.98 529.98c2.57 1.86 2.06 5.94.14 8.09-.26-2.7-.3-5.4-.14-8.09Z"/><path d="M864.1 537.11c.48-.42 1.45-1.28 1.93-1.7 2.12 1.33 4.5 2.39 6.26 4.24.83 1.5.44 3.35.64 5.02.97 2 2.55 4.3 1.36 6.58-.88 2.45-3.71 2.65-5.84 3.23-.83.58-1.65 1.15-2.46 1.74-.59-.67-1.18-1.34-1.75-2-1.65-.07-3.29-.15-4.92-.23.54-1.37 1.12-2.71 1.74-4.04.44-3.83.33-7.74-1.31-11.28.38-1.97 2.93-1.07 4.35-1.56m.5 3.42c-.01 1.24-.01 2.5 0 3.76 1.83-.47 4.91.46 5.2-2.19-.83-2.06-3.49-1.15-5.2-1.57m0 6.83c-.02 1.17-.02 2.34-.02 3.52 2.33-.49 6.17 1.09 7.01-1.95-1.4-2.46-4.68-1.19-6.99-1.57ZM898.06 545.42c1.17-3.4 2.14-7.24 4.94-9.69l.96.02c2.15 2.45 3.47 5.52 4.65 8.54-.83 1.16-2.32 1.4-3.51 1.97-.2 5.23.28 10.47-.22 15.68-.21 2.35-2.49 4.04-4.77 3.94-5.08.25-10.18.04-15.26-.04.11-.73.34-2.18.46-2.9 4.83-.89 9.76.03 14.63-.46 1.1.05 1.64-.48 1.64-1.58.32-5-.01-10.01.1-15.02-1.22-.16-2.42-.31-3.62-.46ZM914.05 536.36c1.83 3.73 1.56 8.19.12 12.01-1.05-3.93-.98-8.06-.12-12.01ZM913.72 553.44c.3-.39.91-1.18 1.22-1.57.35 4.37.36 8.79-.08 13.16-2.45-3.29-1.44-7.8-1.14-11.59ZM909.81 561.68c-2.09-2.19-2.16-6.12.03-8.25.26 2.74.24 5.5-.03 8.25Z"/><path d="M890.85 556.09c2.72-.24 5.47-.23 8.21 0-2.22 2.12-6.03 2.2-8.21 0ZM885.59 559.94c2.46-.61 5-.76 7.53-.85.02.48.05 1.44.06 1.92-2.57-.02-5.19-.05-7.59-1.07ZM335.44 607.4c10.03-7.71 25.12-7.68 35.11.09 7.37 5.42 11.54 14.41 11.68 23.49-2.96-.18-5.92-.24-8.89-.24-.4-5.92-2.84-11.81-7.58-15.53-7.18-6.09-18.57-6.22-25.8-.16-4.83 3.73-7.23 9.72-7.67 15.68-2.89.01-5.78.09-8.67.24.19-9.11 4.38-18.16 11.82-23.57ZM325.48 635.53c2.44-.29 5.19-.73 7.46.49 2.41 1.43 1.96 4.56 2.05 6.95-.17 6.66.21 13.34-.17 19.99-.26 3.37-4.15 4.14-6.89 3.76-7.6 0-14.56-6.18-15.29-13.77-1.22-8.03 4.79-16.24 12.84-17.42ZM374.29 635.45c9-1.88 18.85 5.13 18.98 14.55.86 8.22-5.95 16.13-14.17 16.63-2.94.44-7.59.25-8.01-3.56-.32-7.69-.14-15.4-.09-23.09-.19-2.07 1.24-4.11 3.29-4.53ZM355.23 673.39c4.19-.71 8.24-2.07 12.07-3.92 1.74.89 3.55 1.63 5.4 2.26-5.4 3.06-11.24 5.35-17.44 6.06-.02-1.48-.03-2.94-.03-4.4ZM817.39 772.48c5.75-6.82 17.39-6.71 23.02.21 4.26 4.5 3.82 11.02 3.73 16.75 1.23-.02 2.47-.02 3.73-.01-.01-3.28-.01-6.56.01-9.83 3.39 0 7.82 1.22 7.99 5.33 1.15 13.37 2.05 26.77 3.01 40.16.55 3.41-2.42 6.77-5.91 6.39-16.34.01-32.68.08-49-.03-3.33.16-5.87-3.2-5.39-6.36.82-12.41 1.87-24.8 2.69-37.2.23-2.28.2-4.96 2.1-6.57 1.66-1.56 4.12-1.31 6.22-1.7.01 3.26.01 6.53.01 9.8h3.84c-.15-5.81-.45-12.45 3.95-16.94m2 7.28c6.28.12 12.57.14 18.86-.02-1.93-3.41-4.99-6.7-9.24-6.58-4.37-.29-7.74 2.99-9.62 6.6m-6.18 22.95c1.36 3.12 2.76 6.44 5.54 8.59 5.5 4.7 14.16 4.55 19.81.17 2.98-2.09 4.73-5.37 6.35-8.53-1.79-.65-3.55-1.29-5.32-1.93-2.18 4.82-6.99 9.07-12.63 7.95-4.18-.52-6.73-4.18-8.3-7.72-1.82.48-3.64.96-5.45 1.47ZM137.51 783.09c10.06-4 20.09-8.1 30.18-12.02 9.9 4.07 19.87 7.96 29.8 11.97-.01 1.32-.01 2.64-.01 3.97-.81.08-2.42.22-3.22.3-1.26.88-2.54 1.97-4.2 1.8-15.77.04-31.54.01-47.31 0-.53-.68-1.05-1.34-1.58-1.99-.91-.01-2.74-.02-3.65-.03-.01-1.35-.01-2.68-.01-4ZM145.52 791.11c2.67 0 5.35 0 8.03.01-.01 8.02-.01 16.03-.01 24.05 1.34-.01 2.67-.01 4.01 0-.01-8.02-.01-16.04 0-24.06 2.67 0 5.34 0 8.01.01-.01 8.02-.01 16.03 0 24.05 1.33-.01 2.66-.01 4 0v-24.06c2.68 0 5.36 0 8.04.01-.02 8.01-.02 16.03-.01 24.05 1.33-.01 2.66-.01 4 0-.01-8.02-.01-16.04 0-24.06 2.67 0 5.35 0 8.03.01.01 7.84-.03 15.69.03 23.53 2.51.29 4.22 1.75 4.56 4.29-17.68.54-35.39.14-53.08.21-.09-2.83 1.87-4.02 4.37-4.46.03-7.86 0-15.72.02-23.58ZM137.59 821.58c7.1-.8 14.25-.26 21.38-.41 12.83.24 25.7-.5 38.51.4v5.61c-20 .01-39.99.01-59.99 0 .03-1.87.06-3.74.1-5.6ZM592.44 963.45c3.83-5.27 9.69-10.23 16.66-9.43 4.23.03 7.89 2.34 10.99 5.01 3.82 3.36 10.05 3.37 13.83-.05 3.08-2.69 6.77-4.96 11-4.96 6.96-.75 12.78 4.23 16.59 9.52 8.02 11.35 10.89 25.9 9 39.57-.96 5.49-3 11.25-7.47 14.87-3.56 2.94-8.84 2.92-12.76.72-5.62-3-9.31-8.46-12.37-13.87-7.23-.02-14.47-.02-21.7 0-3.17 5.67-7.12 11.41-13.17 14.27-4.27 2.08-9.77 1.41-13.14-2.02-5.02-4.96-6.69-12.29-7.08-19.1-.55-12.11 2.58-24.58 9.62-34.53m11.44 5.02c-.01 2.81-.01 5.63 0 8.46-2.7 0-5.39 0-8.08.01 0 2.24-.01 4.49 0 6.75h8.07c0 2.82 0 5.64.01 8.47 2.15-.01 4.31-.01 6.47 0 0-2.83 0-5.65.01-8.46 2.68-.01 5.37-.01 8.07-.01-.03-2.26-.05-4.51-.06-6.75-2.68-.01-5.35-.01-8.02-.01v-8.46c-2.16-.02-4.32-.01-6.47 0m36.3 7.74c-2.79.72-4.05 4.48-2.16 6.71 1.89 2.73 6.69 1.86 7.45-1.39 1-3.07-2.19-6.37-5.29-5.32m12.14.26c-2.69 1.2-3.23 5.25-.87 7.08 2.3 2.2 6.69.63 6.93-2.59.66-3.25-3.15-6.08-6.06-4.49Z"/></g><g fill="#00e79e"><path d="M1012.16 334.93c12.86-6 28.13-6.55 41.39-1.48 13.33 5.01 24.42 15.59 30.05 28.67 4.88 11.18 5.73 24.07 2.39 35.8-3.18 11.34-10.27 21.53-19.78 28.47-.49.36-1.49 1.08-1.98 1.44-11.67 7.79-26.43 10.7-40.17 7.88-14.72-2.89-27.95-12.37-35.48-25.33-6.79-11.44-8.97-25.46-6.1-38.44 3.24-15.24 13.6-28.71 27.42-35.89.56-.28 1.7-.84 2.26-1.12m18.37 21.81c-3.56 1.03-8.77 1.93-9.59 6.23 1.45 3.52 5.61 4.48 8.92 5.43 9.06 1.97 18.71 1.93 27.63-.74 2.41-.93 5.61-2.01 6.24-4.86-.25-2.87-3.45-4.07-5.75-4.98-8.82-2.84-18.42-2.86-27.45-1.08m15.68 16.46c2.68 1.6 4.98 3.76 6.7 6.39 3.65-1.11 8.13-1.66 10.47-5.05.41-1.89.31-3.84.46-5.75-5.44 2.87-11.53 4.16-17.63 4.41m-24.63.56c-4.93.81-10.47 1.9-13.86 5.89-2.34 2.79.24 6.3 2.92 7.63 7.66 4.12 16.82 4.31 25.26 3.2 4.58-.87 9.74-2.03 12.79-5.88 2.1-2.75-.36-6.09-2.93-7.38-7.3-4.03-16.07-4.34-24.18-3.46m31.44 9.45c0 2.34.01 4.68.04 7.03 3.59-1.11 7.89-1.71 10.29-4.93.46-1.93.33-3.93.48-5.88-3.42 1.75-7.07 2.96-10.81 3.78m-46.33 5.92c.36 2.92-.86 7.03 2.38 8.69 7.78 4.27 17.13 4.24 25.75 3.58 4.99-.78 10.9-1.34 14.36-5.46.4-2.24.3-4.52.43-6.77-4.17 2.51-8.78 4.31-13.62 4.92-9.92 1.39-20.67.54-29.3-4.96m-.01 11.67c.29 2.52-.58 5.92 2.06 7.46 5.1 3.26 11.38 3.79 17.28 4.13 7.22.04 14.98-.24 21.36-4 2.77-1.5 1.94-4.99 2.23-7.58-4.56 2.31-9.52 3.78-14.62 4.18-9.56.85-19.66.36-28.31-4.19ZM296.05 605.01c11.74-19.53 34.01-32.14 56.82-32.02l2.53.04c18.44.53 36.42 9.17 48.39 23.2 11.11 12.77 17.01 29.9 16.13 46.8-.67 16.05-7.45 31.71-18.62 43.23-10.22 10.67-24.08 17.78-38.71 19.84-.56.06-1.67.17-2.23.22l.22.87c-1.69-1.01-3.7-.47-5.55-.51-15.56.59-31.22-4.66-43.39-14.35-11.78-9.29-20.3-22.65-23.66-37.28-3.97-16.88-1.06-35.28 8.07-50.04m39.39 2.39c-7.44 5.41-11.63 14.46-11.82 23.57 2.89-.15 5.78-.23 8.67-.24.44-5.96 2.84-11.95 7.67-15.68 7.23-6.06 18.62-5.93 25.8.16 4.74 3.72 7.18 9.61 7.58 15.53 2.97 0 5.93.06 8.89.24-.14-9.08-4.31-18.07-11.68-23.49-9.99-7.77-25.08-7.8-35.11-.09m-9.96 28.13c-8.05 1.18-14.06 9.39-12.84 17.42.73 7.59 7.69 13.77 15.29 13.77 2.74.38 6.63-.39 6.89-3.76.38-6.65 0-13.33.17-19.99-.09-2.39.36-5.52-2.05-6.95-2.27-1.22-5.02-.78-7.46-.49m48.81-.08c-2.05.42-3.48 2.46-3.29 4.53-.05 7.69-.23 15.4.09 23.09.42 3.81 5.07 4 8.01 3.56 8.22-.5 15.03-8.41 14.17-16.63-.13-9.42-9.98-16.43-18.98-14.55m-19.06 37.94c0 1.46.01 2.92.03 4.4 6.2-.71 12.04-3 17.44-6.06-1.85-.63-3.66-1.37-5.4-2.26-3.83 1.85-7.88 3.21-12.07 3.92Z"/></g><g fill="#ff8084"><path d="M853.53 468.41c12.84-6.12 27.67-7.92 41.62-5.14 15.03 2.92 28.89 11.26 38.6 23.09 9.4 11.34 14.86 25.87 15.22 40.6.47 14.65-4.08 29.39-12.73 41.21-8.75 12.09-21.65 21.1-36.02 25.11-.83.22-1.64.43-2.45.63-16.36 3.95-34.18 1.49-48.77-6.93-13.67-7.77-24.44-20.51-29.76-35.31-5.5-15.07-5.31-32.12.55-47.05 5.79-15 17.22-27.7 31.48-35.09.57-.28 1.69-.84 2.26-1.12m2.67 23.49c-.03 3.3-.03 6.6-.01 9.91.41.01 1.24.02 1.65.02.01-3.31.01-6.62 0-9.93h-1.64m5.16 4.17c-.42 5.25-.04 10.52-.14 15.78l-3.52.56c.83 3.49 2.29 6.83 4.47 9.7.4-.06 1.2-.17 1.6-.22 2.2-2.76 3.32-6.17 4.48-9.45-.92-.15-2.75-.46-3.67-.61.35-5.45-.74-11.1.59-16.41 5.21-.69 10.49.25 15.7-.51.18-.75.54-2.25.72-3.01-5.21-.04-10.43-.35-15.63 0-2.33-.04-4.47 1.84-4.6 4.17m33.1-3.5c-7.78 2.16-13.87 9.33-14.58 17.39-.95 7.91 3.39 16.04 10.39 19.8 7.17 4.1 16.81 3.07 22.96-2.45 5.92-4.98 8.42-13.5 6.21-20.91-2.8-10.38-14.67-17.07-24.98-13.83m-43.55 10.04c.2-2.7.2-5.41.01-8.1-2.32 1.95-2.24 6.11-.01 8.1m19.73-5.54c2.06 2.24 6.11 2.28 8.15 0-2.72-.21-5.45-.21-8.15 0m-3.37 5.11c1.63 1.99 4.9 2.08 6.42-.1-2.15-.09-4.29-.05-6.42.1m-14.01 17.44c1.46-1.91 1.28-4.39 1.33-6.65-.09-2.31.27-4.93-1.49-6.74-.46 4.45-.5 8.96.16 13.39m-4.3 6.81c.68-3.94.69-7.99 0-11.93-1.95 3.58-1.99 8.36 0 11.93m12.26-.28c-8.06 2.01-14.43 9.42-15.08 17.72-.75 7.1 2.69 14.39 8.54 18.43 6 4.34 14.47 4.87 20.99 1.36 5.54-2.9 9.64-8.48 10.59-14.68 1.22-7.02-1.69-14.51-7.25-18.93-4.86-4.05-11.69-5.51-17.79-3.9m55.76 3.83c-.16 2.69-.12 5.39.14 8.09 1.92-2.15 2.43-6.23-.14-8.09m-18.92 15.44c1.2.15 2.4.3 3.62.46-.11 5.01.22 10.02-.1 15.02 0 1.1-.54 1.63-1.64 1.58-4.87.49-9.8-.43-14.63.46-.12.72-.35 2.17-.46 2.9 5.08.08 10.18.29 15.26.04 2.28.1 4.56-1.59 4.77-3.94.5-5.21.02-10.45.22-15.68 1.19-.57 2.68-.81 3.51-1.97-1.18-3.02-2.5-6.09-4.65-8.54l-.96-.02c-2.8 2.45-3.77 6.29-4.94 9.69m15.99-9.06c-.86 3.95-.93 8.08.12 12.01 1.44-3.82 1.71-8.28-.12-12.01m-.33 17.08c-.3 3.79-1.31 8.3 1.14 11.59.44-4.37.43-8.79.08-13.16-.31.39-.92 1.18-1.22 1.57m-3.91 8.24c.27-2.75.29-5.51.03-8.25-2.19 2.13-2.12 6.06-.03 8.25m-18.96-5.59c2.18 2.2 5.99 2.12 8.21 0-2.74-.23-5.49-.24-8.21 0m-5.26 3.85c2.4 1.02 5.02 1.05 7.59 1.07-.01-.48-.04-1.44-.06-1.92-2.53.09-5.07.24-7.53.85Z"/><path d="M897.38 495.38c9.79-1.84 19.77 6.67 19.46 16.63.32 9.74-9.21 18.21-18.85 16.76-9.81-.91-17.13-11.57-14.29-21.06 1.64-6.31 7.21-11.36 13.68-12.33m-1.17 1.94c-7.29 1.69-12.42 9.33-11.25 16.72.8 8.11 9.05 14.37 17.09 13.03 8.44-.85 14.74-9.77 12.84-18.02-1.4-8.33-10.58-14.05-18.68-11.73Z"/><path d="M895.3 499.4c7.28-2.97 16.29 1.92 17.83 9.61 1.82 6.99-3.09 14.73-10.14 16.17-7.01 1.82-14.74-3.15-16.14-10.21-1.6-6.36 2.31-13.39 8.45-15.57m-1.35 6.61c-1.46 2.36-.63 5.9 1.94 7.12 2.25.66 4.65.54 6.96 1.01.15.68.46 2.04.62 2.72-2.86.69-8.12-1.39-8.75 2.77 1.8.8 3.62 1.64 5.41 2.51 1.85-1.14 3.83-2.12 5.47-3.58 2.29-2.4 1.02-7.17-2.3-7.9-2.14-.44-4.33-.41-6.48-.55.01-.73.02-2.2.02-2.94 2.55-.13 5.14-.04 7.66-.58.18-.55.52-1.65.7-2.2-1.81-.78-3.58-1.59-5.33-2.46-2.03 1.27-4.33 2.25-5.92 4.08ZM861.43 529.61c9.67-3.28 20.85 4.24 21.62 14.37 1.25 9.33-6.71 18.49-16.11 18.61-9.13.58-17.59-7.44-17.51-16.58-.23-7.35 4.96-14.35 12-16.4m-.1 1.77c-7.36 2.32-11.85 10.8-9.75 18.22 1.76 7.42 9.68 12.53 17.18 11.14 8.14-1.11 14.15-9.64 12.46-17.69-1.26-8.93-11.48-14.84-19.89-11.67Z"/><path d="M863.47 532.56c7.42-1.81 15.42 3.92 16.2 11.5 1.14 7.45-5.1 14.94-12.63 15.13-6.99.59-13.67-5.19-14.17-12.15-.79-6.62 4.1-13.19 10.6-14.48m.63 4.55c-1.42.49-3.97-.41-4.35 1.56 1.64 3.54 1.75 7.45 1.31 11.28-.62 1.33-1.2 2.67-1.74 4.04 1.63.08 3.27.16 4.92.23.57.66 1.16 1.33 1.75 2 .81-.59 1.63-1.16 2.46-1.74 2.13-.58 4.96-.78 5.84-3.23 1.19-2.28-.39-4.58-1.36-6.58-.2-1.67.19-3.52-.64-5.02-1.76-1.85-4.14-2.91-6.26-4.24-.48.42-1.45 1.28-1.93 1.7Z"/><path d="M864.6 540.53c1.71.42 4.37-.49 5.2 1.57-.29 2.65-3.37 1.72-5.2 2.19-.01-1.26-.01-2.52 0-3.76ZM864.6 547.36c2.31.38 5.59-.89 6.99 1.57-.84 3.04-4.68 1.46-7.01 1.95 0-1.18 0-2.35.02-3.52ZM159.75 748.52c16.7-2.49 34.34 3.52 45.99 15.74 10.7 10.94 16.25 26.63 14.8 41.86-1.28 15.81-10.17 30.73-23.35 39.53-.52.34-1.57 1.01-2.09 1.35-11.58 7.11-25.93 9.46-39.19 6.52-15.04-3.22-28.38-13.35-35.58-26.93-7.43-13.65-8.36-30.6-2.54-45 6.51-16.64 21.91-29.4 39.49-32.65.82-.16 1.64-.31 2.47-.42m-22.24 34.57c0 1.32 0 2.65.01 4 .91.01 2.74.02 3.65.03.53.65 1.05 1.31 1.58 1.99 15.77.01 31.54.04 47.31 0 1.66.17 2.94-.92 4.2-1.8.8-.08 2.41-.22 3.22-.3 0-1.33 0-2.65.01-3.97-9.93-4.01-19.9-7.9-29.8-11.97-10.09 3.92-20.12 8.02-30.18 12.02m8.01 8.02c-.02 7.86.01 15.72-.02 23.58-2.5.44-4.46 1.63-4.37 4.46 17.69-.07 35.4.33 53.08-.21-.34-2.54-2.05-4-4.56-4.29-.06-7.84-.02-15.69-.03-23.53-2.68-.01-5.36-.01-8.03-.01-.01 8.02-.01 16.04 0 24.06-1.34-.01-2.67-.01-4 0-.01-8.02-.01-16.04.01-24.05-2.68-.01-5.36-.01-8.04-.01v24.06c-1.34-.01-2.67-.01-4 0-.01-8.02-.01-16.03 0-24.05-2.67-.01-5.34-.01-8.01-.01-.01 8.02-.01 16.04 0 24.06-1.34-.01-2.67-.01-4.01 0 0-8.02 0-16.03.01-24.05-2.68-.01-5.36-.01-8.03-.01m-7.93 30.47c-.04 1.86-.07 3.73-.1 5.6 20 .01 39.99.01 59.99 0v-5.61c-12.81-.9-25.68-.16-38.51-.4-7.13.15-14.28-.39-21.38.41Z"/></g><g fill="#002160"><path d="M610.57 539.7c16.4-2.76 33.6-.74 48.85 5.92 17.9 7.73 33 21.72 42.08 38.98 8.18 15.34 11.45 33.2 9.42 50.46-1.91 16.84-8.98 33.03-19.97 45.92-10.7 12.61-25.07 22.09-40.92 26.83-19.86 6.04-41.91 4.61-60.79-4.03-17.33-7.84-31.89-21.57-40.75-38.4-8.16-15.33-11.44-33.18-9.41-50.42 1.9-16.87 9-33.07 20.01-45.98 13.02-15.39 31.57-26 51.48-29.28m-21.96 35.32c-.16 2.78 1.89 4.86 3.69 6.69 8.02 8.06 15.97 16.18 23.95 24.29-3.78 3.82-7.54 7.65-11.29 11.49-8.05-8.13-16.05-16.3-24.07-24.45-1.59-1.61-3.46-3.35-5.9-3.22-3.8-.13-7.21 3.37-6.96 7.18-.1 2.64 1.92 4.57 3.61 6.33 7.93 7.94 15.75 15.98 23.64 23.97-7.57 7.76-15.27 15.39-22.82 23.17-3.24 2.9-2.57 8.63 1.12 10.84 2.64 1.79 6.42 1.27 8.55-1.1 7.64-7.66 15.19-15.41 22.8-23.1 3.77 3.83 7.54 7.64 11.31 11.47-7.07 7.15-14.11 14.34-21.21 21.46-1.6 1.7-3.61 3.43-3.83 5.92-.61 3.94 2.76 7.89 6.75 7.86 2.4.16 4.35-1.42 5.92-3.03 7.32-7.5 14.69-14.95 22.03-22.43 7.58 7.68 15.11 15.39 22.68 23.08 1.45 1.46 3.24 2.85 5.43 2.79 3.88.21 7.28-3.43 6.96-7.27.01-2.63-1.97-4.54-3.64-6.29-7.28-7.35-14.53-14.73-21.77-22.13 3.76-3.82 7.53-7.63 11.29-11.45 7.83 7.87 15.52 15.89 23.4 23.71 2.61 2.99 7.76 2.78 10.15-.38 2.42-2.9 1.81-7.45-.99-9.88-7.63-7.79-15.3-15.53-22.94-23.31 7.91-8 15.78-16.05 23.74-24 1.67-1.8 3.78-3.59 3.98-6.22.56-4.03-3.07-7.95-7.14-7.67-2.58-.02-4.49 1.88-6.15 3.59a5050.95 5050.95 0 0 1-24.06 24.47c-3.76-3.81-7.54-7.61-11.3-11.41 8.53-8.65 17.08-17.28 25.57-25.96 3.72-3.3 2.24-10.04-2.47-11.53-2.8-1.11-5.88.13-7.77 2.29-8.34 8.44-16.63 16.94-24.97 25.37-8.32-8.42-16.6-16.87-24.9-25.3-1.37-1.35-2.97-2.73-4.99-2.81-3.89-.42-7.53 3.08-7.4 6.97Z"/><path d="M614.55 627.27c3.79-3.82 7.57-7.64 11.35-11.47 3.77 3.83 7.54 7.66 11.32 11.48-3.78 3.81-7.54 7.64-11.29 11.48-3.79-3.84-7.59-7.66-11.38-11.49Z"/></g><path fill="#f0b90b" d="M588.61 575.02c-.13-3.89 3.51-7.39 7.4-6.97 2.02.08 3.62 1.46 4.99 2.81 8.3 8.43 16.58 16.88 24.9 25.3 8.34-8.43 16.63-16.93 24.97-25.37 1.89-2.16 4.97-3.4 7.77-2.29 4.71 1.49 6.19 8.23 2.47 11.53-8.49 8.68-17.04 17.31-25.57 25.96 3.76 3.8 7.54 7.6 11.3 11.41 8.04-8.13 16.07-16.28 24.06-24.47 1.66-1.71 3.57-3.61 6.15-3.59 4.07-.28 7.7 3.64 7.14 7.67-.2 2.63-2.31 4.42-3.98 6.22-7.96 7.95-15.83 16-23.74 24 7.64 7.78 15.31 15.52 22.94 23.31 2.8 2.43 3.41 6.98.99 9.88-2.39 3.16-7.54 3.37-10.15.38-7.88-7.82-15.57-15.84-23.4-23.71-3.76 3.82-7.53 7.63-11.29 11.45 7.24 7.4 14.49 14.78 21.77 22.13 1.67 1.75 3.65 3.66 3.64 6.29.32 3.84-3.08 7.48-6.96 7.27-2.19.06-3.98-1.33-5.43-2.79-7.57-7.69-15.1-15.4-22.68-23.08-7.34 7.48-14.71 14.93-22.03 22.43-1.57 1.61-3.52 3.19-5.92 3.03-3.99.03-7.36-3.92-6.75-7.86.22-2.49 2.23-4.22 3.83-5.92 7.1-7.12 14.14-14.31 21.21-21.46-3.77-3.83-7.54-7.64-11.31-11.47-7.61 7.69-15.16 15.44-22.8 23.1-2.13 2.37-5.91 2.89-8.55 1.1-3.69-2.21-4.36-7.94-1.12-10.84 7.55-7.78 15.25-15.41 22.82-23.17-7.89-7.99-15.71-16.03-23.64-23.97-1.69-1.76-3.71-3.69-3.61-6.33-.25-3.81 3.16-7.31 6.96-7.18 2.44-.13 4.31 1.61 5.9 3.22 8.02 8.15 16.02 16.32 24.07 24.45 3.75-3.84 7.51-7.67 11.29-11.49-7.98-8.11-15.93-16.23-23.95-24.29-1.8-1.83-3.85-3.91-3.69-6.69m25.94 52.25c3.79 3.83 7.59 7.65 11.38 11.49 3.75-3.84 7.51-7.67 11.29-11.48-3.78-3.82-7.55-7.65-11.32-11.48-3.78 3.83-7.56 7.65-11.35 11.47Z"/><g fill="#ffc726"><path d="M611.95 922.23c15.34-3.58 31.94-1.56 45.91 5.74 13.76 7.09 24.89 19.12 30.89 33.39 5.5 12.93 6.69 27.59 3.51 41.27-.22.87-.44 1.75-.67 2.64-4.61 16.77-16.08 31.51-31.2 40.13-17.59 10.24-39.95 11.67-58.73 3.83-18.57-7.55-33.28-23.9-38.77-43.19-.26-.89-.5-1.78-.72-2.65-4.64-18.64-.79-39.2 10.46-54.79 9.34-13.17 23.58-22.77 39.32-26.37m-19.51 41.22c-7.04 9.95-10.17 22.42-9.62 34.53.39 6.81 2.06 14.14 7.08 19.1 3.37 3.43 8.87 4.1 13.14 2.02 6.05-2.86 10-8.6 13.17-14.27 7.23-.02 14.47-.02 21.7 0 3.06 5.41 6.75 10.87 12.37 13.87 3.92 2.2 9.2 2.22 12.76-.72 4.47-3.62 6.51-9.38 7.47-14.87 1.89-13.67-.98-28.22-9-39.57-3.81-5.29-9.63-10.27-16.59-9.52-4.23 0-7.92 2.27-11 4.96-3.78 3.42-10.01 3.41-13.83.05-3.1-2.67-6.76-4.98-10.99-5.01-6.97-.8-12.83 4.16-16.66 9.43Z"/><path d="M603.88 968.47c2.15-.01 4.31-.02 6.47 0v8.46c2.67 0 5.34 0 8.02.01.01 2.24.03 4.49.06 6.75-2.7 0-5.39 0-8.07.01-.01 2.81-.01 5.63-.01 8.46-2.16-.01-4.32-.01-6.47 0-.01-2.83-.01-5.65-.01-8.47h-8.07c-.01-2.26 0-4.51 0-6.75 2.69-.01 5.38-.01 8.08-.01-.01-2.83-.01-5.65 0-8.46ZM640.18 976.21c3.1-1.05 6.29 2.25 5.29 5.32-.76 3.25-5.56 4.12-7.45 1.39-1.89-2.23-.63-5.99 2.16-6.71ZM652.32 976.47c2.91-1.59 6.72 1.24 6.06 4.49-.24 3.22-4.63 4.79-6.93 2.59-2.36-1.83-1.82-5.88.87-7.08Z"/></g></svg>