<svg width="130" height="96" fill="none" xmlns="http://www.w3.org/2000/svg"><ellipse cx="65" cy="56.284" rx="64.415" ry="38.774" fill="#292929"/><ellipse cx="65" cy="52.531" rx="64.415" ry="38.774" fill="#3B3B3B"/><path d="M94.272 70.379c-4.344 2.504-11.371 2.504-15.701 0s-4.33-6.558 0-9.062c4.33-2.504 11.371-2.504 15.701 0 4.33 2.505 4.33 6.558 0 9.062ZM53.212 65.358c-4.344 2.504-11.372 2.504-15.702 0s-4.33-6.558 0-9.062c4.33-2.504 11.372-2.504 15.702 0s4.33 6.558 0 9.062Z" fill="#000"/><path d="M76.191 43.57c-4.344 2.504-11.372 2.504-15.702 0s-4.33-6.557 0-9.061c4.344-2.504 11.372-2.504 15.702 0s4.33 6.557 0 9.061Z" fill="#B56B09"/><path d="M79.442 38.977v3.196c.028 1.66-1.051 3.32-3.25 4.593-4.345 2.504-11.373 2.504-15.703 0-2.144-1.231-3.223-2.85-3.25-4.468v-3.196c.027 1.619 1.106 3.237 3.25 4.469 4.344 2.504 11.372 2.504 15.702 0 2.2-1.273 3.279-2.933 3.251-4.593Z" fill="#B56B09"/><path d="M63.436 44.775c-1.065-.304-2.061-.706-2.947-1.217-2.144-1.232-3.223-2.85-3.25-4.469v3.196c.027 1.618 1.106 3.237 3.25 4.468.886.512 1.882.913 2.947 1.218v-3.196Z" fill="#F71"/><path d="M75.734 39.406c-4.33 2.504-11.371 2.504-15.701 0-4.33-2.505-4.33-6.558 0-9.062 4.343-2.504 11.371-2.504 15.701 0s4.33 6.557 0 9.062Z" fill="#B56B09"/><path d="M78.986 34.813v3.195c.027 1.66-1.052 3.32-3.251 4.593-4.33 2.504-11.372 2.504-15.702 0-2.145-1.231-3.224-2.85-3.251-4.468v-3.196c.027 1.619 1.106 3.237 3.25 4.469 4.345 2.504 11.373 2.504 15.703 0 2.2-1.273 3.278-2.933 3.25-4.593Z" fill="#B56B09"/><path d="M64.072 40.886c-1.466-.304-2.863-.802-4.04-1.48-2.144-1.231-3.223-2.85-3.25-4.468v3.195c.027 1.619 1.106 3.237 3.25 4.469 1.177.678 2.56 1.176 4.04 1.48v-3.196Z" fill="#F71"/><path d="M76.938 35.906c-4.344 2.504-11.372 2.504-15.702 0-4.33-2.505-4.33-6.558 0-9.062 4.33-2.504 11.372-2.504 15.702 0s4.33 6.557 0 9.062Z" fill="#FFDC5F"/><path d="M80.203 31.313v3.195c.028 1.66-1.051 3.32-3.251 4.593-4.344 2.505-11.372 2.505-15.702 0-2.144-1.23-3.223-2.85-3.251-4.468v-3.196c.028 1.619 1.107 3.238 3.251 4.469 4.33 2.504 11.372 2.504 15.702 0 2.2-1.273 3.279-2.933 3.251-4.593Z" fill="#B56B09"/><path d="M65.746 37.483c-1.646-.304-3.21-.816-4.51-1.577-2.144-1.231-3.223-2.85-3.25-4.468v3.195c.027 1.62 1.106 3.238 3.25 4.469 1.315.76 2.864 1.273 4.51 1.577v-3.196Z" fill="#F71"/><path d="M76.51 32.626c-4.331 2.504-11.373 2.504-15.703 0s-4.33-6.557 0-9.061c4.344-2.504 11.372-2.504 15.702 0s4.33 6.557 0 9.061Z" fill="#B56B09"/><path d="M79.76 28.033v3.196c.028 1.66-1.051 3.32-3.25 4.593-4.33 2.504-11.373 2.504-15.703 0-2.144-1.231-3.223-2.85-3.25-4.468v-3.196c.027 1.619 1.106 3.237 3.25 4.468 4.344 2.504 11.372 2.504 15.702 0 2.2-1.272 3.279-2.932 3.251-4.593Z" fill="#B56B09"/><path d="M64.805 34.094c-1.452-.304-2.822-.802-3.998-1.48-2.144-1.231-3.223-2.85-3.25-4.469v3.196c.027 1.619 1.106 3.237 3.25 4.468 1.176.678 2.546 1.163 3.998 1.48v-3.195Z" fill="#F71"/><path d="M76.19 28.517c-4.343 2.504-11.37 2.504-15.701 0-4.33-2.504-4.33-6.557 0-9.061 4.33-2.504 11.372-2.504 15.702 0s4.33 6.557 0 9.061Z" fill="#B56B09"/><path d="M79.442 23.925v3.195c.028 1.66-1.051 3.32-3.25 4.593-4.345 2.504-11.373 2.504-15.703 0-2.144-1.231-3.223-2.85-3.25-4.468v-3.196c.027 1.619 1.106 3.237 3.25 4.468 4.33 2.505 11.372 2.505 15.702 0 2.2-1.272 3.279-2.932 3.251-4.592Z" fill="#B56B09"/><path d="M64.474 29.985c-1.453-.305-2.823-.803-3.985-1.467-2.144-1.231-3.223-2.85-3.25-4.468v3.195c.027 1.619 1.106 3.238 3.25 4.469 1.162.678 2.532 1.162 3.985 1.466v-3.195Z" fill="#F71"/><path d="M69.55 27.135c6.136 0 11.11-2.868 11.11-6.405 0-3.538-4.974-6.406-11.11-6.406-6.135 0-11.108 2.868-11.108 6.406 0 3.537 4.973 6.405 11.109 6.405Z" fill="#FFDC5F"/><path d="M80.66 20.66v3.196c.027 1.66-1.052 3.32-3.251 4.593-4.33 2.504-11.372 2.504-15.702 0-2.145-1.231-3.224-2.85-3.251-4.468v-3.196c.027 1.619 1.106 3.237 3.25 4.468 4.33 2.504 11.373 2.504 15.703 0 2.2-1.272 3.278-2.933 3.25-4.593Z" fill="#B56B09"/><path d="M64.474 26.428a12.796 12.796 0 0 1-2.781-1.162c-2.145-1.23-3.224-2.85-3.251-4.468v3.196c.027 1.618 1.106 3.237 3.25 4.468.845.484 1.772.872 2.782 1.162v-3.196Z" fill="#F71"/><path d="M76.343 22.181c-4.33 2.504-11.371 2.504-15.702 0-4.33-2.504-4.33-6.557 0-9.061 4.344-2.504 11.372-2.504 15.702 0s4.33 6.557 0 9.061Z" fill="#FFDC5F"/><path d="M79.594 17.588v3.196c.028 1.66-1.051 3.32-3.25 4.593-4.33 2.504-11.372 2.504-15.703 0-2.144-1.231-3.223-2.85-3.25-4.468v-3.196c.027 1.618 1.106 3.237 3.25 4.468 4.344 2.504 11.372 2.504 15.702 0 2.2-1.272 3.279-2.933 3.251-4.593Z" fill="#B56B09"/><path d="M63.422 23.357a12.794 12.794 0 0 1-2.78-1.162c-2.145-1.231-3.224-2.85-3.252-4.468v3.195c.028 1.619 1.107 3.238 3.251 4.469.844.484 1.771.871 2.781 1.162v-3.196Z" fill="#F71"/><path d="M75.72 18.998c-4.33 2.504-11.371 2.504-15.701 0-4.344-2.504-4.344-6.557 0-9.061 4.33-2.504 11.372-2.504 15.702 0 4.344 2.504 4.344 6.557 0 9.061Z" fill="#B56B09"/><path d="M78.986 14.405v3.196c.027 1.66-1.052 3.32-3.251 4.593-4.33 2.504-11.372 2.504-15.702 0-2.145-1.231-3.224-2.85-3.251-4.468V14.53c.027 1.618 1.106 3.237 3.25 4.468 4.33 2.504 11.373 2.504 15.703 0 2.2-1.273 3.278-2.933 3.25-4.593Z" fill="#B56B09"/><path d="M62.8 20.174a12.793 12.793 0 0 1-2.781-1.162c-2.145-1.231-3.224-2.85-3.251-4.469v3.196c.027 1.619 1.106 3.237 3.25 4.469.845.484 1.771.871 2.781 1.162v-3.196Z" fill="#F71"/><path d="M76.8 15.57c-4.33 2.504-11.372 2.504-15.702 0-4.344-2.504-4.344-6.557 0-9.061 4.33-2.504 11.372-2.504 15.702 0 4.344 2.504 4.344 6.557 0 9.061Z" fill="#FFB421"/><path d="M75.776 7.104c-3.763-2.172-9.878-2.172-13.64 0-1.937 1.12-2.878 2.6-2.809 4.067.056-1.314.94-2.628 2.684-3.638 3.597-2.075 9.421-2.075 13.018 0 3.597 2.075 3.597 5.437 0 7.526-1.743 1.01-4.012 1.522-6.294 1.55 2.545.027 5.104-.513 7.041-1.62 3.763-2.171 3.763-5.7 0-7.871v-.014Z" fill="#B56B09"/><path d="M80.05 10.977v3.196c.029 1.66-1.05 3.32-3.25 4.593-4.33 2.504-11.372 2.504-15.702 0-2.145-1.231-3.224-2.85-3.251-4.468v-3.196c.027 1.618 1.106 3.237 3.25 4.468 4.331 2.504 11.373 2.504 15.703 0 2.2-1.273 3.279-2.933 3.25-4.593Z" fill="#B56B09"/><path d="M63.879 16.746a12.791 12.791 0 0 1-2.781-1.162c-2.145-1.231-3.224-2.85-3.251-4.468v3.195c.027 1.619 1.106 3.237 3.25 4.469.845.484 1.772.871 2.782 1.162v-3.196ZM55.647 59.423c-4.344 2.504-11.372 2.504-15.702 0s-4.33-6.557 0-9.061c4.33-2.504 11.372-2.504 15.702 0s4.33 6.557 0 9.061Z" fill="#F71"/><path d="M58.898 54.83v3.196c.028 1.66-1.051 3.32-3.25 4.593-4.345 2.504-11.373 2.504-15.703 0-2.144-1.231-3.223-2.85-3.25-4.468v-3.196c.027 1.618 1.106 3.237 3.25 4.468 4.33 2.504 11.372 2.504 15.702 0 2.2-1.272 3.279-2.933 3.251-4.593Z" fill="#F71"/><path d="M42.892 60.628c-1.065-.304-2.061-.706-2.947-1.217-2.144-1.232-3.223-2.85-3.25-4.469v3.196c.027 1.619 1.106 3.237 3.25 4.468.886.512 1.882.913 2.947 1.218v-3.196ZM55.19 55.258c-4.343 2.504-11.371 2.504-15.701 0s-4.33-6.557 0-9.061c4.33-2.504 11.371-2.504 15.702 0 4.33 2.504 4.33 6.557 0 9.061Z" fill="#F71"/><path d="M58.442 50.666v3.195c.027 1.66-1.052 3.32-3.251 4.593-4.344 2.504-11.372 2.504-15.702 0-2.145-1.231-3.223-2.85-3.251-4.468V50.79c.028 1.619 1.106 3.237 3.25 4.468 4.331 2.505 11.373 2.505 15.703 0 2.2-1.272 3.278-2.932 3.25-4.593Z" fill="#F71"/><path d="M43.514 56.739c-1.466-.304-2.85-.802-4.04-1.48-2.143-1.231-3.222-2.85-3.25-4.469v3.196c.028 1.619 1.107 3.237 3.25 4.469 1.177.677 2.56 1.175 4.04 1.48v-3.196Z" fill="#F71"/><path d="M48.384 53.626c6.136 0 11.11-2.868 11.11-6.405 0-3.538-4.974-6.406-11.11-6.406-6.135 0-11.109 2.868-11.109 6.406 0 3.537 4.974 6.405 11.11 6.405Z" fill="#FFDC5F"/><path d="M59.48 47.166v3.196c.027 1.66-1.052 3.32-3.252 4.593-4.33 2.504-11.372 2.504-15.702 0-2.144-1.232-3.223-2.85-3.25-4.469V47.29c.027 1.619 1.106 3.238 3.25 4.469 4.33 2.504 11.372 2.504 15.702 0 2.2-1.273 3.279-2.933 3.251-4.593Z" fill="#B56B09"/><path d="M45.036 53.335c-1.646-.304-3.21-.816-4.51-1.577-2.144-1.231-3.223-2.85-3.25-4.468v3.196c.027 1.618 1.106 3.237 3.25 4.468 1.315.76 2.864 1.273 4.51 1.577v-3.196Z" fill="#F71"/><path d="M55.951 48.48c-4.344 2.503-11.372 2.503-15.702 0-4.33-2.505-4.33-6.558 0-9.062 4.344-2.504 11.372-2.504 15.702 0s4.33 6.557 0 9.061Z" fill="#B56B09"/><path d="M59.216 43.886v3.196c.028 1.66-1.051 3.32-3.25 4.593-4.345 2.504-11.373 2.504-15.703 0-2.144-1.231-3.223-2.85-3.25-4.468V44.01c.027 1.618 1.106 3.237 3.25 4.468 4.344 2.504 11.372 2.504 15.702 0 2.2-1.273 3.279-2.933 3.251-4.593Z" fill="#B56B09"/><path d="M44.248 49.947c-1.453-.305-2.822-.803-3.998-1.48-2.145-1.232-3.224-2.85-3.252-4.47v3.197c.028 1.618 1.107 3.237 3.252 4.468 1.175.678 2.545 1.162 3.998 1.48v-3.196Z" fill="#F71"/><path d="M55.647 44.372c-4.344 2.504-11.372 2.504-15.702 0-4.344-2.504-4.344-6.557 0-9.061 4.33-2.504 11.372-2.504 15.702 0 4.344 2.504 4.344 6.557 0 9.061Z" fill="#B56B09"/><path d="M58.898 39.78v3.195c.028 1.66-1.051 3.32-3.25 4.593-4.345 2.504-11.373 2.504-15.703 0-2.144-1.231-3.223-2.85-3.25-4.468v-3.196c.027 1.618 1.106 3.237 3.25 4.468 4.33 2.504 11.372 2.504 15.702 0 2.2-1.273 3.279-2.933 3.251-4.593Z" fill="#B56B09"/><path d="M43.93 45.839c-1.453-.318-2.823-.802-3.985-1.466-2.144-1.232-3.223-2.85-3.25-4.469V43.1c.027 1.618 1.106 3.237 3.25 4.468 1.162.678 2.532 1.162 3.984 1.467v-3.196Z" fill="#F71"/><path d="M56.034 41.453c-4.33 2.504-11.372 2.504-15.702 0s-4.33-6.557 0-9.061c4.344-2.504 11.372-2.504 15.702 0s4.33 6.557 0 9.061Z" fill="#FFDC5F"/><path d="M59.286 36.86v3.196c.027 1.66-1.052 3.32-3.252 4.593-4.33 2.504-11.371 2.504-15.701 0-2.145-1.231-3.224-2.85-3.252-4.469v-3.195c.028 1.618 1.107 3.237 3.252 4.468 4.344 2.504 11.371 2.504 15.702 0 2.2-1.273 3.278-2.933 3.25-4.593Z" fill="#B56B09"/><path d="M43.113 42.629a12.799 12.799 0 0 1-2.78-1.162c-2.145-1.231-3.224-2.85-3.252-4.469v3.196c.028 1.619 1.107 3.237 3.252 4.468.843.485 1.77.872 2.78 1.163v-3.196Z" fill="#F71"/><path d="M55.55 38.367c-4.344 2.504-11.371 2.504-15.702 0-4.343-2.505-4.343-6.558 0-9.062 4.344-2.504 11.372-2.504 15.702 0s4.344 6.557 0 9.062Z" fill="#FFDC5F"/><path d="M58.815 33.774v3.195c.028 1.66-1.051 3.32-3.25 4.593-4.345 2.504-11.373 2.504-15.703 0-2.144-1.23-3.223-2.85-3.25-4.468v-3.196c.027 1.619 1.106 3.237 3.25 4.469 4.344 2.504 11.372 2.504 15.702 0 2.2-1.273 3.279-2.933 3.251-4.593Z" fill="#B56B09"/><path d="M42.629 39.529a12.796 12.796 0 0 1-2.78-1.162c-2.145-1.231-3.224-2.85-3.252-4.469v3.196c.028 1.619 1.107 3.237 3.251 4.469.844.484 1.771.871 2.781 1.162v-3.196Z" fill="#F71"/><path d="M54.72 35.268c-4.33 2.504-11.372 2.504-15.702 0s-4.33-6.557 0-9.061c4.344-2.504 11.372-2.504 15.702 0s4.33 6.557 0 9.061Z" fill="#FFDC5F"/><path d="M57.985 30.675v3.196c.028 1.66-1.051 3.32-3.25 4.593-4.33 2.504-11.373 2.504-15.703 0-2.144-1.231-3.223-2.85-3.25-4.468V30.8c.027 1.618 1.106 3.237 3.25 4.468 4.344 2.504 11.372 2.504 15.702 0 2.2-1.273 3.279-2.933 3.251-4.593Z" fill="#B56B09"/><path d="M41.8 36.43a12.794 12.794 0 0 1-2.782-1.161c-2.144-1.232-3.223-2.85-3.25-4.469v3.196c.027 1.618 1.106 3.237 3.25 4.468.844.484 1.771.872 2.781 1.162v-3.195Z" fill="#F71"/><path d="M54.291 31.393c-4.33 2.504-11.371 2.504-15.702 0-4.344-2.504-4.344-6.558 0-9.062 4.33-2.504 11.372-2.504 15.702 0 4.344 2.504 4.344 6.558 0 9.062Z" fill="#FFB421"/><path d="M53.254 22.912c-3.763-2.171-9.878-2.171-13.64 0-1.938 1.121-2.878 2.601-2.81 4.068.056-1.314.942-2.629 2.685-3.639 3.597-2.075 9.42-2.075 13.018 0 3.597 2.075 3.597 5.437 0 7.526-1.743 1.01-4.012 1.522-6.295 1.55 2.546.027 5.105-.512 7.042-1.619 3.763-2.172 3.763-5.7 0-7.872v-.014Z" fill="#B56B09"/><path d="M57.542 26.8v3.195c.028 1.66-1.05 3.32-3.25 4.594-4.33 2.504-11.372 2.504-15.702 0-2.145-1.232-3.224-2.85-3.252-4.469v-3.196c.028 1.619 1.107 3.238 3.252 4.469 4.33 2.504 11.371 2.504 15.701 0 2.2-1.273 3.28-2.933 3.252-4.593Z" fill="#B56B09"/><path d="M41.356 32.555a12.796 12.796 0 0 1-2.78-1.162c-2.145-1.231-3.224-2.85-3.251-4.468v3.195c.027 1.619 1.106 3.238 3.25 4.469.844.484 1.771.871 2.781 1.162v-3.196Z" fill="#F71"/><path d="M95.269 60.473c-4.33 2.504-11.372 2.504-15.702 0s-4.33-6.557 0-9.062c4.344-2.504 11.371-2.504 15.702 0 4.33 2.505 4.33 6.558 0 9.062Z" fill="#B56B09"/><path d="M98.52 55.88v3.196c.027 1.66-1.052 3.32-3.251 4.593-4.33 2.504-11.372 2.504-15.702 0-2.145-1.231-3.224-2.85-3.251-4.469v-3.195c.027 1.618 1.106 3.237 3.25 4.468 4.345 2.504 11.373 2.504 15.703 0 2.2-1.273 3.278-2.933 3.25-4.593Z" fill="#B56B09"/><path d="M82.513 61.678c-1.065-.304-2.06-.706-2.946-1.218-2.145-1.23-3.224-2.85-3.251-4.468v3.196c.027 1.618 1.106 3.237 3.25 4.468.886.512 1.882.913 2.947 1.218v-3.196Z" fill="#F71"/><path d="M94.812 56.31c-4.33 2.504-11.372 2.504-15.702 0-4.344-2.504-4.344-6.557 0-9.061 4.33-2.504 11.372-2.504 15.702 0 4.344 2.504 4.344 6.557 0 9.061Z" fill="#B56B09"/><path d="M98.063 51.717v3.196c.028 1.66-1.051 3.32-3.25 4.593-4.331 2.504-11.373 2.504-15.703 0-2.144-1.231-3.223-2.85-3.25-4.468v-3.196c.027 1.618 1.106 3.237 3.25 4.468 4.33 2.504 11.372 2.504 15.702 0 2.2-1.273 3.279-2.933 3.251-4.593Z" fill="#B56B09"/><path d="M83.136 57.79c-1.466-.304-2.864-.802-4.04-1.48-2.144-1.23-3.223-2.85-3.25-4.468v3.196c.027 1.618 1.106 3.237 3.25 4.468 1.176.678 2.56 1.176 4.04 1.48v-3.195Z" fill="#F71"/><path d="M96.016 52.81c-4.33 2.504-11.372 2.504-15.702 0-4.344-2.504-4.344-6.558 0-9.062 4.344-2.504 11.372-2.504 15.702 0s4.344 6.558 0 9.062Z" fill="#FFDC5F"/><path d="M99.267 48.217v3.195c.027 1.66-1.052 3.32-3.251 4.593-4.33 2.504-11.372 2.504-15.702 0-2.144-1.231-3.224-2.85-3.251-4.468V48.34c.027 1.619 1.106 3.237 3.25 4.468 4.345 2.505 11.373 2.505 15.703 0 2.2-1.272 3.278-2.932 3.25-4.592Z" fill="#B56B09"/><path d="M84.824 54.387c-1.647-.304-3.21-.816-4.51-1.577-2.144-1.231-3.224-2.85-3.251-4.468v3.195c.027 1.619 1.106 3.238 3.25 4.469 1.315.76 2.864 1.273 4.51 1.577v-3.196Z" fill="#F71"/><path d="M87.729 51.4c6.135 0 11.109-2.867 11.109-6.405 0-3.537-4.974-6.405-11.11-6.405-6.134 0-11.108 2.868-11.108 6.405 0 3.538 4.974 6.405 11.109 6.405Z" fill="#B56B09"/><path d="M98.838 44.938v3.196c.028 1.66-1.052 3.32-3.251 4.593-4.33 2.504-11.372 2.504-15.702 0-2.145-1.231-3.224-2.85-3.251-4.468v-3.196c.028 1.618 1.106 3.237 3.25 4.468 4.331 2.504 11.373 2.504 15.703 0 2.2-1.273 3.278-2.933 3.25-4.593Z" fill="#B56B09"/><path d="M83.87 50.998c-1.453-.304-2.823-.802-3.999-1.48-2.144-1.231-3.223-2.85-3.251-4.468v3.196c.028 1.618 1.107 3.237 3.251 4.468 1.176.678 2.546 1.162 3.998 1.48v-3.196Z" fill="#F71"/><path d="M95.268 45.422c-4.344 2.504-11.372 2.504-15.702 0s-4.33-6.557 0-9.061c4.33-2.504 11.372-2.504 15.702 0s4.33 6.557 0 9.061Z" fill="#B56B09"/><path d="M98.52 40.83v3.195c.027 1.66-1.052 3.32-3.251 4.593-4.344 2.504-11.372 2.504-15.702 0-2.145-1.231-3.224-2.85-3.251-4.469v-3.195c.027 1.618 1.106 3.237 3.25 4.468 4.33 2.504 11.373 2.504 15.703 0 2.2-1.273 3.278-2.933 3.25-4.593Z" fill="#B56B09"/><path d="M83.551 46.889c-1.453-.304-2.822-.802-3.984-1.466-2.145-1.232-3.224-2.85-3.251-4.469v3.196c.027 1.618 1.106 3.237 3.25 4.468 1.163.678 2.532 1.162 3.985 1.467v-3.196Z" fill="#F71"/><path d="M96.472 42.157c-4.344 2.504-11.372 2.504-15.702 0s-4.33-6.558 0-9.062c4.33-2.504 11.372-2.504 15.702 0s4.33 6.558 0 9.062Z" fill="#FFDC5F"/><path d="M99.723 37.564v3.195c.028 1.66-1.051 3.32-3.25 4.593-4.345 2.504-11.373 2.504-15.703 0-2.144-1.23-3.223-2.85-3.25-4.468v-3.196c.027 1.619 1.106 3.237 3.25 4.469 4.33 2.504 11.372 2.504 15.702 0 2.2-1.273 3.279-2.933 3.251-4.593Z" fill="#B56B09"/><path d="M83.55 43.333a12.799 12.799 0 0 1-2.78-1.163c-2.144-1.23-3.223-2.85-3.25-4.468v3.196c.027 1.618 1.106 3.237 3.25 4.468.844.484 1.771.872 2.78 1.162v-3.195Z" fill="#F71"/><path d="M87.563 40.969c6.135 0 11.109-2.868 11.109-6.406 0-3.537-4.974-6.405-11.11-6.405-6.134 0-11.108 2.868-11.108 6.405 0 3.538 4.974 6.406 11.109 6.406Z" fill="#FFDC5F"/><path d="M98.672 34.494v3.196c.028 1.66-1.052 3.32-3.251 4.593-4.33 2.504-11.372 2.504-15.702 0-2.144-1.231-3.224-2.85-3.251-4.468v-3.196c.027 1.618 1.106 3.237 3.25 4.468 4.331 2.504 11.373 2.504 15.703 0 2.2-1.272 3.278-2.933 3.25-4.593Z" fill="#B56B09"/><path d="M82.486 40.262a12.796 12.796 0 0 1-2.781-1.162c-2.144-1.231-3.223-2.85-3.251-4.468v3.195c.028 1.619 1.107 3.238 3.251 4.469.844.484 1.77.871 2.78 1.162v-3.196Z" fill="#F71"/><path d="M94.798 35.918c-4.344 2.504-11.372 2.504-15.702 0s-4.33-6.558 0-9.062c4.33-2.504 11.372-2.504 15.702 0s4.33 6.558 0 9.062Z" fill="#B56B09"/><path d="M98.05 31.325v3.195c.027 1.66-1.052 3.32-3.252 4.593-4.344 2.504-11.372 2.504-15.702 0-2.144-1.23-3.223-2.85-3.25-4.468v-3.196c.027 1.619 1.106 3.237 3.25 4.469 4.33 2.504 11.372 2.504 15.702 0 2.2-1.273 3.279-2.933 3.251-4.593Z" fill="#B56B09"/><path d="M81.877 37.08a12.799 12.799 0 0 1-2.78-1.162c-2.145-1.231-3.224-2.85-3.252-4.468v3.195c.028 1.619 1.107 3.238 3.251 4.469.844.484 1.771.872 2.781 1.162V37.08Z" fill="#F71"/><path d="M95.877 32.487c-4.344 2.504-11.372 2.504-15.702 0s-4.33-6.558 0-9.062c4.33-2.504 11.372-2.504 15.702 0s4.33 6.558 0 9.062Z" fill="#FFB421"/><path d="M94.84 24.006c-3.763-2.172-9.878-2.172-13.64 0-1.938 1.121-2.878 2.601-2.81 4.068.056-1.315.942-2.629 2.685-3.639 3.597-2.075 9.42-2.075 13.018 0 3.597 2.075 3.597 5.437 0 7.526-1.743 1.01-4.012 1.522-6.295 1.55 2.546.027 5.105-.512 7.042-1.619 3.763-2.172 3.763-5.7 0-7.872v-.014Z" fill="#B56B09"/><path d="M99.129 27.895v3.195c.027 1.66-1.052 3.32-3.252 4.593-4.344 2.504-11.371 2.504-15.701 0-2.145-1.231-3.224-2.85-3.252-4.468v-3.196c.028 1.619 1.107 3.237 3.251 4.468 4.33 2.505 11.372 2.505 15.702 0 2.2-1.272 3.28-2.932 3.252-4.593Z" fill="#B56B09"/><path d="M82.942 33.65a12.794 12.794 0 0 1-2.78-1.163c-2.145-1.231-3.224-2.85-3.252-4.468v3.195c.028 1.619 1.107 3.238 3.252 4.469.843.484 1.77.871 2.78 1.162v-3.196Z" fill="#F71"/><path d="M74.476 64.431c-4.33 2.504-11.372 2.504-15.702 0-4.344-2.504-4.344-6.557 0-9.061 4.33-2.504 11.371-2.504 15.702 0 4.344 2.504 4.344 6.557 0 9.061Z" fill="#B56B09"/><path d="M77.727 59.838v3.196c.027 1.66-1.052 3.32-3.251 4.593-4.33 2.504-11.372 2.504-15.702 0-2.145-1.231-3.224-2.85-3.251-4.468v-3.196c.027 1.618 1.106 3.237 3.25 4.468 4.33 2.504 11.372 2.504 15.703 0 2.2-1.272 3.278-2.932 3.25-4.593Z" fill="#B56B09"/><path d="M61.72 65.649c-1.065-.304-2.06-.706-2.946-1.217-2.145-1.232-3.224-2.85-3.251-4.469v3.196c.027 1.619 1.106 3.237 3.25 4.468.886.512 1.882.913 2.947 1.218v-3.196Z" fill="#F71"/><path d="M65.18 62.757c6.134 0 11.108-2.868 11.108-6.405 0-3.538-4.974-6.406-11.109-6.406S54.07 52.814 54.07 56.352c0 3.537 4.974 6.405 11.11 6.405Z" fill="#B56B09"/><path d="M76.274 56.296v3.195c.028 1.66-1.051 3.32-3.25 4.593-4.331 2.504-11.373 2.504-15.703 0-2.144-1.23-3.223-2.85-3.25-4.468V56.42c.027 1.619 1.106 3.237 3.25 4.469 4.33 2.504 11.372 2.504 15.702 0 2.2-1.273 3.279-2.933 3.251-4.593Z" fill="#B56B09"/><path d="M61.36 62.368c-1.466-.304-2.863-.802-4.039-1.48-2.144-1.231-3.223-2.85-3.25-4.468v3.195c.027 1.619 1.106 3.238 3.25 4.469 1.176.678 2.56 1.176 4.04 1.48v-3.196Z" fill="#F71"/><path d="M74.24 57.39c-4.33 2.503-11.371 2.503-15.701 0-4.33-2.505-4.33-6.558 0-9.062 4.344-2.504 11.371-2.504 15.701 0s4.33 6.557 0 9.061Z" fill="#FFDC5F"/><path d="M77.492 52.796v3.196c.027 1.66-1.052 3.32-3.251 4.593-4.33 2.504-11.372 2.504-15.702 0-2.145-1.231-3.224-2.85-3.251-4.468V52.92c.027 1.618 1.106 3.237 3.25 4.468 4.345 2.504 11.372 2.504 15.703 0 2.2-1.272 3.278-2.933 3.25-4.593Z" fill="#B56B09"/><path d="M63.035 58.967c-1.647-.304-3.21-.816-4.51-1.577-2.145-1.231-3.224-2.85-3.251-4.469v3.196c.027 1.619 1.106 3.237 3.25 4.469 1.315.76 2.864 1.272 4.51 1.577v-3.196Z" fill="#F71"/><path d="M73.798 54.111c-4.33 2.504-11.372 2.504-15.702 0-4.344-2.504-4.344-6.557 0-9.061 4.33-2.504 11.372-2.504 15.702 0 4.344 2.504 4.344 6.557 0 9.061Z" fill="#B56B09"/><path d="M77.049 49.518v3.196c.028 1.66-1.052 3.32-3.251 4.593-4.33 2.504-11.372 2.504-15.702 0-2.144-1.232-3.223-2.85-3.251-4.469v-3.195c.028 1.618 1.107 3.237 3.25 4.468 4.331 2.504 11.373 2.504 15.703 0 2.2-1.273 3.279-2.933 3.25-4.593Z" fill="#B56B09"/><path d="M62.094 55.578c-1.453-.304-2.822-.802-3.998-1.48-2.144-1.231-3.223-2.85-3.251-4.468v3.195c.028 1.619 1.107 3.238 3.25 4.469 1.177.678 2.546 1.162 3.999 1.48v-3.196Z" fill="#F71"/><path d="M74.614 50.596c-4.33 2.505-11.372 2.505-15.702 0-4.344-2.504-4.344-6.557 0-9.061 4.33-2.504 11.372-2.504 15.702 0 4.344 2.504 4.344 6.557 0 9.061Z" fill="#FFDC5F"/><path d="M77.865 46.004v3.195c.028 1.66-1.051 3.32-3.251 4.593-4.33 2.504-11.372 2.504-15.702 0-2.144-1.23-3.223-2.85-3.251-4.468v-3.196c.028 1.619 1.107 3.237 3.25 4.469 4.331 2.504 11.373 2.504 15.703 0 2.2-1.273 3.279-2.933 3.25-4.593Z" fill="#B56B09"/><path d="M62.896 52.063c-1.452-.304-2.822-.802-3.984-1.466-2.144-1.231-3.223-2.85-3.251-4.469v3.196c.028 1.619 1.107 3.237 3.25 4.469 1.163.678 2.533 1.162 3.985 1.466v-3.196Z" fill="#F71"/><path d="M73.48 47.013c-4.33 2.504-11.373 2.504-15.703 0s-4.33-6.557 0-9.061c4.344-2.505 11.372-2.505 15.702 0 4.33 2.504 4.33 6.557 0 9.06Z" fill="#FFB421"/><path d="M72.456 38.547c-3.763-2.172-9.878-2.172-13.64 0-1.938 1.12-2.878 2.601-2.81 4.068.056-1.315.942-2.629 2.685-3.639 3.597-2.075 9.42-2.075 13.018 0 3.597 2.075 3.597 5.437 0 7.526-1.743 1.01-4.012 1.522-6.295 1.55 2.546.027 5.105-.513 7.042-1.62 3.763-2.171 3.763-5.699 0-7.871v-.014Z" fill="#B56B09"/><path d="M76.73 42.42v3.196c.028 1.66-1.05 3.32-3.25 4.593-4.33 2.504-11.372 2.504-15.702 0-2.145-1.231-3.224-2.85-3.251-4.469v-3.195c.027 1.618 1.106 3.237 3.25 4.468 4.345 2.504 11.373 2.504 15.703 0 2.2-1.273 3.278-2.933 3.25-4.593Z" fill="#B56B09"/><path d="M60.558 48.19a12.794 12.794 0 0 1-2.78-1.163c-2.145-1.231-3.224-2.85-3.251-4.468v3.195c.027 1.619 1.106 3.238 3.25 4.469.845.484 1.771.871 2.781 1.162v-3.196Z" fill="#F71"/><path d="M34.82 43.35a.281.281 0 0 0 .047-.561l-.047.56ZM5.235 65.711 5 65.865l.235-.153Zm47.613 7.609a1.499 1.499 0 1 0 2.998 0 1.499 1.499 0 0 0-2.998 0Zm-19.9-30.642a.281.281 0 1 0-.018.561l.018-.562Zm-3.81.625a.281.281 0 0 0-.035-.56l.035.56Zm-3.858-.154a.281.281 0 0 0 .082.556l-.082-.556Zm-3.647 1.27a.281.281 0 0 0-.128-.547l.128.547Zm-3.83.491a.281.281 0 0 0 .176.534l-.176-.534Zm-3.364 1.888a.281.281 0 1 0-.228-.514l.228.514Zm-3.657 1.246a.281.281 0 1 0 .287.483l-.287-.483Zm-2.795 2.656a.281.281 0 0 0-.362-.43l.362.43Zm-3.033 2.382a.281.281 0 1 0 .453.332l-.453-.332Zm-1.22 3.634a.281.281 0 0 0-.54-.158l.54.158Zm-.853 3.735a.281.281 0 0 0 .558-.07l-.558.07Zm1.654 3.47a.281.281 0 1 0-.505.247l.505-.247Zm1.593 3.53a.281.281 0 0 0 .445-.343l-.445.344ZM9.13 69.92a.281.281 0 0 0-.385.41l.385-.41Zm2.644 2.847a.281.281 0 1 0 .319-.463l-.32.463Zm3.595 1.474a.281.281 0 0 0-.253.502l.253-.502Zm3.314 2.03a.281.281 0 0 0 .19-.528l-.19.529Zm3.847.564a.28.28 0 1 0-.132.547l.132-.547Zm3.673 1.272a.281.281 0 1 0 .079-.557l-.08.557Zm3.884-.188a.281.281 0 1 0-.03.561l.03-.561Zm3.84.609a.281.281 0 1 0-.015-.562l.015.562Zm3.803-.816a.28.28 0 1 0 .058.559l-.058-.56Zm3.888.01a.281.281 0 0 0-.1-.552l.1.553Zm3.637-1.374a.281.281 0 0 0 .142.544l-.142-.544Zm3.848-.568a.281.281 0 0 0-.182-.532l.182.532Zm3.384-1.913a.281.281 0 1 0 .224.516l-.224-.516ZM34.867 42.79a36.144 36.144 0 0 0-1.919-.11l-.018.561c.639.02 1.269.056 1.89.11l.047-.561Zm-5.764-.046c-1.269.08-2.548.217-3.823.407l.082.556a44.723 44.723 0 0 1 3.776-.402l-.035-.56Zm-7.598 1.13a44.36 44.36 0 0 0-3.702 1.038l.176.534a43.742 43.742 0 0 1 3.654-1.025l-.128-.547Zm-7.293 2.412a31.898 31.898 0 0 0-3.43 1.76l.287.483a31.35 31.35 0 0 1 3.37-1.729l-.228-.514Zm-6.587 3.986c-1.035.872-1.936 1.81-2.67 2.812l.452.332c.705-.96 1.574-1.866 2.58-2.714l-.362-.43ZM3.194 56.56a9.516 9.516 0 0 0-.313 3.893l.558-.07a8.954 8.954 0 0 1 .294-3.665l-.54-.158Zm.836 7.61c.275.56.597 1.125.97 1.696l.47-.307c-.36-.553-.671-1.099-.935-1.636l-.505.247ZM5 65.865c.357.549.734 1.078 1.128 1.588l.445-.344a23.648 23.648 0 0 1-1.103-1.55l-.47.306Zm3.745 4.464c.947.888 1.96 1.7 3.029 2.437l.319-.463a25.34 25.34 0 0 1-2.963-2.384l-.385.41Zm6.371 4.413a31.947 31.947 0 0 0 3.567 1.529l.19-.53a31.376 31.376 0 0 1-3.504-1.501l-.253.502Zm7.282 2.639c1.244.3 2.515.542 3.805.725l.079-.557a39.62 39.62 0 0 1-3.752-.715l-.132.547Zm7.659 1.098c1.282.069 2.574.084 3.87.048l-.015-.562c-1.282.036-2.56.02-3.825-.047l-.03.561Zm7.731-.21a51.865 51.865 0 0 0 3.83-.547l-.1-.553c-1.256.227-2.52.409-3.788.542l.058.559Zm7.609-1.378a50.928 50.928 0 0 0 3.706-1.112l-.182-.532c-1.201.411-2.425.778-3.666 1.1l.142.544Zm7.314-2.51a45.99 45.99 0 0 0 1.758-.808l-.245-.505c-.57.277-1.15.543-1.737.798l.224.516ZM34.796 43.63a.562.562 0 0 0 .095-1.12l-.095 1.12ZM5.235 65.712l-.47.307.47-.307Zm46.114 7.609a2.998 2.998 0 1 0 5.996 0 2.998 2.998 0 0 0-5.996 0ZM32.957 42.398a.562.562 0 1 0-.035 1.123l.035-1.123Zm-3.801 1.187a.562.562 0 0 0-.07-1.122l.07 1.122Zm-3.918-.713a.562.562 0 0 0 .166 1.112l-.166-1.112Zm-3.54 1.821a.562.562 0 0 0-.257-1.094l.257 1.094Zm-3.983-.049a.562.562 0 0 0 .352 1.068l-.352-1.068Zm-3.163 2.413a.562.562 0 0 0-.454-1.029l.454 1.029Zm-3.914.747a.562.562 0 0 0 .575.966l-.575-.966Zm-2.47 3.112a.562.562 0 1 0-.724-.86l.724.86Zm-3.44 2a.562.562 0 1 0 .906.666l-.906-.666Zm-.725 3.88a.562.562 0 1 0-1.079-.317l1.079.317Zm-1.4 3.69a.562.562 0 0 0 1.115-.138l-1.116.139Zm2.184 3.312a.562.562 0 0 0-1.01.495l1.01-.495Zm1.119 3.827a.562.562 0 1 0 .89-.688l-.89.688Zm3.416 2.09a.562.562 0 0 0-.769.82l.77-.82Zm2.292 3.282a.562.562 0 1 0 .638-.926l-.638.926Zm3.882.992a.562.562 0 1 0-.507 1.004l.507-1.004Zm3.091 2.546a.562.562 0 0 0 .381-1.058l-.38 1.058Zm4.01.026a.562.562 0 0 0-.265 1.093l.264-1.093Zm3.566 1.823a.562.562 0 1 0 .158-1.113l-.158 1.113Zm3.939-.747a.562.562 0 0 0-.06 1.123l.06-1.123Zm3.833 1.17a.562.562 0 1 0-.031-1.123l.031 1.124Zm3.765-1.376a.562.562 0 1 0 .118 1.118l-.118-1.118Zm3.968.568a.562.562 0 1 0-.2-1.107l.2 1.107Zm3.517-1.924a.562.562 0 0 0 .282 1.088l-.282-1.088Zm4.009-.03a.562.562 0 1 0-.364-1.064l.364 1.064Zm3.181-2.437a.562.562 0 1 0 .448 1.031l-.448-1.03ZM34.891 42.51a36.307 36.307 0 0 0-1.934-.111l-.035 1.123c.633.02 1.258.056 1.874.108l.095-1.12Zm-5.806-.046c-1.277.08-2.564.218-3.847.409l.166 1.112a44.428 44.428 0 0 1 3.752-.399l-.07-1.122Zm-7.644 1.136a44.618 44.618 0 0 0-3.726 1.045l.352 1.068a43.533 43.533 0 0 1 3.63-1.019l-.256-1.094Zm-7.343 2.43a32.165 32.165 0 0 0-3.46 1.775l.575.966c1.04-.62 2.16-1.192 3.34-1.714l-.455-1.028Zm-6.654 4.027c-1.05.884-1.967 1.839-2.716 2.86l.906.666c.69-.94 1.542-1.83 2.534-2.666l-.724-.86Zm-4.52 6.423a9.797 9.797 0 0 0-.322 4.008l1.116-.139a8.673 8.673 0 0 1 .285-3.552l-1.079-.317Zm.854 7.814c.28.57.608 1.146.986 1.726l.942-.614c-.355-.545-.66-1.08-.919-1.607l-1.01.495Zm.986 1.726c.362.554.743 1.09 1.142 1.606l.89-.688a23.361 23.361 0 0 1-1.09-1.532l-.942.614Zm3.789 4.515a26.174 26.174 0 0 0 3.061 2.463l.638-.926a25.069 25.069 0 0 1-2.93-2.357l-.769.82Zm6.436 4.459a32.22 32.22 0 0 0 3.598 1.542l.381-1.058a31.092 31.092 0 0 1-3.472-1.488l-.507 1.004Zm7.343 2.66a40.46 40.46 0 0 0 3.831.731l.158-1.113a39.333 39.333 0 0 1-3.725-.71l-.264 1.093Zm7.71 1.107c1.29.069 2.59.084 3.893.048l-.031-1.124c-1.274.035-2.544.02-3.802-.047l-.06 1.123Zm7.776-.21a52.205 52.205 0 0 0 3.85-.551l-.2-1.107a51.022 51.022 0 0 1-3.768.54l.118 1.117Zm7.65-1.387c1.26-.327 2.504-.7 3.726-1.118l-.364-1.064c-1.194.409-2.411.774-3.645 1.094l.282 1.088Zm7.355-2.523c.598-.26 1.188-.531 1.77-.814l-.492-1.01c-.567.274-1.142.539-1.726.792l.448 1.031Z" fill="#fff" fill-opacity=".35"/><path d="M81.706 9.217a.299.299 0 0 1-.254-.54l.254.54Zm32.215 23.614.241.175-.241-.175Zm-53.14 1.736a1.592 1.592 0 1 1-3.185 0 1.592 1.592 0 0 1 3.185 0Zm22.452-26.62a.299.299 0 0 1 .199.564l-.2-.563Zm3.816-.367a.299.299 0 0 1-.1-.588l.1.588Zm3.714-.953a.299.299 0 1 1 .015.597l-.015-.597Zm3.766.74a.299.299 0 0 1 .059-.593l-.06.594Zm3.837.006a.299.299 0 0 1-.127.584l.126-.584Zm3.493 1.586a.298.298 0 0 1 .191-.565l-.191.565Zm3.737.868a.298.298 0 1 1-.256.539l.256-.54Zm3.024 2.362a.299.299 0 0 1 .325-.501l-.325.501Zm3.376 1.824a.298.298 0 1 1-.399.444l.399-.444Zm2.11 3.19a.299.299 0 0 1 .481-.353l-.481.354Zm2.35 3.028a.298.298 0 1 1-.557.213l.557-.213Zm.192 3.811a.3.3 0 0 1 .597-.024l-.597.024Zm.121 3.815a.298.298 0 1 1-.574-.164l.574.164Zm-2.062 3.239a.299.299 0 1 1 .514.303l-.514-.303Zm-1.712 3.415a.298.298 0 1 1-.46-.38l.46.38Zm-3.008 2.337a.299.299 0 0 1 .408.437l-.408-.436Zm-2.547 2.831a.298.298 0 1 1-.341-.49l.341.49Zm-3.537 1.407a.298.298 0 1 1 .266.534l-.266-.534Zm-3.254 1.976a.3.3 0 0 1-.186-.567l.186.567Zm-3.793.351a.299.299 0 0 1 .11.587l-.11-.587Zm-3.66 1.055a.299.299 0 1 1-.038-.596l.039.596Zm-3.77-.546a.299.299 0 1 1-.022.597l.022-.597Zm-3.799.29a.299.299 0 1 1 .074-.593l-.074.593Zm-3.62-1.195a.298.298 0 1 1-.117.586l.118-.586Zm-3.8-.279a.299.299 0 0 1 .154-.576l-.154.576Zm-3.438-1.647a.299.299 0 0 1-.186.567l.186-.567Zm-3.747-.698a.298.298 0 1 1 .213-.558l-.213.558Zm-3.261-1.973a.299.299 0 0 1-.237.548l.237-.548Zm-3.673-1.016a.299.299 0 0 1 .258-.539l-.258.54Zm-3.1-2.218a.299.299 0 0 1-.276.53l.276-.53Zm20.464-26.51c.578-.27 1.172-.513 1.78-.728l.2.563c-.59.209-1.167.444-1.726.706l-.254-.54Zm5.497-1.684a26.76 26.76 0 0 1 3.814-.365l.015.597a26.162 26.162 0 0 0-3.729.356l-.1-.588Zm7.639-.218c1.265.126 2.53.328 3.778.6l-.127.583a32.808 32.808 0 0 0-3.71-.59l.059-.593Zm7.462 1.62c1.22.412 2.408.892 3.546 1.433l-.256.539a32.117 32.117 0 0 0-3.481-1.407l.191-.565Zm6.895 3.294c1.1.712 2.124 1.49 3.051 2.325l-.399.444a23.683 23.683 0 0 0-2.977-2.268l.325-.501Zm5.642 5.162a14.404 14.404 0 0 1 1.869 3.38l-.557.214a13.808 13.808 0 0 0-1.793-3.24l.481-.354Zm2.658 7.168c.05 1.246-.1 2.53-.476 3.84l-.574-.165c.359-1.25.501-2.47.453-3.651l.597-.024Zm-2.024 7.38c-.314.534-.666 1.07-1.059 1.608l-.482-.352a19.27 19.27 0 0 0 1.027-1.558l.514.303Zm-1.059 1.608a31.895 31.895 0 0 1-1.167 1.505l-.46-.38c.389-.472.771-.964 1.145-1.477l.482.352Zm-3.767 4.279a26.725 26.725 0 0 1-2.955 2.394l-.341-.49a26.113 26.113 0 0 0 2.888-2.34l.408.436Zm-6.226 4.335a26.34 26.34 0 0 1-3.52 1.442l-.186-.567a25.741 25.741 0 0 0 3.44-1.41l.266.535ZM96.965 44a32.15 32.15 0 0 1-3.768.468l-.04-.596a31.527 31.527 0 0 0 3.699-.459l.11.587Zm-7.56.519a43.525 43.525 0 0 1-3.778-.307l.074-.593c1.249.155 2.492.258 3.725.303l-.022.597Zm-7.515-.916a59.35 59.35 0 0 1-3.683-.865l.154-.576c1.215.325 2.431.612 3.647.855l-.118.586Zm-7.307-1.945a78.35 78.35 0 0 1-3.56-1.265l.213-.558c1.169.447 2.348.867 3.533 1.256l-.186.567Zm-7.059-2.69a98.473 98.473 0 0 1-3.436-1.564l.258-.539a97.935 97.935 0 0 0 3.415 1.555l-.237.548Zm-6.812-3.252c-.562-.293-1.117-.589-1.666-.887l.285-.525c.546.297 1.099.591 1.657.882l-.276.53Zm21.12-26.229a.597.597 0 0 1-.506-1.08l.507 1.08Zm32.089 23.343.482.352-.482-.352Zm-51.548 1.737a3.184 3.184 0 1 1-6.369 0 3.184 3.184 0 0 1 6.369 0Zm20.76-26.9a.597.597 0 0 1 .398 1.125l-.398-1.126Zm3.966.208a.597.597 0 1 1-.2-1.178l.2 1.178Zm3.656-1.546a.597.597 0 1 1 .03 1.194l-.03-1.194ZM94.5 7.665a.597.597 0 1 1 .119-1.188l-.119 1.188Zm3.93-.584a.597.597 0 0 1-.254 1.167l.254-1.167Zm3.334 2.161a.597.597 0 1 1 .383-1.131l-.383 1.131Zm3.962.315a.598.598 0 0 1-.513 1.079l.513-1.08Zm2.733 2.883a.597.597 0 1 1 .649-1.003l-.649 1.003Zm3.738 1.351a.597.597 0 1 1-.799.888l.799-.888Zm1.67 3.59a.597.597 0 1 1 .962-.707l-.962.707Zm2.869 2.743a.597.597 0 1 1-1.115.427l1.115-.427Zm-.385 3.93a.597.597 0 0 1 1.193-.048l-1.193.048Zm.706 3.886a.597.597 0 1 1-1.148-.33l1.148.33Zm-2.606 3.004a.596.596 0 1 1 1.029.606l-1.029-.606Zm-1.224 3.757a.598.598 0 0 1-.922-.76l.922.76Zm-3.443 1.93a.597.597 0 1 1 .815.872l-.815-.873Zm-2.172 3.293a.597.597 0 1 1-.683-.98l.683.98Zm-3.841.894a.598.598 0 0 1 .532 1.07l-.532-1.07Zm-3.028 2.528a.597.597 0 0 1-.372-1.135l.372 1.135Zm-3.94-.226a.597.597 0 0 1 .218 1.174L96.8 43.12Zm-3.586 1.646a.597.597 0 1 1-.078-1.192l.078 1.192Zm-3.78-1.142a.597.597 0 1 1-.043 1.193l.044-1.193Zm-3.846.884a.597.597 0 1 1 .147-1.185l-.147 1.185Zm-3.524-1.784a.597.597 0 0 1-.234 1.171l.234-1.17Zm-3.936.303a.597.597 0 0 1 .308-1.154l-.308 1.154Zm-3.268-2.22a.597.597 0 0 1-.372 1.135l.372-1.135Zm-3.946-.135a.597.597 0 0 1 .426-1.116l-.426 1.116Zm-3.037-2.526a.597.597 0 1 1-.473 1.096l.473-1.096Zm-3.92-.473a.597.597 0 1 1 .515-1.077l-.515 1.077Zm-2.833-2.751a.597.597 0 0 1-.552 1.058l.552-1.058Zm20.2-26.516c.587-.275 1.19-.521 1.807-.74l.398 1.126c-.581.206-1.148.437-1.699.695l-.506-1.08Zm5.572-1.709a27.06 27.06 0 0 1 3.858-.368l.03 1.194a25.862 25.862 0 0 0-3.687.352l-.2-1.178Zm7.72-.22c1.276.127 2.552.33 3.811.604l-.254 1.167a32.51 32.51 0 0 0-3.676-.583l.119-1.188Zm7.528 1.634c1.231.416 2.429.9 3.579 1.446l-.513 1.079a31.837 31.837 0 0 0-3.449-1.394l.383-1.131Zm6.961 3.326a24.568 24.568 0 0 1 3.089 2.354l-.799.888a23.34 23.34 0 0 0-2.939-2.24l.649-1.002Zm5.721 5.237a14.685 14.685 0 0 1 1.907 3.45l-1.115.427a13.557 13.557 0 0 0-1.754-3.17l.962-.707Zm2.715 7.332a12.419 12.419 0 0 1-.487 3.934l-1.148-.33c.35-1.22.488-2.408.442-3.556l1.193-.048Zm-2.064 7.544c-.32.543-.678 1.087-1.076 1.632l-.965-.704c.377-.515.713-1.027 1.012-1.534l1.029.606Zm-1.076 1.632a32.476 32.476 0 0 1-1.177 1.519l-.922-.76c.386-.468.764-.955 1.134-1.463l.965.704Zm-3.805 4.32a26.966 26.966 0 0 1-2.987 2.422l-.683-.98a25.876 25.876 0 0 0 2.855-2.314l.815.873Zm-6.296 4.386a26.646 26.646 0 0 1-3.56 1.458l-.372-1.135c1.16-.38 2.295-.843 3.4-1.393l.532 1.07Zm-7.282 2.406c-1.251.232-2.52.387-3.803.472l-.079-1.192c1.24-.081 2.462-.23 3.663-.454l.219 1.174Zm-7.627.523a43.8 43.8 0 0 1-3.803-.309l.147-1.185c1.242.154 2.476.256 3.7.3l-.044 1.194Zm-7.561-.922a59.722 59.722 0 0 1-3.702-.868l.308-1.154a58.46 58.46 0 0 0 3.628.852l-.234 1.17Zm-7.342-1.953a78.689 78.689 0 0 1-3.574-1.27l.426-1.116c1.165.445 2.34.864 3.52 1.25l-.372 1.136Zm-7.084-2.7a99.003 99.003 0 0 1-3.447-1.569l.515-1.077a97.864 97.864 0 0 0 3.405 1.55l-.473 1.096Zm-6.832-3.262c-.563-.293-1.12-.59-1.67-.889l.57-1.05c.544.297 1.095.59 1.652.88l-.552 1.06Z" fill="#fff"/></svg>