<svg width="130" height="109" fill="none" xmlns="http://www.w3.org/2000/svg"><ellipse cx="65.019" cy="69.286" rx="64.415" ry="38.774" fill="#292929"/><ellipse cx="65.019" cy="65.532" rx="64.415" ry="38.774" fill="#3B3B3B"/><path d="M39.746 44.445 15.018 58.727l55.88 32.26h15.12L39.747 44.445Z" fill="#000"/><path d="M86.012 90.88 33.746 60.706V43.94l52.266 30.173v16.765Z" fill="#3C1F0A"/><path d="M86.011 90.997s-.035 0-.058-.012L33.687 60.813s-.058-.059-.058-.105V43.943s.023-.082.058-.105a.106.106 0 0 1 .117 0L86.07 74.01s.058.059.058.105v16.766s-.023.081-.058.104c-.024 0-.035.012-.059.012Zm-52.149-30.36 52.033 30.045V74.185L33.862 44.141v16.497Z" fill="#3C1F0A"/><path d="M39.948 64.4s-.035 0-.058-.011l-6.203-3.58s-.058-.058-.058-.104V52.03c0-.07.047-.117.117-.117s.116.047.116.117v8.615l6.144 3.545s.07.105.047.163a.122.122 0 0 1-.105.058V64.4Z" fill="#FCBE44" opacity=".5"/><path d="M105.82 79.445 86.012 90.882V74.117L105.82 62.68v16.765Z" fill="#F71"/><path d="M86.011 90.997s-.035 0-.058-.012a.122.122 0 0 1-.059-.105V74.115s.024-.082.059-.105l19.808-11.437s.081-.023.116 0a.123.123 0 0 1 .059.105v16.765s-.024.082-.059.105L86.069 90.985s-.035.012-.058.012Zm.117-16.812v16.497l19.575-11.297V62.888L86.128 74.185Z" fill="#252211"/><path d="M86.012 74.114 33.746 43.94l19.808-11.437 52.266 30.172-19.808 11.438Z" fill="#DCDCDC"/><path d="M80.182 87.628s-.035 0-.059-.011L57.692 74.664s-.07-.105-.047-.163c.035-.059.105-.082.164-.047l22.43 12.953s.07.105.047.163a.122.122 0 0 1-.104.058Z" fill="#FCBE44" opacity=".5"/><path d="m52.42 23.924-1.783 1.038c.594-.338 1.41-.292 2.308.221l1.784-1.037c-.898-.525-1.714-.572-2.309-.222ZM54.727 24.156l-1.784 1.038 54.05 31.21 1.795-1.038-54.06-31.21Z" fill="#FFE04A"/><path d="M111.459 58.527a7.543 7.543 0 0 0-1.259-1.97 5.632 5.632 0 0 0-1.422-1.19l-1.784 1.038c.513.291.991.711 1.422 1.189.502.571.945 1.26 1.26 1.97.361.805.559 1.656.559 2.437 0 1.026-.361 1.737-.944 2.075l1.784-1.037c.583-.339.944-1.05.944-2.076 0-.78-.21-1.632-.56-2.436Z" fill="#FFCE45"/><path d="m110.2 56.559-1.784 1.037c.501.572.944 1.26 1.259 1.97l1.784-1.037a7.57 7.57 0 0 0-1.259-1.97Z" fill="#FFE04A"/><path d="m106.994 56.404-54.05-31.21c-1.795-1.038-3.24-.21-3.253 1.853-.011 2.064 1.446 4.559 3.23 5.597l54.049 31.21c1.796 1.037 3.242.21 3.253-1.842.012-2.052-1.445-4.559-3.229-5.596v-.012Z" fill="#FFCE45"/><path d="M108.229 60.172a6.033 6.033 0 0 0-.956-1.493 4.331 4.331 0 0 0-1.073-.91L52.897 26.992c-.688-.396-1.306-.431-1.749-.175l-18.246 10.54 55.449 37.54 19.586-11.309c.443-.256.712-.804.712-1.573 0-.595-.152-1.236-.432-1.843h.012Z" fill="#FCBE44"/><path d="M88.35 75.023s-.047 0-.07-.023L32.83 37.459s-.058-.058-.046-.105c0-.035.023-.082.058-.093l18.246-10.54c.501-.291 1.166-.233 1.865.175l53.304 30.779c.384.222.757.536 1.107.933.385.443.723.967.968 1.527.291.653.431 1.306.431 1.889 0 .792-.28 1.387-.769 1.678l-19.587 11.31s-.035.011-.058.011ZM33.123 37.377l55.239 37.401 19.528-11.274c.42-.244.653-.77.653-1.469 0-.56-.14-1.177-.42-1.795a5.818 5.818 0 0 0-.933-1.47 4.078 4.078 0 0 0-1.049-.885L52.838 27.106c-.63-.362-1.201-.42-1.633-.175L33.123 37.377Z" fill="#252211"/><path d="M89.504 72.4s-.081-.023-.105-.058c-.035-.058-.011-.128.047-.163l19.015-10.983s.128-.011.163.047c.035.058.012.128-.046.163L89.562 72.39s-.034.011-.058.011ZM88.385 69.928s-.082-.024-.105-.059c-.035-.058-.012-.128.047-.163l19.015-10.982s.128-.012.163.046c.035.058.012.128-.046.163L88.443 69.916s-.035.012-.058.012ZM85.785 68.146s-.081-.023-.105-.058c-.035-.058-.011-.128.047-.163l19.015-10.983s.129-.011.164.047c.035.058.011.128-.047.163L85.844 68.135s-.035.011-.059.011ZM82.801 66.42s-.082-.024-.105-.058c-.035-.059-.011-.129.047-.164l19.015-10.982s.128-.012.163.046c.035.059.012.129-.046.164L82.859 66.408s-.035.012-.058.012ZM79.828 64.705s-.081-.023-.105-.058c-.034-.059-.011-.129.047-.164l19.015-10.982s.129-.012.164.047c.035.058.011.128-.047.163L79.887 64.693s-.035.012-.059.012ZM76.844 62.982s-.082-.023-.105-.058c-.035-.058-.012-.128.047-.163L95.8 51.778s.128-.011.163.047c.035.058.012.128-.046.163L76.902 62.971s-.035.011-.058.011ZM73.871 61.267s-.081-.023-.105-.058c-.035-.058-.011-.128.047-.163l19.015-10.983s.129-.011.164.047c.034.058.011.128-.047.163L73.93 61.256s-.035.011-.059.011ZM70.885 59.54s-.082-.023-.105-.057c-.035-.059-.012-.129.047-.164l19.015-10.982s.128-.012.163.046c.035.059.012.129-.046.164L70.943 59.529s-.035.012-.058.012ZM67.912 57.826s-.081-.023-.105-.058c-.035-.059-.011-.129.047-.163L86.87 46.621s.129-.012.164.047c.035.058.011.128-.047.163L67.97 57.814s-.035.012-.059.012ZM64.928 56.1s-.082-.024-.105-.059c-.035-.058-.012-.128.047-.163l19.015-10.983s.128-.011.163.047c.035.058.012.128-.046.163L64.986 56.088s-.035.011-.058.011ZM61.955 54.389s-.081-.024-.105-.059c-.035-.058-.011-.128.047-.163l19.015-10.983s.129-.011.163.047c.035.058.012.128-.046.163L62.014 54.377s-.035.011-.059.011ZM58.971 52.662s-.082-.023-.105-.058c-.035-.059-.012-.129.047-.164l19.015-10.982s.128-.012.163.047c.035.058.012.128-.046.163L59.029 52.65s-.035.012-.058.012ZM55.987 50.935s-.082-.023-.105-.058c-.035-.058-.012-.128.046-.163L74.944 39.73s.128-.011.163.047c.035.058.011.128-.047.163L56.045 50.924s-.035.011-.058.011ZM53.014 49.224s-.082-.023-.105-.058c-.035-.058-.012-.128.047-.163L71.97 38.02s.128-.011.163.047c.035.058.012.128-.046.163L53.072 49.213s-.035.011-.058.011ZM50.028 47.498s-.082-.023-.105-.058c-.035-.059-.012-.129.046-.164l19.016-10.982s.128-.012.163.047c.035.058.011.128-.047.163L50.086 47.486s-.035.012-.058.012ZM47.055 45.783s-.082-.023-.105-.058c-.035-.059-.012-.129.047-.163l19.015-10.983s.128-.012.163.047c.035.058.012.128-.046.163L47.113 45.77s-.035.012-.058.012ZM44.07 44.06s-.081-.023-.104-.058c-.035-.058-.012-.128.046-.163l19.016-10.983s.128-.011.163.047c.035.058.011.128-.047.163L44.13 44.05s-.035.011-.058.011ZM41.098 42.346s-.082-.024-.105-.059c-.035-.058-.012-.128.047-.163l19.015-10.982s.128-.012.163.046c.035.059.012.129-.047.163L41.157 42.334s-.035.011-.058.011ZM38.114 40.619s-.082-.023-.105-.058c-.035-.059-.012-.129.046-.163l19.016-10.983s.128-.012.163.047c.035.058.011.128-.047.163L38.172 40.607s-.035.012-.058.012ZM35.14 38.904s-.08-.023-.104-.058c-.035-.058-.012-.128.047-.163L54.098 27.7s.128-.011.163.047c.035.058.012.128-.047.163L35.2 38.892s-.035.012-.058.012Z" fill="#252211"/><path d="m77.46 48.512-14.036 8.102 12.195 7.042h8.93l-7.088-15.144Z" fill="#252211"/><path d="m97.667 45.574-.023 10.458-13.093 7.625.035-10.458 13.08-7.625Z" fill="#E6BC86"/><path d="m84.587 53.199-.035 10.458-11.962-6.902.035-10.458 11.962 6.902Z" fill="#BC874D"/><path d="m97.668 45.574-13.081 7.625-11.962-6.902 13.081-7.637 11.962 6.914Z" fill="#FFE2AD"/><path opacity=".7" d="m90.67 41.516-13.162 7.601v2.437l1.387.804v-2.46l13.151-7.601-1.376-.781Z" fill="#D6916B"/><path d="M77.508 49.117v2.437l1.387.804v-2.46l-1.387-.78ZM95.73 47.64c-.058.128-.174.233-.28.233-.104 0-.127-.105-.07-.234.06-.128.176-.233.28-.233.106 0 .129.105.07.233ZM96.453 47.218c-.058.128-.175.233-.28.233-.105 0-.128-.105-.07-.233.059-.129.175-.234.28-.234.105 0 .129.105.07.233ZM97.176 46.8c-.058.128-.175.233-.28.233-.105 0-.128-.105-.07-.233.058-.129.175-.234.28-.234.105 0 .128.105.07.234ZM82.895 59.74l1.107.641v.07l-1.107-.64v-.07Zm0 .525 1.107.641v-.07l-1.107-.641v.07Zm0 .221 1.107.642v-.07l-1.107-.642v.07Zm0 .222 1.107.641v-.07l-1.107-.641v.07Zm0 .385 1.107.64v.07l-1.107-.64v-.07Zm0 .291 1.107.641v-.07l-1.107-.64v.07Zm0 .222 1.107.64v-.07l-1.107-.64v.07Zm0 .221 1.107.641v-.07l-1.107-.64v.07Zm0 .222 1.107.64v-.07l-1.107-.64v.07Zm-.571-2.659.291.175v.07l-.291-.175v-.07Zm0 .525.291.175v-.07l-.291-.175v.07Zm0 .222.291.175v-.07l-.291-.175v.07Zm0 .221.291.175v-.07l-.291-.175v.07Zm0 .385.291.175v.07l-.291-.175v-.07Zm0 .291.291.175v-.07l-.291-.175v.07Zm0 .222.291.175v-.07l-.291-.175v.07Zm0 .221.291.175v-.07l-.291-.175v.07Zm0 .222.291.175v-.07l-.291-.175v.07Zm-9.222-7.648.14.081v.07l-.14-.081v-.07Zm0 .524.14.082v-.07l-.14-.082v.07Zm0 .222.14.082v-.07l-.14-.082v.07Zm0 .221.14.082v-.07l-.14-.081v.07Zm0 .385.14.082v.07l-.14-.082v-.07Zm0 .292.14.081v-.07l-.14-.081v.07Zm0 .221.14.082v-.07l-.14-.082v.07Zm0 .222.14.081v-.07l-.14-.081v.07Zm0 .221.14.082v-.07l-.14-.082v.07Z" fill="#A0613D"/><path d="m50.472 62.48-.677-.595c-.035-.163-.081-.314-.128-.478l1.061-.606.152-.56-1.003.572.07-.105-.56-.968-.606.058s-.046-.058-.07-.081l.28-.163.35-.339-.7.409a4.609 4.609 0 0 0-.338-.339l-.186-.886-.793-.454-.805.466-.466-.583-1.865 1.073.478.594-1.574.898.676.187 1.865-1.073.315-.198.292.163.186.886c.163.152.338.327.478.513l.606-.058.56.967-.35.502c.094.221.152.454.199.676l.676.595v.35l-.676.384-1.505.874-.186.688 1.562-.897.268.687-.56.327 1.377-.793.128.163-1.574.898.676.175 1.865-1.073.315-.198.292.163.186.886c.163.152.338.327.478.502l.606-.059.56.968-.35.501a3.7 3.7 0 0 1 .198.677l.677.594v.35l-.677.385-1.504.874-.186.676 1.562-.897.268.687-.56.327 1.866-1.073.56-.326-.28-.711.804-.455v-.921l-.676-.595a4.935 4.935 0 0 0-.198-.676l.35-.501-.56-.968-.606.058a4.908 4.908 0 0 0-.478-.5l-.187-.887-.792-.455-.805.467-.466-.583-.665.385-.07-.187.805-.455v-.92l.035.01Z" fill="#FCBE44"/><path d="M51.87 71.933s-.081-.024-.105-.059c-.035-.058-.011-.128.047-.163l.478-.28-.187-.466-1.445.828s-.094.023-.129 0a.13.13 0 0 1-.046-.129l.186-.676s.024-.058.059-.07l1.468-.84.653-.395v-.234l-.64-.56s-.036-.034-.036-.058a4.214 4.214 0 0 0-.198-.653.156.156 0 0 1 .012-.104l.314-.444-.49-.839-.535.047s-.082-.012-.105-.047a3.718 3.718 0 0 0-.467-.49.064.064 0 0 1-.035-.058l-.175-.84-.186-.104-.222.128-1.9 1.108c-.023.011-.058.023-.093 0l-.677-.175s-.081-.047-.081-.094c0-.046.011-.093.058-.116l.093-.058s-.058-.024-.081-.059c-.035-.058-.012-.128.047-.163l.477-.28-.186-.466-1.446.828s-.093.023-.128 0a.13.13 0 0 1-.047-.129l.187-.687s.023-.059.058-.07l1.458-.84.652-.396v-.233l-.64-.56s-.036-.035-.036-.058a4.217 4.217 0 0 0-.198-.653.156.156 0 0 1 .012-.105l.314-.443-.49-.84-.535.047s-.082-.012-.105-.047a3.689 3.689 0 0 0-.467-.49.064.064 0 0 1-.035-.057l-.175-.84-.186-.105-.222.128-1.9 1.12c-.023.011-.058.023-.093 0l-.676-.187s-.082-.046-.082-.093.012-.093.058-.117l1.446-.828-.396-.49s-.035-.057-.024-.093c0-.034.024-.058.058-.081l1.866-1.073s.116-.011.151.024l.408.501.723-.408s.082-.023.117 0l.793.455s.046.046.058.081l.175.851c.081.07.163.152.245.257l.618-.362s.116-.011.151.035c.035.047.035.117-.011.152l-.374.35.339-.035s.093.023.116.058l.536.921.805-.455s.093-.023.128 0c.035.024.058.082.047.117l-.152.56s-.023.058-.058.07l-.98.56c.047.127.07.244.105.36l.642.572s.035.058.035.093v.921s-.024.082-.059.105l-.093.058.07.035.408.502.723-.408s.081-.024.117 0l.792.454s.047.047.059.082l.175.85c.151.14.29.28.42.444l.547-.047s.093.024.117.059l.56.967s.023.094 0 .129l-.315.443c.07.198.128.396.174.594l.653.571s.035.059.035.082v.921s-.023.082-.058.105l-.711.408.245.618s0 .117-.047.14l-.56.326-1.865 1.073s-.035.012-.058.012h-.047Zm-.99-.84-.094.362 1.317-.758s.059-.024.093 0c.035 0 .059.035.07.07l.222.571 1.667-.956-.245-.618s0-.117.047-.14l.746-.431v-.805l-.641-.56s-.035-.034-.035-.058a4.223 4.223 0 0 0-.198-.652.156.156 0 0 1 .011-.105l.315-.443-.49-.84-.536.047s-.081-.012-.105-.047a3.724 3.724 0 0 0-.466-.49.064.064 0 0 1-.035-.058l-.175-.84-.688-.396-.746.432s-.117.011-.151-.023l-.408-.502-.583.338s-.07.023-.094 0c-.035 0-.058-.035-.07-.07l-.07-.186s0-.117.047-.14l.746-.431v-.805l-.641-.56s-.035-.035-.035-.058c-.035-.14-.07-.291-.128-.466-.024-.047 0-.105.046-.14l1.026-.583.059-.245-.758.431s-.105.024-.14-.023c-.035-.035-.035-.105 0-.14.035-.046-.455-.886-.455-.886l-.536.047s-.082-.012-.105-.047l-.07-.081s-.058-.07-.07-.082c-.117-.128-.221-.245-.326-.326a.064.064 0 0 1-.035-.059l-.175-.84-.688-.396-.746.432s-.117.011-.152-.023l-.408-.502-1.667.956.396.49s.035.058.024.093c0 .035-.024.058-.059.082l-1.329.758.362.093 1.76-1.015.373-.233a.106.106 0 0 1 .117 0l.291.164s.047.046.059.081l.175.851c.151.14.29.292.42.443l.547-.058s.093.023.117.058l.56.968s.023.093 0 .128l-.315.455c.07.198.128.396.174.594l.653.572s.035.058.035.093v.35s-.023.081-.058.105l-.641.361s-.023.035-.047.047l-1.446.828-.093.36 1.318-.757s.058-.023.093 0c.035 0 .058.035.07.07l.221.571.7-.396s.116-.012.151.023l.129.163s.035.059.023.094c0 .035-.023.058-.058.081l-1.33.758.362.093 1.772-1.014.373-.233a.106.106 0 0 1 .117 0l.291.163s.047.047.059.082l.175.85c.151.14.29.292.43.444l.549-.047s.093.024.116.058l.56.968s.023.094 0 .129l-.315.442c.07.199.129.397.175.595l.653.571s.035.059.035.082v.35s-.023.081-.058.105l-.653.373-1.48.874v-.035Z" fill="#FCBE44"/><path d="m44.21 55.61.456-.139 1.865-1.073-.455.14-1.865 1.073ZM43.99 53.432l.548.151 1.877-1.072-.56-.152-1.865 1.073Z" fill="#252211"/><path d="m44.455 51.73.571.409 1.865-1.073.315-.21.222.466c.198.047.396.117.594.21l.56-.326.257.151.151.735c.198.14.385.291.571.455l.432-.245.548.571-.07.618c.175.221.35.443.501.688l.501-.047.478.828-.291.408c.117.245.233.501.326.746l.572.233.233.77-.432.245c.059.256.094.512.117.757l.56.49v.315l-.56.315a3.16 3.16 0 0 1-.117.594l.303.443-.676.385-1.515.886.081.711 1.283-.734.105.268-.478.28 1.865-1.073.478-.28-.117-.303.735-.42.256-.583-.454-.664s.011-.058.023-.082l.653-.373v-.78l-.56-.49a5.865 5.865 0 0 0-.105-.653l.444-.257-.269-.874-.57-.233c-.094-.257-.21-.502-.327-.747l.291-.408-.478-.827-.408.035h-.093c-.163-.234-.327-.467-.502-.688l.07-.618-.63-.653-.442.256a7.493 7.493 0 0 0-.478-.373l-.152-.734-.676-.385-.664.385s-.059-.024-.082-.024l-.35-.722-.63-.059-.722.408-.187-.233-1.865 1.073.198.256-1.306.746.047.035Z" fill="#FCBE44"/><path d="M50.577 62.409c-.093-.035-.116-.07-.116-.105l-.082-.712s.024-.093.058-.116l1.458-.84s.035-.046.058-.058l.571-.326-.233-.338s-.023-.059-.011-.094c.046-.186.081-.373.104-.583 0-.035.024-.07.059-.093l.501-.28v-.198l-.513-.454s-.035-.047-.035-.07a8.261 8.261 0 0 0-.117-.747c0-.046.012-.105.059-.128l.35-.198-.187-.63-.513-.21s-.047-.035-.058-.07a7.258 7.258 0 0 0-.327-.734c-.023-.035-.011-.081 0-.116l.245-.35-.408-.7-.431.035s-.082-.011-.105-.046a11.143 11.143 0 0 0-.502-.677c-.023-.023-.035-.058-.023-.081l.07-.572-.443-.466-.35.198s-.093.024-.14-.011a9.544 9.544 0 0 0-.56-.455c-.023-.012-.034-.047-.046-.07l-.14-.676-.151-.093-.502.291s-.07.023-.105 0a3.44 3.44 0 0 0-.583-.198c-.035 0-.058-.035-.081-.059l-.175-.35-.163.094s-.023.035-.035.047l-1.866 1.072s-.093.024-.128 0l-.571-.42s-.047-.058-.047-.104c0-.035.024-.07.059-.094l1.189-.676-.117-.151s-.035-.059-.023-.094c0-.035.023-.058.058-.081l1.865-1.073s.117-.011.152.023l.117.152.63-.361s.046-.024.07-.012l.629.058s.081.023.093.07l.326.676.607-.35s.081-.023.116 0l.676.385s.047.047.059.082l.14.688c.128.093.256.186.385.303l.373-.21s.104-.023.14.023l.629.653s.035.059.035.094l-.07.57c.163.199.303.397.443.595l.431-.046s.094.023.117.058l.478.828s.023.093 0 .128l-.245.35c.105.21.198.431.28.653l.525.221s.058.035.07.07l.256.875s0 .105-.058.14l-.362.21c.035.186.059.372.082.536l.525.466s.035.058.035.082v.78s-.024.082-.059.106l-.594.338.42.606s.023.082 0 .117l-.257.583s-.023.046-.047.058l-.653.373.082.21s0 .116-.047.14l-.478.28-1.865 1.072s-.128.012-.163-.047c-.035-.058-.012-.128.046-.163l.397-.233-1.178.618c-.023 0-.035.012-.058.012h-.047Zm.047-.758.047.454 1.119-.64s.058-.024.093 0c.035 0 .058.034.07.07l.058.15 1.667-.955-.081-.21s0-.117.047-.14l.7-.408.22-.49-.42-.606s-.022-.058-.01-.093c0-.023 0-.047.01-.059 0-.034.036-.07.06-.093l.594-.338v-.664l-.513-.455s-.035-.047-.035-.07a7.552 7.552 0 0 0-.105-.653c0-.047.012-.105.058-.128l.362-.21-.222-.735-.513-.21s-.047-.034-.07-.07a5.876 5.876 0 0 0-.326-.734c-.024-.035-.012-.081 0-.116l.245-.35-.409-.7-.43.035s-.083-.011-.106-.046a8.427 8.427 0 0 0-.501-.677c-.023-.023-.035-.058-.023-.081l.07-.56-.525-.548-.361.21s-.094.023-.14-.012a5.912 5.912 0 0 0-.467-.373c-.023-.011-.046-.046-.046-.07l-.14-.676-.572-.326-.606.35s-.058.023-.093 0l-.082-.024s-.058-.035-.07-.058l-.326-.665-.525-.046-.688.396s-.116.012-.151-.023l-.117-.152-1.667.956.117.152s.035.058.023.093c0 .035-.023.058-.058.082l-1.143.653.361.268 1.75-1.003s.023-.035.034-.047l.338-.198s.059-.023.094 0c.035 0 .058.035.07.059l.198.42c.175.046.338.104.513.174l.513-.291s.081-.024.116 0l.257.151s.047.047.058.082l.14.688c.163.116.326.245.478.384l.35-.21s.105-.023.14.024l.548.571s.035.059.035.093l-.07.572c.163.198.303.396.443.594l.431-.046c.058 0 .093.023.117.058l.478.828s.023.093 0 .128l-.245.35c.093.21.186.42.28.653l.524.221s.059.035.07.07l.233.77s0 .104-.058.14l-.35.198c.047.221.082.431.105.64l.525.456s.035.058.035.093v.315s-.023.081-.058.105l-.502.291c-.023.175-.046.35-.093.501l.28.397s.023.058.023.093c0 .035-.023.058-.058.07l-.665.385-.046.046-1.411.805v-.035Z" fill="#FCBE44"/><path d="m48.595 63.55-.677-.594a4.934 4.934 0 0 0-.198-.677l.35-.5-.56-.969-.606.059a5.07 5.07 0 0 0-.478-.513l-.186-.886-.793-.455-.187.676a1.452 1.452 0 0 0-.49-.047l-.606-.757-.56.326.35.91c-.081.128-.151.28-.198.443l-.676-.187v.921l.676.595c.047.221.117.454.199.676l-.35.501.56.968.606-.058c.151.186.314.35.49.513l.186.886.793.454.186-.688c.163.047.338.059.478.047l.606.758.56-.327-.35-.909c.093-.128.152-.268.198-.443l.677.187v-.921.011Z" fill="#252211"/><path d="M47.51 66.082s-.07-.012-.094-.047l-.57-.711c-.106 0-.222 0-.339-.024l-.151.572s-.035.058-.07.081c-.035.012-.07 0-.105 0l-.793-.454s-.047-.047-.058-.082l-.175-.851c-.14-.14-.292-.28-.432-.443l-.548.058s-.093-.023-.116-.058l-.56-.98s-.023-.093 0-.128l.315-.454a5.757 5.757 0 0 1-.175-.595l-.653-.571s-.035-.059-.035-.094v-.92s.012-.07.047-.094c.023-.023.07-.023.105-.023l.571.151c.035-.116.093-.221.152-.314l-.327-.852s0-.116.047-.14l.56-.326s.116-.023.15.023l.572.712c.117 0 .233 0 .35.023l.152-.571s.035-.059.07-.082c.035-.012.07 0 .104 0l.793.455s.047.046.059.081l.174.852c.152.14.292.291.42.442l.548-.058s.093.024.117.059l.56.967s.023.093 0 .128l-.316.455c.07.198.129.397.175.595l.653.571s.035.058.035.093v.921s-.011.07-.046.094c-.035.023-.07.023-.105.023l-.572-.152a1.314 1.314 0 0 1-.151.315l.326.851s0 .117-.046.14l-.56.326s-.035.012-.058.012v.023Zm-.606-.991s.07.011.093.046l.548.676.384-.221-.314-.816s0-.082.011-.105c.082-.117.14-.257.187-.408a.127.127 0 0 1 .14-.082l.524.14v-.723l-.64-.56s-.036-.034-.036-.058a4.228 4.228 0 0 0-.198-.653.156.156 0 0 1 .012-.105l.314-.443-.49-.839-.535.047s-.082-.012-.106-.047a3.68 3.68 0 0 0-.466-.49.064.064 0 0 1-.035-.058l-.175-.84-.618-.35-.14.537c-.011.059-.081.105-.14.082-.163-.035-.302-.058-.442-.035-.035 0-.082-.012-.105-.047l-.548-.676-.385.233.315.816s0 .07-.012.105c-.081.117-.14.257-.186.408a.127.127 0 0 1-.14.082l-.537-.14v.723l.642.56s.035.034.035.07c.046.21.105.43.198.652a.156.156 0 0 1-.012.105l-.303.443.49.84.536-.047s.081.012.105.047c.151.186.315.35.466.49a.064.064 0 0 1 .035.058l.175.839.618.35.14-.537c.012-.058.082-.093.14-.081.151.035.315.047.443.047l.011-.035Z" fill="#FCBE44"/><path d="m48.535 64.742-.56.327.35.897c-.081.129-.151.28-.198.443l-.676-.175v.922l.676.594c.047.222.117.443.199.676l-.35.502.56.967.606-.058c.151.187.314.361.49.513l.186.886.793.455.186-.677c.163.047.338.059.478.047l.607.758.56-.326-.35-.91c.08-.128.15-.268.197-.443l.677.175v-.921l-.677-.595a4.934 4.934 0 0 0-.198-.676l.35-.501-.56-.968-.606.059a4.918 4.918 0 0 0-.478-.502l-.186-.886-.793-.455-.187.688c-.175-.046-.338-.058-.49-.046l-.606-.758v-.012Z" fill="#252211"/><path d="M51.871 71.933s-.07-.012-.093-.047l-.572-.71c-.105 0-.221 0-.35-.024l-.15.571s-.036.058-.07.082a.161.161 0 0 1-.106 0l-.793-.455s-.046-.046-.058-.081l-.175-.852a3.228 3.228 0 0 1-.431-.454l-.548.058s-.093-.023-.117-.058l-.56-.968s-.023-.093 0-.128l.316-.455a5.757 5.757 0 0 1-.175-.595l-.653-.57s-.035-.059-.035-.082v-.921s.011-.07.046-.094a.112.112 0 0 1 .105-.023l.572.152c.035-.117.093-.222.151-.315l-.326-.851s0-.117.046-.14l.56-.327s.117-.011.151.024l.572.71c.116 0 .233 0 .35.024l.151-.571s.035-.058.07-.082c.035-.011.07 0 .105 0l.793.455s.046.047.058.082l.175.85c.152.14.291.292.431.444l.548-.047s.094.023.117.058l.56.968s.023.093 0 .128l-.315.443c.07.198.128.397.175.595l.652.571s.035.058.035.082v.92s-.011.07-.046.094c-.035.023-.07.035-.105.023l-.571-.151a1.31 1.31 0 0 1-.152.315l.326.85s0 .117-.046.14l-.56.327s-.035.012-.058.012v.023Zm-.606-.99s.07.01.093.046l.548.676.385-.233-.315-.816s0-.082.012-.105c.081-.117.14-.245.186-.408a.127.127 0 0 1 .14-.082l.536.14v-.711l-.64-.56s-.036-.035-.036-.058a4.21 4.21 0 0 0-.198-.653.156.156 0 0 1 .012-.105l.314-.443-.49-.84-.536.047s-.081-.011-.105-.046a3.725 3.725 0 0 0-.466-.49.064.064 0 0 1-.035-.058l-.175-.84-.618-.35-.14.537c-.011.058-.081.105-.14.081a1.974 1.974 0 0 0-.443-.046.106.106 0 0 1-.093-.047l-.536-.676-.385.233.315.805v.104a1.39 1.39 0 0 0-.187.42.127.127 0 0 1-.14.082l-.536-.14v.711l.642.56s.034.035.034.058c.047.21.117.431.199.653a.156.156 0 0 1-.012.105l-.303.443.49.84.536-.06s.081.013.105.047c.151.187.303.35.466.502a.064.064 0 0 1 .035.058l.175.84.618.35.14-.537c.011-.058.07-.093.14-.082.163.035.315.059.443.035h.011l-.046.012Z" fill="#FCBE44"/><path d="m45.552 50.737-.478.28.292.746a2.248 2.248 0 0 0-.338.397l-.572-.408-.256.583.455.664a4.475 4.475 0 0 0-.117.595l-.56-.152v.781l.56.49c.023.256.058.501.117.758l-.455.14.268.874.571.233c.094.257.21.502.327.746l-.292.42.478.828.502-.047c.163.233.326.467.513.688l-.07.618.63.665.35-.339c.186.164.372.327.57.467l.152.723.676.384.152-.56c.21.082.408.152.594.199l.35.735.63.058-.082-.711c.163-.012.327-.047.478-.094l.501.618.478-.28-.291-.746c.128-.116.233-.245.338-.385l.571.409.257-.583-.455-.665a4.49 4.49 0 0 0 .117-.594l.56.151v-.781l-.56-.49a7.934 7.934 0 0 0-.117-.758l.455-.151-.268-.875-.572-.233a8.479 8.479 0 0 0-.326-.746l.291-.408-.478-.828-.501.047a14.83 14.83 0 0 0-.501-.688l.07-.618-.63-.653-.35.327a6.968 6.968 0 0 0-.57-.455l-.152-.734-.677-.385-.151.56c-.21-.094-.408-.152-.595-.21l-.35-.723-.63-.059.082.7a1.842 1.842 0 0 0-.49.105l-.5-.618v-.012Z" fill="#252211"/><path d="m50.577 62.407-.63-.058c-.047 0-.082-.024-.093-.07l-.327-.688a3.83 3.83 0 0 1-.443-.14l-.116.431s-.035.059-.07.082a.161.161 0 0 1-.105 0l-.676-.385s-.047-.046-.059-.081l-.14-.688a7.261 7.261 0 0 1-.466-.373l-.268.256s-.047.035-.082.035a.106.106 0 0 1-.081-.035l-.63-.653s-.035-.058-.035-.093l.07-.571c-.151-.187-.291-.385-.443-.595l-.431.047s-.093-.024-.117-.059l-.478-.827s-.023-.093 0-.129l.245-.36c-.093-.21-.198-.42-.28-.642l-.524-.222s-.059-.035-.07-.07l-.257-.874a.104.104 0 0 1 .082-.14l.35-.117c-.047-.21-.07-.42-.094-.629l-.524-.466s-.035-.059-.035-.094v-.78s.011-.07.046-.094a.112.112 0 0 1 .105-.023l.431.116c.024-.151.047-.291.082-.431l-.431-.618s-.023-.082 0-.117l.256-.583s.047-.058.082-.07c.035 0 .07 0 .093.024l.478.35c.07-.094.152-.187.233-.257l-.256-.665s0-.116.047-.14l.477-.28s.117-.023.152.024l.443.56c.105-.035.21-.047.315-.07l-.07-.583s0-.07.035-.093a.132.132 0 0 1 .093-.035l.63.058s.081.023.093.07l.326.676c.152.035.292.093.444.152l.116-.432s.035-.058.07-.081c.035-.012.07 0 .105 0l.676.384s.047.047.058.082l.14.688c.163.116.315.233.467.361l.268-.256s.116-.047.163 0l.63.653s.035.058.035.093l-.07.571c.163.198.303.397.443.595l.431-.047c.058 0 .093.024.117.058l.478.828s.023.093 0 .128l-.245.35c.093.21.186.42.28.653l.524.222s.059.035.07.07l.268.874a.103.103 0 0 1-.081.14l-.362.116c.047.21.07.42.094.63l.524.455s.035.058.035.093v.781s-.012.07-.046.093c-.035.024-.07.035-.105.024l-.432-.117a4.735 4.735 0 0 1-.081.431l.431.618s.023.082 0 .117l-.256.583s-.047.058-.082.07c-.035 0-.07 0-.093-.024l-.478-.338c-.07.094-.152.187-.233.257l.256.676s0 .117-.047.14l-.478.28s-.116.011-.151-.024l-.455-.56c-.105.036-.21.047-.315.07l.07.596s0 .07-.035.093a.106.106 0 0 1-.081.035v-.012Zm-.548-.28.42.035-.059-.571s0-.058.023-.082a.188.188 0 0 1 .082-.046c.163-.012.315-.047.455-.094a.132.132 0 0 1 .128.035l.443.548.303-.174-.256-.653s0-.094.035-.129c.116-.105.221-.221.326-.373.023-.023.047-.046.082-.046s.058 0 .093.023l.455.326.175-.384-.42-.607s-.023-.058-.012-.093a4.32 4.32 0 0 0 .105-.583c0-.035.023-.07.047-.081.023-.024.07-.024.093-.012l.408.105v-.583l-.513-.455s-.035-.046-.035-.07a8.305 8.305 0 0 0-.116-.746.127.127 0 0 1 .081-.14l.35-.116-.21-.712-.513-.21s-.047-.034-.058-.07a7.258 7.258 0 0 0-.327-.734c-.023-.035-.011-.082 0-.116l.245-.35-.408-.7-.431.035s-.082-.011-.105-.046a11.167 11.167 0 0 0-.502-.677c-.023-.023-.034-.058-.023-.081l.07-.571-.513-.537-.256.257s-.117.046-.164 0a9.616 9.616 0 0 0-.56-.455c-.023-.012-.034-.047-.046-.07l-.14-.676-.501-.292-.105.42s-.035.058-.058.07c-.035.012-.07.012-.094 0a3.43 3.43 0 0 0-.583-.198c-.034 0-.058-.035-.081-.058l-.327-.665-.42-.035.059.56s0 .058-.023.081a.187.187 0 0 1-.082.047 1.854 1.854 0 0 0-.455.093.132.132 0 0 1-.128-.035l-.431-.548-.303.175.256.653s0 .093-.035.128a1.662 1.662 0 0 0-.315.373c-.023.024-.046.047-.081.047s-.058 0-.093-.023l-.455-.327-.175.385.42.618s.023.058.011.093a4.01 4.01 0 0 0-.105.583c0 .035-.023.07-.046.082-.024.023-.07.023-.093.011l-.409-.105v.583l.525.455s.035.047.035.082c.023.233.058.49.117.746a.127.127 0 0 1-.082.14l-.338.105.21.71.513.21s.046.036.058.07c.105.257.21.502.326.735.024.035.012.082 0 .117l-.244.35.408.699.42-.047s.081.012.104.047c.164.245.327.466.502.676.023.023.035.059.023.082l-.07.56.513.536.268-.257s.117-.046.163 0c.175.163.362.315.56.455.023.012.047.047.047.07l.14.676.5.291.106-.407s.035-.059.058-.07a.128.128 0 0 1 .093 0c.198.081.385.151.583.198.035 0 .059.035.082.058l.326.676h-.046Z" fill="#FCBE44"/><path d="M49.202 56.895c0-.583-.408-1.283-.91-1.574-.501-.292-.91-.058-.91.524 0 .583.409 1.283.91 1.574.502.292.91.059.91-.524ZM46.379 62.758c0-.385-.268-.84-.595-1.026-.326-.186-.594-.035-.594.338s.268.84.594 1.026c.327.187.595.035.595-.338ZM50.693 68.567c0-.385-.268-.84-.594-1.026-.327-.187-.595-.035-.595.338s.268.84.595 1.026c.326.186.594.035.594-.338Z" fill="#fff"/><path d="m59.308 64.378-1.574.898.677.175 1.865-1.073.315-.198.291.163.175.886c.175.152.338.326.49.513l.606-.058.56.967-.35.502c.081.221.151.454.198.676l.676.595v.35l-.676.384-1.504.874-.175.688 1.563-.897.268.688-.56.326 1.865-1.073.56-.326-.28-.711.805-.467v-.92l-.677-.595a5.449 5.449 0 0 0-.198-.677l.35-.5-.56-.968-.606.058a4.093 4.093 0 0 0-.49-.513l-.174-.886-.793-.455-.805.466-.466-.583-1.865 1.073.478.606.011.012Z" fill="#FCBE44"/><path d="M62.166 70.978s-.081-.023-.105-.058c-.035-.058-.011-.128.047-.163l.478-.28-.175-.466-1.446.827s-.093.024-.128 0c-.035-.023-.058-.081-.047-.116l.175-.688s.024-.058.059-.07l1.469-.84.652-.396v-.233l-.64-.571s-.036-.035-.036-.059a3.778 3.778 0 0 0-.198-.652c-.012-.035 0-.07.012-.105l.303-.444-.49-.839-.524.058s-.082-.011-.105-.046a3.821 3.821 0 0 0-.467-.502c-.023-.011-.035-.034-.035-.07l-.163-.839-.187-.105-.221.128-1.9 1.108c-.024.012-.059.023-.094 0l-.676-.175s-.081-.047-.081-.093c0-.047.011-.093.058-.117l1.446-.828-.397-.49s-.035-.057-.023-.093c0-.034.023-.058.058-.081l1.866-1.073s.116-.011.151.024l.408.501.723-.408s.082-.023.117 0l.792.455s.047.046.059.081l.174.851c.152.14.292.292.432.455l.548-.058s.093.023.116.058l.56.968s.023.081 0 .128l-.315.455c.07.198.129.396.175.594l.653.572s.035.058.035.093v.92s-.023.082-.058.106l-.712.408.245.618s0 .116-.046.14l-.56.326-1.865 1.073s-.035.011-.059.011h-.058Zm-.99-.84-.094.374 1.329-.758s.07-.023.093 0c.035 0 .059.035.07.07l.222.56 1.667-.956-.245-.618s0-.117.047-.14l.746-.431v-.805l-.641-.56s-.035-.035-.035-.058a3.764 3.764 0 0 0-.199-.653c-.011-.035 0-.07.012-.105l.303-.443-.49-.84-.536.06s-.081-.012-.105-.047a4.741 4.741 0 0 0-.466-.502.064.064 0 0 1-.035-.058l-.163-.84-.688-.396-.746.431s-.117.012-.152-.023l-.408-.501-1.667.956.396.49s.035.058.024.093c0 .035-.024.058-.059.081l-1.317.758.35.093 1.783-1.014.374-.221a.106.106 0 0 1 .116 0l.292.163s.046.046.058.081l.175.852c.151.14.291.291.431.454l.548-.058s.093.023.117.058l.56.968s.023.081 0 .128l-.315.455c.07.198.128.396.174.594l.653.572s.035.058.035.081v.35s-.023.082-.058.105l-.653.373-1.492.874-.012-.046Z" fill="#FCBE44"/><path d="m59.437 64.543-.607-.758-.56.327.35.909a1.282 1.282 0 0 0-.198.443l-.676-.175v.921l.676.595c.047.221.117.454.199.676l-.35.501.56.968.606-.058c.151.186.314.35.49.513l.174.886.793.454.175-.688c.175.047.338.059.49.047l.606.758.56-.326-.35-.898c.081-.128.151-.28.198-.443l.676.175v-.921l-.676-.595a5.483 5.483 0 0 0-.198-.676l.35-.501-.56-.968-.606.058a4.101 4.101 0 0 0-.49-.513l-.175-.886-.793-.455-.175.677c-.175-.047-.338-.059-.49-.047Z" fill="#252211"/><path d="M62.166 70.98s-.07-.012-.093-.047l-.572-.71c-.128 0-.233 0-.35-.024L61 70.77s-.035.07-.07.082a.162.162 0 0 1-.105 0l-.793-.455s-.046-.047-.058-.082l-.175-.85a5.177 5.177 0 0 1-.431-.444l-.548.047s-.093-.023-.117-.058l-.56-.98s-.023-.093 0-.128l.315-.443a5.731 5.731 0 0 1-.174-.595l-.653-.57s-.035-.06-.035-.082v-.922s.011-.07.046-.093c.035-.023.07-.035.105-.023l.572.151a1.98 1.98 0 0 1 .151-.314l-.326-.851s0-.117.046-.14l.56-.327s.117-.011.151.024l.572.71c.116 0 .233 0 .35.024l.151-.571s.035-.059.07-.082c.035-.012.07 0 .105 0l.793.455s.046.046.058.082l.175.85c.152.14.291.292.431.455l.548-.058s.093.023.117.058l.56.968s.023.081 0 .128l-.315.455c.07.198.128.396.175.594l.652.572s.035.058.035.081v.921s-.011.07-.046.094c-.035.023-.07.035-.105.023l-.571-.152a1.314 1.314 0 0 1-.152.315l.326.851s0 .117-.046.14l-.56.327s-.035.011-.058.011v.012Zm-.606-.991s.07.012.093.047l.536.676.385-.233-.315-.805v-.105c.082-.116.14-.256.187-.408.011-.058.081-.105.14-.081l.536.14v-.712l-.641-.571s-.035-.035-.035-.058a3.766 3.766 0 0 0-.198-.653c-.012-.035 0-.07.011-.105l.303-.443-.49-.84-.524.059s-.082-.012-.105-.047a3.835 3.835 0 0 0-.466-.501c-.024-.012-.035-.035-.035-.07l-.163-.84-.618-.35-.14.537c-.012.058-.082.105-.14.082-.163-.035-.315-.059-.443-.035-.047 0-.082-.012-.105-.047l-.548-.676-.385.233.315.816s0 .082-.012.105a1.32 1.32 0 0 0-.186.408c-.012.058-.082.093-.14.082l-.537-.14v.71l.642.56s.035.035.035.059c.046.221.116.443.198.653a.156.156 0 0 1-.012.105l-.315.443.49.84.536-.048s.082.012.105.047c.152.187.303.35.478.49.024.011.035.035.035.07l.164.84.617.349.14-.536c.012-.059.082-.105.14-.082.152.035.303.058.443.047l.024-.012Z" fill="#FCBE44"/><path d="M60.976 67.586c0-.385-.268-.84-.594-1.026-.327-.186-.595-.035-.595.338 0 .385.268.84.595 1.026.326.187.594.035.594-.338Z" fill="#fff"/><path d="m58.89 33.543-13.081 7.625L57.77 48.07l13.081-7.625-11.961-6.902Z" fill="#252211"/><path d="m31.434 36.05-1.784 1.037c.595-.338 1.411-.292 2.309.221l1.784-1.037c-.898-.525-1.714-.572-2.309-.222Z" fill="#FFE04A"/><path d="m33.743 36.27-1.784 1.037 54.05 31.21 1.783-1.037-54.05-31.21Z" fill="#FFE04A"/><path d="M90.473 70.64a7.564 7.564 0 0 0-1.26-1.97 5.636 5.636 0 0 0-1.421-1.19l-1.784 1.038c.513.292.99.711 1.422 1.19a7.88 7.88 0 0 1 1.26 1.97c.36.804.559 1.655.559 2.436 0 1.026-.361 1.737-.944 2.075l1.783-1.037c.583-.338.945-1.05.945-2.075 0-.781-.21-1.633-.56-2.437Z" fill="#FFCE45"/><path d="m89.215 68.672-1.783 1.038a7.88 7.88 0 0 1 1.259 1.97l1.784-1.038a7.564 7.564 0 0 0-1.26-1.97Z" fill="#FFE04A"/><path d="m86.01 68.517-54.05-31.21c-1.796-1.038-3.241-.21-3.253 1.854 0 2.063 1.446 4.558 3.23 5.596l54.049 31.21c1.795 1.038 3.241.21 3.253-1.842.011-2.052-1.446-4.559-3.23-5.596v-.012Z" fill="#FFCE45"/><path d="M87.454 76.527c-.466 0-.979-.152-1.515-.467L31.878 44.85c-1.82-1.05-3.3-3.602-3.288-5.69 0-1.037.361-1.806 1.014-2.18.653-.373 1.516-.291 2.414.234l54.05 31.21c1.818 1.05 3.299 3.602 3.287 5.7 0 1.038-.362 1.808-1.003 2.181a1.819 1.819 0 0 1-.91.233l.013-.011ZM30.502 36.98c-.291 0-.56.07-.793.199-.571.326-.886 1.037-.898 1.982 0 2.017 1.423 4.477 3.172 5.49l54.05 31.211c.827.478 1.608.56 2.19.233.572-.326.887-1.026.887-1.982 0-2.017-1.422-4.477-3.171-5.491L31.9 37.412c-.49-.292-.968-.432-1.4-.432Z" fill="#FFCE45"/><path d="M84.305 71.41c0 .851.688 1.935 1.539 2.425.85.49 1.539.198 1.539-.653s-.688-1.935-1.54-2.425c-.85-.49-1.538-.198-1.538.653ZM30.488 40.34c0 .85.688 1.935 1.54 2.425.85.49 1.538.198 1.538-.653s-.688-1.936-1.539-2.425c-.85-.49-1.539-.198-1.539.653Z" fill="#252211"/><path d="M77.835 22.574 77.8 33.032l-13.081 7.637.023-10.47 13.093-7.625Z" fill="#E6BC86"/><path d="m64.743 30.199-.023 10.47-11.962-6.914.035-10.458 11.95 6.902Z" fill="#BC874D"/><path d="m77.836 22.574-13.093 7.625-11.95-6.902 13.081-7.625 11.962 6.902Z" fill="#FFE2AD"/><path opacity=".7" d="m70.838 18.516-13.162 7.601v2.448l1.375.805v-2.472l13.163-7.59-1.376-.792Z" fill="#D6916B"/><path d="M57.676 26.117v2.448l1.375.805v-2.472l-1.375-.78ZM75.899 24.636c-.059.128-.175.233-.28.233-.105 0-.129-.105-.07-.233.058-.129.175-.234.28-.234.105 0 .128.105.07.233ZM76.621 24.218c-.058.128-.175.233-.28.233-.104 0-.128-.105-.07-.233.059-.129.175-.234.28-.234.105 0 .129.105.07.233ZM77.344 23.796c-.058.128-.175.233-.28.233-.105 0-.128-.105-.07-.233.058-.129.175-.233.28-.233.105 0 .128.104.07.233ZM63.063 36.748l1.107.641v.07l-1.107-.641v-.07Zm0 .525 1.107.64v-.07l-1.107-.64v.07Zm0 .221 1.107.641v-.07l-1.107-.64v.07Zm0 .222 1.107.64v-.069l-1.107-.641v.07Zm0 .384 1.107.642v.07l-1.107-.642v-.07Zm0 .292 1.107.641v-.07l-1.107-.641v.07Zm0 .221 1.107.642v-.07l-1.107-.642v.07Zm0 .222 1.107.641v-.07l-1.107-.641v.07Zm0 .221 1.107.642v-.07l-1.107-.642v.07Zm-.572-2.658.292.175v.07l-.291-.175v-.07Zm0 .525.292.175v-.07l-.291-.175v.07Zm0 .221.292.175v-.07l-.291-.175v.07Zm0 .222.292.175v-.07l-.291-.175v.07Zm0 .385.292.175v.07l-.291-.175v-.07Zm0 .291.292.175v-.07l-.291-.175v.07Zm0 .222.292.174v-.07l-.291-.174v.07Zm0 .221.292.175v-.07l-.291-.175v.07Zm0 .222.292.175v-.07l-.291-.175v.07Zm-9.221-7.648.14.081v.07l-.14-.082v-.07Zm0 .524.14.082v-.07l-.14-.082v.07Zm0 .222.14.081v-.07l-.14-.081v.07Zm0 .221.14.082v-.07l-.14-.082v.07Zm0 .385.14.082v.07l-.14-.082v-.07Zm0 .291.14.082v-.07l-.14-.081v.07Zm0 .222.14.082v-.07l-.14-.082v.07Zm0 .221.14.082v-.07l-.14-.081v.07Zm0 .222.14.082v-.07l-.14-.082v.07Z" fill="#A0613D"/><path d="m61.712 34.465 2.052 1.19-.571-4.501-2.04-1.19.559 4.501ZM63.765 35.65l-.572-4.5.572-.337v4.838Z" fill="#252211"/><path d="m63.193 31.152-2.04-1.189.57-.326 2.04 1.177-.57.338ZM54.075 30.059l2.052 1.177-.571-4.5-2.04-1.177.56 4.5ZM56.128 31.233l-.571-4.5.57-.327v4.827Z" fill="#252211"/><path d="m55.556 26.734-2.04-1.177.57-.326 2.041 1.177-.571.326Z" fill="#252211"/><path d="m68.454 17.153-.874-.501L67.568 12l.875.513.011 4.64Z" fill="#D79404"/><path d="M68.442 12.513 67.567 12l-3.66-3.066.874.513 3.66 3.066Z" fill="#C48310"/><path d="m54.988 26.422-.875-.502v-6.389l.875.502v6.389Z" fill="#D79404"/><path d="m54.988 20.031-.875-.501 3.953-7.893.874.501-3.952 7.893Z" fill="#E8A212"/><path d="m58.94 12.14-.874-.502 6.11-3.533.874.513-6.11 3.521Z" fill="#FFE04A"/><path d="m65.05 8.617 3.987 3.311v5.561l-.583-.338-.012-4.64-3.66-3.066-5.562 3.206-3.637 7.287-.012 6.144-.583.338v-6.389l3.953-7.893 6.109-3.52Z" fill="#FFCE45"/><path d="M64.592 8.918v.641l7.03 4.046v-.63l-7.03-4.057Z" fill="#D79404"/><path d="M72.11 12.684v.64l-.489.28v-.629l.49-.291ZM66.515 15.95v.629l-.49.291v-.641l.49-.28Z" fill="#FFCE45"/><path d="M58.926 12.137v.64l7.1 4.093v-.641l-7.1-4.092Z" fill="#D79404"/><path d="m66.026 16.227.49-.28-7.089-4.091-.501.28 7.1 4.091ZM72.111 12.685l-7.52-4.337-.49.291 7.52 4.337.49-.291Z" fill="#FFE04A"/><path d="m67.835 15.656-6.937-4v-.64l6.937 3.998v.642Z" fill="#D79404"/><path d="m70.214 14.294-2.378 1.364v-.642l2.378-1.364v.642Z" fill="#FFCE45"/><path d="m67.835 15.015-6.937-3.999 2.379-1.375 6.937 4.01-2.379 1.364Z" fill="#FFE04A"/><path d="m76.15 21.606-.875-.501.012-4.652.874.513-.011 4.64Z" fill="#D79404"/><path d="m76.16 16.966-.874-.513-3.673-3.066.875.513 3.672 3.066Z" fill="#C48310"/><path d="m62.695 30.875-.875-.502.012-6.389.874.502-.011 6.389Z" fill="#D79404"/><path d="m62.706 24.484-.874-.501 3.94-7.893.875.501-3.94 7.893Z" fill="#E8A212"/><path d="m66.648 16.593-.875-.502 6.121-3.532.875.513-6.121 3.52Z" fill="#FFE04A"/><path d="m72.768 13.07 3.976 3.311-.012 5.55-.583-.326.012-4.64-3.672-3.067-5.562 3.206-3.637 7.287v6.144l-.595.338.012-6.389 3.94-7.893 6.121-3.52ZM67.89 10.565v2.285l.467-.28v-2.285l-.466.28Z" fill="#FFCE45"/><path d="M68.1 9.143a3.746 3.746 0 0 0-.582-.921 2.499 2.499 0 0 0-.665-.56c-.42-.244-.804-.268-1.084-.105l-.466.269c.28-.164.664-.14 1.084.105.233.14.466.326.665.56.233.267.443.594.582.92.164.373.269.781.269 1.143l.466-.268c0-.373-.093-.77-.268-1.143Z" fill="#FFE04A"/><path d="M66.375 7.933c-.84-.49-1.527-.093-1.527.874v2.285l3.043 1.76v-2.284c0-.968-.677-2.146-1.516-2.624v-.011Z" fill="#D79404"/><path d="m67.505 8.223-.466.268c.233.268.443.594.583.92l.466-.267a3.74 3.74 0 0 0-.583-.921Z" fill="#FDFF63"/><path d="M66.377 3.206v7.94c0 .408-.152.7-.385.84l1.096-.642c.233-.14.385-.431.385-.84V3.103l-1.096.104Z" fill="#FFCE45"/><path d="M63.766 3.207v6.424c0 .828.583 1.842 1.294 2.25.722.42 1.305.082 1.305-.746V3.207h-2.611.012Z" fill="#D79404"/><path d="M65.98 11.659v2.285l.478-.268V11.39l-.477.268Z" fill="#FFCE45"/><path d="M66.19 10.248a3.744 3.744 0 0 0-.582-.92 2.5 2.5 0 0 0-.665-.56c-.42-.245-.804-.268-1.084-.105l-.466.268c.28-.163.664-.14 1.084.105.233.14.466.326.664.56.233.268.443.594.583.92.163.374.269.782.269 1.143l.466-.268c0-.373-.094-.77-.268-1.143Z" fill="#FFE04A"/><path d="M64.477 9.038c-.84-.49-1.528-.093-1.528.875v2.285l3.043 1.76v-2.285c0-.967-.676-2.145-1.516-2.623v-.012Z" fill="#D79404"/><path d="m65.607 9.328-.466.268c.233.268.443.595.583.921l.466-.268a3.745 3.745 0 0 0-.583-.92Z" fill="#FDFF63"/><path d="M64.746 9.98a1.352 1.352 0 0 0-.362-.326c-.28-.163-.536-.14-.688.07-.21.303-.093.886.257 1.329.116.14.245.256.373.326.117.07.245.105.35.105.14 0 .256-.058.338-.175.21-.29.105-.874-.257-1.329h-.011Zm.163 1.26c-.105.151-.315.163-.537.034a1.346 1.346 0 0 1-.338-.303c-.314-.396-.431-.932-.256-1.189a.289.289 0 0 1 .245-.128c.081 0 .186.035.291.093.117.07.233.175.338.292.327.396.432.932.257 1.189v.012Z" fill="#fff"/><path d="M68.299 7.46 61.094 3.3V2.156l7.205 4.162v1.143Z" fill="#D79404"/><path d="m72.03 5.307-3.731 2.156V6.321l3.73-2.157v1.143Z" fill="#FFCE45"/><path d="m68.299 6.319-7.205-4.162L64.824 0l7.206 4.162-3.731 2.157Z" fill="#FFE04A"/></svg>