<svg width="123" height="97" fill="none" xmlns="http://www.w3.org/2000/svg"><ellipse cx="61.48" cy="59.05" rx="61.48" ry="37.008" fill="#292929"/><ellipse cx="61.48" cy="55.469" rx="61.48" ry="37.008" fill="#3B3B3B"/><ellipse cx="48.537" cy="73.884" rx="6.472" ry="2.696" fill="#000"/><path d="M49.648 44.823c4.15 6.706 2.07 11.555-5.395 16.176-7.465 4.62-18.875 2.696-21.57-4.31-2.695-7.008 1.701-10.484 9.166-15.105s13.648-3.467 17.799 3.239Z" fill="#000"/><path d="M81.434 77.12 34.515 48.537l4.315-14.022L92.76 70.11l-11.326 7.01Z" fill="#000"/><path d="M73.112 61.293c3.523-2.034 3.543-5.332.041-7.367-3.5-2.034-9.194-2.034-12.717 0-3.522 2.035-3.542 5.333-.042 7.367 3.501 2.035 9.195 2.034 12.718 0Z" fill="#E9F0F7"/><path d="M94.941 39.6c.59.344.887.795.888 1.246l.032 11.297c-.001-.451-.297-.902-.888-1.245l-10.246-5.955-.032-11.297 10.246 5.955Z" fill="#0C3461"/><path d="m94.941 39.6-10.246-5.954 1.197-.692L96.14 38.91c.92.534 1.378 1.235 1.379 1.937h-1.689c-.002-.452-.297-.902-.888-1.246Z" fill="#3E3E3E"/><path d="m92.281 27.062.119 41.882 3.118-1.8-.119-41.882-3.118 1.8Z" fill="#9E4A0B"/><path d="M50.656 44.819c-.047-.017-.094-.034-.142-.049a6.605 6.605 0 0 0-.253-.072c-.063-.017-.126-.036-.19-.051-.09-.022-.18-.04-.271-.058-.062-.013-.123-.027-.185-.038a7.992 7.992 0 0 0-.557-.078l-.172-.014a8.521 8.521 0 0 0-.814-.03 9.098 9.098 0 0 0-.943.066 6.795 6.795 0 0 0-.479.076 7.086 7.086 0 0 0-.507.115 6.536 6.536 0 0 0-.69.222 6.418 6.418 0 0 0-.246.103c-.042.02-.086.036-.127.056a5.09 5.09 0 0 0-.357.186l-.119-41.881a4.86 4.86 0 0 1 .358-.187c.04-.02.084-.036.126-.055.073-.032.144-.065.219-.095l.027-.009a6.25 6.25 0 0 1 .524-.177l.041-.014c.041-.011.084-.02.125-.03.102-.027.203-.052.305-.075l.08-.02c.04-.008.082-.013.123-.021a8.96 8.96 0 0 1 .26-.045c.035-.006.068-.013.103-.018l.115-.013.246-.027c.039-.004.077-.01.115-.013.036-.003.073-.003.11-.006a6.89 6.89 0 0 1 .249-.013l.123-.007h.1c.09 0 .18 0 .27.002h.133c.026 0 .052.004.078.006.112.004.222.012.334.022.043.004.088.004.132.01.013 0 .026.003.04.005.187.019.373.045.556.077l.029.004c.053.01.104.023.157.033.09.018.18.036.27.057.064.016.127.034.19.052.085.023.17.046.253.072l.055.016c.03.01.057.023.087.032a5.836 5.836 0 0 1 .981.437L92.281 27.06l.119 41.881-40.763-23.689a5.18 5.18 0 0 0-.46-.232c-.045-.021-.093-.04-.14-.06a5.694 5.694 0 0 0-.381-.144v.002Z" fill="#F71"/><path d="m41.506 1.573 3.098 1.8c1.912-1.104 5.014-1.104 6.914 0l40.763 23.69 3.118-1.801-40.763-23.69c-3.609-2.096-9.498-2.096-13.13 0Z" fill="#CC5F0E"/><path d="M96.117 42.804c.105-.06.202-.124.295-.189l.078-.056c.053-.038.1-.078.15-.117.068-.056.131-.113.191-.17.034-.033.069-.065.1-.098.044-.047.083-.094.122-.141.03-.038.063-.075.09-.113.03-.042.056-.085.083-.127.027-.043.054-.084.077-.127.021-.041.04-.082.058-.124.02-.044.04-.088.055-.132.016-.044.028-.089.04-.133.011-.044.024-.087.032-.13.01-.05.014-.102.019-.153.004-.05.012-.101.012-.151l.032 11.297c0 .02 0 .04-.002.06 0 .03-.008.06-.01.092-.005.05-.01.102-.02.153-.002.012 0 .024-.003.036-.007.032-.02.062-.028.094-.012.044-.024.088-.04.132l-.01.037c-.013.032-.03.064-.045.095-.019.042-.037.083-.058.124-.006.012-.01.024-.017.035-.017.031-.04.061-.06.092-.026.042-.052.085-.083.127-.009.011-.014.023-.022.035-.02.026-.047.051-.068.078a2.318 2.318 0 0 1-.122.141c-.013.013-.022.027-.034.04-.02.02-.045.038-.066.057-.06.058-.123.114-.192.17-.02.017-.037.035-.058.052-.029.023-.061.044-.091.066-.026.019-.05.038-.078.056a4.19 4.19 0 0 1-.294.189l-2.884 1.664-.032-11.297 2.884-1.665-.001.001Z" fill="#252211"/><path d="M97.518 40.846c0 .708-.466 1.418-1.401 1.958l-2.884 1.664-1.192-.693 2.884-1.664c.604-.349.904-.808.903-1.265h1.69Z" fill="#3E3E3E"/><path d="M49.944 3.676v39.863l41.713 24.083V27.76L49.944 3.676Z" fill="#BBB"/><path d="M47.682 4.982v39.863l41.713 24.083V29.064L47.682 4.982Z" fill="#868686"/><path d="m89.395 68.928 2.262-1.306V27.758l-2.262 1.306v39.864Z" fill="#AEC7E6"/><path d="m49.944 3.676-2.262 1.307 41.713 24.082 2.262-1.306L49.944 3.676Z" fill="#DCE9F5"/><path d="M47.047 5.349v39.863L88.76 69.294V29.431L47.047 5.35Z" fill="#BBB"/><path d="M44.785 6.656v39.862l41.713 24.084V30.738L44.785 6.656Z" fill="#868686"/><path d="m86.498 70.602 2.262-1.307V29.432l-2.262 1.306v39.864Z" fill="#AEC7E6"/><path d="m47.047 5.349-2.262 1.306 41.713 24.082 2.262-1.306L47.046 5.35Z" fill="#DCE9F5"/><path d="m41.506 1.573.118 41.88 3.1 1.801-.12-41.881-3.098-1.8Z" fill="#BBB"/><path d="m44.604 3.373.118 41.881c-.36.208-.653.441-.879.69-.15.166-.27.338-.36.514a2 2 0 0 0-.113.268 1.7 1.7 0 0 0-.088.545l-.12-41.882c-.001-.73.48-1.46 1.442-2.016Z" fill="#F71"/><path d="m82.228 32.865.12 41.882 3.116-1.8-.119-41.881-3.117 1.799Z" fill="#9E4A0B"/><path d="M38.778 5.564a2.737 2.737 0 0 0 .047.401 3.747 3.747 0 0 0 .139.516 4.437 4.437 0 0 0 .104.261 3.66 3.66 0 0 0 .127.257 4.22 4.22 0 0 0 .165.278c.021.033.042.067.065.1.041.06.086.12.132.18.019.026.037.052.057.077.075.095.156.188.24.281l.07.072c.067.07.137.14.21.208l.1.094a6.146 6.146 0 0 0 .406.336 6.384 6.384 0 0 0 .443.315c.054.035.111.07.168.105.07.045.14.089.214.132l40.763 23.689.119 41.881-40.763-23.689-.113-.066-.102-.065c-.056-.035-.113-.07-.167-.106a6.545 6.545 0 0 1-.444-.314 6.844 6.844 0 0 1-.406-.337c-.017-.015-.036-.03-.053-.047-.017-.015-.03-.031-.047-.046a6.144 6.144 0 0 1-.21-.209l-.069-.072a5.074 5.074 0 0 1-.24-.28l-.01-.011-.046-.065a5.249 5.249 0 0 1-.134-.182l-.064-.099a4.184 4.184 0 0 1-.102-.165l-.027-.044c-.013-.023-.023-.046-.035-.069a3.712 3.712 0 0 1-.186-.397l-.026-.063c-.008-.019-.013-.038-.02-.058a3.328 3.328 0 0 1-.114-.393l-.017-.073c-.004-.017-.005-.033-.008-.05l-.022-.14c-.005-.04-.011-.08-.015-.121-.005-.047-.007-.094-.01-.14-.001-.028-.005-.055-.006-.082l-.001-.082L38.77 5.4c0 .055.004.11.007.164Z" fill="#F71"/><path d="M41.506 1.573c-3.632 2.097-3.65 5.507-.04 7.604l40.762 23.689 3.117-1.8L44.582 7.379c-1.9-1.104-1.89-2.901.022-4.005l-3.098-1.8Z" fill="#CC5F0E"/><path d="M78.827 48.903a5.506 5.506 0 0 0 .765.36c.04.016.08.028.12.042.104.037.208.072.315.104.065.02.131.035.197.053.076.02.152.04.23.057.071.017.144.03.218.045.071.014.142.028.215.04.075.012.15.021.226.032.072.01.145.02.219.027.072.008.145.013.218.019l.243.017c.065.003.131.003.197.005.098.002.195.004.293.002.06 0 .122-.003.183-.004.123-.005.247-.012.37-.021l.19-.016.172-.02a8.837 8.837 0 0 0 .424-.065 7.789 7.789 0 0 0 .914-.231c.061-.02.123-.04.184-.063.08-.03.16-.062.238-.094.058-.023.115-.047.171-.072.08-.037.156-.076.232-.115.064-.033.13-.065.192-.1l7.68-4.434.032 11.297-7.68 4.434-.072.041c-.039.022-.082.04-.12.06a4.816 4.816 0 0 1-.826.343 6.257 6.257 0 0 1-.698.188l-.11.026-.104.018a7.896 7.896 0 0 1-.425.065l-.172.02-.083.01c-.035.003-.07.003-.107.006-.122.01-.246.017-.37.021l-.102.006h-.081a7.91 7.91 0 0 1-.293-.003l-.136-.001c-.02 0-.04-.003-.06-.004-.083-.004-.164-.01-.245-.017-.054-.005-.109-.006-.162-.011l-.054-.007c-.074-.008-.147-.018-.22-.028-.057-.008-.115-.012-.17-.022-.019-.002-.037-.007-.055-.01-.072-.011-.144-.026-.215-.04l-.166-.03-.053-.014c-.077-.018-.152-.037-.228-.057-.052-.014-.105-.025-.156-.04l-.043-.014a6.262 6.262 0 0 1-.313-.103c-.035-.013-.072-.022-.108-.036l-.014-.006a5.49 5.49 0 0 1-.462-.2c-.014-.008-.03-.012-.043-.019a4.852 4.852 0 0 1-.26-.14l-4.454-2.584-.032-11.297 4.454 2.584v-.004Z" fill="#252211"/><path d="m74.373 46.32 4.454 2.584c1.848 1.074 4.866 1.072 6.727-.002l7.68-4.433-1.192-.693-7.262 4.192c-1.445.784-3.849.768-5.038.077l-4.169-2.419-1.2.693Z" fill="#3E3E3E"/><path d="m93.233 44.469-7.68 4.434c-.062.035-.128.067-.192.1a4.6 4.6 0 0 1-.232.114 5.02 5.02 0 0 1-.41.166c-.06.023-.122.043-.183.064a6.286 6.286 0 0 1-.698.188 8.086 8.086 0 0 1-.384.072v11.3a8.554 8.554 0 0 0 .2-.033c.035-.005.07-.01.105-.017.037-.007.073-.017.11-.026a6.982 6.982 0 0 0 .698-.188c.062-.02.124-.04.185-.063.08-.03.16-.061.238-.094.058-.024.116-.047.172-.072.079-.036.154-.076.23-.114.04-.02.082-.039.121-.06l.072-.041 7.68-4.434-.032-11.297v.001Z" fill="#252211"/><path d="M78.712 55.314a3.874 3.874 0 0 0-.034-.197c-.008-.045-.016-.09-.026-.136l-.031-.126a6.112 6.112 0 0 0-.047-.177l-.031-.102a5.882 5.882 0 0 0-.067-.199l-.029-.08a6.614 6.614 0 0 0-.11-.273l-.013-.03a5.512 5.512 0 0 0-.114-.241l-.037-.074a5.614 5.614 0 0 0-.122-.224l-.023-.042a6.01 6.01 0 0 0-.157-.253c-.015-.025-.032-.048-.048-.072a6.147 6.147 0 0 0-.399-.53c-.03-.036-.063-.072-.094-.107a5.613 5.613 0 0 0-.247-.258 4.518 4.518 0 0 0-.348-.306c-.021-.017-.043-.032-.064-.048a2.985 2.985 0 0 0-.969-.515 2.78 2.78 0 0 0-.11-.03c-.034-.01-.068-.016-.102-.023a1.698 1.698 0 0 0-.131-.02c-.025-.003-.05-.006-.075-.007a1.508 1.508 0 0 0-.158-.003h-.037a1.369 1.369 0 0 0-.182.023l-.044.01c-.046.011-.092.024-.136.04l-.042.014c-.056.022-.11.047-.162.077l.703-.408.014-.008c.04-.023.081-.043.124-.06l.024-.01.041-.014.065-.023.072-.016.043-.01.024-.006c.048-.008.099-.014.15-.017h.045c.038-.002.078-.003.118-.002.013 0 .028.003.04.005.025.001.05.004.075.007l.07.006.062.014c.033.006.067.013.1.022.019.004.037.006.055.011.018.005.037.014.056.02.057.016.115.037.175.06l.06.021.037.018a2.985 2.985 0 0 1 .697.416c.021.016.043.03.064.048.12.094.235.197.348.306l.029.026c.018.017.035.038.053.056.056.057.111.115.165.176.017.02.036.036.053.056l.041.05c.033.04.065.078.096.118.021.026.043.05.063.077.017.02.032.043.049.065l.069.094.047.064.075.112.048.072.02.03c.045.07.087.139.128.21l.008.014.023.04c.03.052.058.102.085.154l.037.071.037.074.034.066.079.173.014.032.005.01c.032.073.062.147.09.221l.015.041.029.082c.013.037.028.074.04.111l.026.087c.011.034.022.068.031.102l.02.063.028.114.03.125.011.045c.007.031.01.061.016.092.013.066.024.13.034.196.002.018.007.037.01.055.002.017 0 .034.003.05.017.147.029.292.028.434-.002.78-.278 1.33-.722 1.588l-.704.409c.445-.259.72-.808.723-1.588 0-.142-.012-.287-.029-.434l-.012-.105.002.001Z" fill="#F71"/><path d="M78.03 57.445c.965-.56.963-2.367-.006-4.033-.968-1.667-2.536-2.563-3.501-2.002-.965.56-.963 2.366.006 4.033.968 1.667 2.536 2.563 3.5 2.002Z" fill="#DCE9F5"/><path d="M59.333 29.922c2.647 1.528 4.784 5.231 4.775 8.271-.007 2.29-1.23 3.551-2.965 3.38l-.034 7.637c-.003 1.169-.83 1.641-1.846 1.054-1.017-.587-1.838-2.01-1.834-3.179l.033-7.637c-1.73-1.829-2.943-4.496-2.936-6.787.009-3.04 2.161-4.266 4.807-2.739Z" fill="#000"/><path d="M59.333 29.922c-2.646-1.527-4.798-.3-4.807 2.74-.007 2.29 1.206 4.957 2.936 6.786l6.273-3.622c-.723-2.393-2.42-4.76-4.403-5.904Z" fill="#000"/><path d="m63.745 40.072-2.601 1.502c1.175.116 2.115-.428 2.6-1.502Z" fill="#0C3461"/><mask id="a" style="mask-type:luminance" maskUnits="userSpaceOnUse" x="20" y="30" width="45" height="31"><path d="m59.813 30.226-5.263 3.017-.855.49c-1.042-.511-1.97-.493-2.635-.035l-1.933 1.108c-.681.389-1.12 1.2-1.174 2.35l-1.022.572c-1.722-.842-3.675-1.446-5.729-1.809-5.587-.987-11.92-.2-16.357 2.362-.242.14-.476.284-.7.43-2.76 1.802-4.137 4.065-4.128 6.323v-.003l.006 5.598c.008 2.408 1.59 4.813 4.75 6.65h.001c.26.15.528.293.8.432 2.876 1.463 6.43 2.241 10.032 2.333 3.964.1 7.982-.633 11.212-2.195.371-.18.734-.368 1.084-.57 3.133-1.809 4.741-4.167 4.822-6.538a4.41 4.41 0 0 0 .004-.206l-.007-5.6v.03a5.61 5.61 0 0 0-.01-.336c.767.257 1.453.212 1.988-.095l.003-.003 2.07-1.187c.264-.151.493-.367.675-.643.29-.435.465-1.019.494-1.73l4.859-2.786 1.27-.728c-.278-2.688-2.042-5.698-4.258-7.23Zm-37.744 19.38c-.024-.024-.047-.05-.07-.075l.09.096-.02-.02Zm29.296-.87-.022.028.03-.039-.008.012Zm.302-.43-.01.014c.005-.01.01-.017.017-.026l-.008.013Z" fill="#fff"/></mask><g mask="url(#a)"><path d="M67.475 35.504c1.165-.668 1.174-2.838.02-4.848-1.152-2.01-3.03-3.098-4.194-2.43-1.165.668-1.174 2.838-.02 4.848 1.152 2.01 3.03 3.098 4.194 2.43Z" fill="#C8B482"/><path d="M55.98 42.095c.543-.312.88-.983.88-1.937a3.948 3.948 0 0 0-.028-.465c-.009-.076-.017-.152-.028-.228a5.587 5.587 0 0 0-.093-.467l-.039-.143a4.89 4.89 0 0 0-.132-.426 6.823 6.823 0 0 0-.411-.947c-.03-.055-.06-.112-.092-.168a13.69 13.69 0 0 0-.116-.199l-.095-.154c-.05-.08-.105-.16-.159-.236-.028-.042-.055-.083-.084-.123a6.803 6.803 0 0 0-.297-.38c-.035-.041-.072-.082-.108-.121-.052-.06-.104-.119-.157-.176l-.121-.12c-.054-.053-.107-.107-.161-.157l-.097-.084a5.723 5.723 0 0 0-.273-.223c-.035-.026-.069-.054-.104-.079a4.512 4.512 0 0 0-.371-.242c-.057-.033-.112-.058-.169-.087-.054-.028-.109-.057-.162-.08-.046-.02-.093-.038-.139-.055a2.08 2.08 0 0 0-.157-.059c-.03-.01-.06-.017-.094-.026a2.026 2.026 0 0 0-.253-.058l-.108-.018a1.98 1.98 0 0 0-.176-.01 1.274 1.274 0 0 0-.252.01c-.037.004-.075.007-.11.013-.044.008-.085.02-.127.032-.036.01-.072.018-.107.03-.042.015-.081.034-.122.054-.037.016-.075.031-.111.052l11.496-6.59c.01-.007.021-.012.032-.018.025-.014.053-.023.079-.035.04-.019.08-.038.122-.053a.229.229 0 0 1 .021-.01c.028-.009.058-.012.086-.02.042-.012.083-.023.127-.032l.026-.006c.028-.005.057-.004.084-.008.047-.005.095-.01.143-.011.013 0 .024-.003.035-.003.025 0 .05.004.074.004.058.001.117.006.177.013l.052.004c.018.002.038.009.055.011.084.015.168.035.255.06.021.005.04.007.062.013.01.003.02.008.032.011.051.018.104.04.156.06.046.017.092.033.138.054.054.024.11.053.165.08.038.02.076.036.115.057l.052.03c.125.071.248.155.37.242a4.021 4.021 0 0 1 .285.223c.031.024.062.051.093.078.02.018.04.032.06.05l.035.033c.055.051.109.105.162.157l.12.12c.054.058.108.118.16.178.03.034.062.066.092.101l.014.02c.103.12.201.248.296.38l.022.027c.022.03.042.062.064.094.054.078.108.156.158.237l.038.056c.02.032.037.066.058.099.04.065.078.132.115.198l.043.074c.018.032.033.064.049.095.034.063.065.126.097.19.013.028.03.055.042.084l.04.092c.03.064.057.129.085.194.012.03.027.06.04.09.011.028.02.057.03.085.028.07.054.142.079.212.011.034.026.066.037.1l.019.068c.027.086.051.172.075.258.01.035.023.07.031.106.004.013.005.025.007.037.039.157.07.312.094.466l.005.025c.01.068.016.135.023.203l.014.118c.009.117.014.233.014.347 0 .955-.336 1.626-.88 1.937l-11.496 6.592Z" fill="#FCBE44"/><path d="M55.981 42.092c1.164-.668 1.173-2.838.02-4.848-1.152-2.01-3.03-3.098-4.195-2.43-1.164.668-1.173 2.838-.02 4.848s3.031 3.098 4.195 2.43Z" fill="#C8B482"/><path d="M50.017 36.206c0-2.535 1.774-3.575 3.963-2.32 2.189 1.256 3.964 4.33 3.964 6.867 0 2.536-1.776 3.571-3.964 2.316-2.19-1.256-3.963-4.329-3.963-6.863Z" fill="#C8B482"/><path d="M49.271 34.742c.054-.025.107-.051.163-.071.046-.017.094-.028.142-.04.056-.016.111-.032.17-.043.047-.01.097-.013.146-.018a2.235 2.235 0 0 1 .469-.011c.015 0 .03.003.046.005.095.009.192.024.29.044l.057.01c.104.023.21.053.318.088.07.023.14.051.21.078.062.025.123.046.186.074.071.032.144.07.217.108.075.038.15.072.225.116.168.096.333.207.496.324l.139.104c.123.094.245.194.365.298l.128.112c.073.068.144.138.215.21.054.053.11.105.162.16.072.076.142.156.212.236.048.053.097.106.143.162.137.163.269.333.396.508a10.346 10.346 0 0 1 .452.686 8.796 8.796 0 0 1 .406.745 9.422 9.422 0 0 1 .498 1.235c.036.115.069.23.1.344a7.238 7.238 0 0 1 .176.815c.016.102.027.204.038.306.005.052.013.104.017.156.013.157.02.311.02.464 0 1.274-.449 2.17-1.174 2.587l2.073-1.19c.725-.415 1.175-1.311 1.175-2.586a5.73 5.73 0 0 0-.02-.464l-.018-.157c-.01-.091-.017-.182-.03-.274l-.007-.032a7.251 7.251 0 0 0-.125-.623l-.01-.05c-.012-.047-.029-.095-.041-.142a7.84 7.84 0 0 0-.1-.344c-.01-.03-.017-.06-.027-.092-.015-.045-.033-.089-.049-.133a8.423 8.423 0 0 0-.104-.283c-.014-.037-.026-.076-.041-.113l-.053-.122a10.423 10.423 0 0 0-.113-.258c-.019-.04-.035-.082-.054-.123-.017-.037-.039-.074-.057-.112a8.432 8.432 0 0 0-.13-.254c-.021-.041-.041-.085-.064-.126-.018-.034-.038-.066-.057-.098-.05-.09-.102-.178-.155-.266-.026-.044-.05-.088-.077-.132l-.05-.075c-.068-.107-.14-.211-.211-.315-.03-.042-.056-.086-.085-.127l-.03-.037a9.134 9.134 0 0 0-.395-.508l-.02-.025c-.04-.048-.083-.091-.124-.137-.07-.08-.14-.159-.212-.235-.053-.056-.107-.108-.161-.162-.072-.07-.142-.141-.216-.208-.015-.015-.03-.031-.046-.045-.027-.024-.055-.044-.083-.067a6.977 6.977 0 0 0-.364-.299l-.14-.104a5.941 5.941 0 0 0-.564-.363c-.053-.029-.104-.05-.155-.077-.073-.037-.146-.076-.218-.108-.063-.027-.124-.05-.185-.073-.07-.028-.14-.056-.21-.078l-.041-.016a3.391 3.391 0 0 0-.277-.073l-.056-.01c-.055-.011-.11-.023-.165-.031-.042-.006-.084-.01-.126-.013l-.046-.005a2.692 2.692 0 0 0-.23-.01c-.016 0-.031.004-.047.004-.065.002-.129.01-.193.017-.036.004-.075.003-.11.01-.013.001-.024.006-.036.008-.058.01-.113.026-.169.042-.037.01-.077.017-.114.029-.01.003-.018.008-.027.012-.057.02-.11.046-.163.07-.035.017-.072.029-.106.047-.015.008-.03.015-.043.024l-2.074 1.19c.048-.028.1-.047.15-.07h-.002Z" fill="#FFB421"/><path d="M47.947 37.402c0-2.536 1.773-3.575 3.962-2.32 2.19 1.256 3.964 4.33 3.964 6.866 0 2.536-1.775 3.572-3.964 2.316-2.189-1.256-3.962-4.328-3.962-6.862Z" fill="#F89D1F"/><path d="M54.019 43.377c1.163-.668 1.173-2.839.02-4.848-1.153-2.01-3.031-3.098-4.196-2.43-1.164.668-1.173 2.838-.02 4.848s3.031 3.098 4.196 2.43Z" fill="#C8B482"/><path d="M45.667 48.049c.543-.312.88-.983.88-1.938a3.945 3.945 0 0 0-.029-.463c-.008-.076-.016-.153-.028-.228a5.579 5.579 0 0 0-.093-.467l-.038-.143a4.819 4.819 0 0 0-.132-.426c-.025-.07-.05-.141-.077-.212-.023-.058-.046-.118-.072-.176a7.581 7.581 0 0 0-.354-.728 17.092 17.092 0 0 0-.117-.199l-.095-.154a7.415 7.415 0 0 0-.158-.237c-.03-.042-.056-.083-.085-.123a6.797 6.797 0 0 0-.563-.676c-.04-.042-.08-.081-.121-.121-.053-.052-.106-.106-.16-.156-.032-.03-.066-.056-.098-.084l-.118-.101c-.051-.041-.103-.082-.155-.121-.034-.027-.068-.054-.104-.08a4.46 4.46 0 0 0-.37-.242c-.057-.032-.113-.058-.169-.087-.054-.028-.109-.056-.162-.08-.047-.02-.093-.037-.14-.055a2.445 2.445 0 0 0-.155-.059l-.095-.025a2.03 2.03 0 0 0-.253-.058c-.036-.007-.072-.012-.108-.017a1.98 1.98 0 0 0-.176-.011 1.316 1.316 0 0 0-.253.01c-.037.004-.074.007-.11.013-.043.008-.084.02-.126.032-.036.01-.072.019-.107.03-.042.015-.081.035-.122.054-.038.016-.076.031-.111.052l8.353-4.672.032-.018c.025-.013.053-.022.08-.034.04-.019.08-.038.121-.054.008-.002.014-.006.02-.008.03-.01.059-.014.087-.021.04-.012.083-.025.127-.032l.026-.007c.026-.004.056-.004.084-.007.047-.006.094-.01.144-.012.011 0 .022-.003.035-.003.024 0 .05.003.074.005.058.001.116.005.175.012.018.003.034 0 .053.003.017.003.037.01.054.013.084.015.169.035.255.059.021.005.04.006.063.014l.031.011c.052.017.104.039.157.059.046.017.091.034.14.055.052.024.106.053.162.081.039.02.077.035.116.056l.05.03c.127.071.25.154.372.242l.104.078.067.053c.07.053.139.11.206.17.02.018.04.033.061.05l.035.033c.055.051.108.104.162.158l.12.119c.055.057.107.118.159.177.03.035.062.067.092.102l.014.019c.102.121.201.248.296.379.007.01.015.018.023.027.021.031.04.064.063.095.055.078.107.157.16.237.01.02.024.037.036.056l.058.1c.04.065.078.13.115.198l.044.074c.017.031.031.063.049.096.033.062.065.125.096.189.013.028.03.055.042.084.015.03.028.061.04.091.03.065.057.13.086.194.013.03.028.06.04.09l.03.085c.028.07.054.142.079.214l.036.098c.008.023.012.046.02.068.028.087.052.173.076.259.008.035.021.07.03.107l.008.037c.038.155.07.311.093.465l.005.024c.01.07.016.136.023.204l.014.118c.009.117.015.232.014.347 0 .954-.336 1.626-.879 1.938l-8.352 4.67h-.002Z" fill="#FCBE44"/><path d="M45.668 48.047c1.164-.667 1.174-2.838.02-4.848-1.152-2.01-3.03-3.097-4.195-2.43-1.164.668-1.173 2.839-.02 4.848 1.153 2.01 3.031 3.098 4.195 2.43Z" fill="#C8B482"/><path d="m46.544 46.042.003.07c0 .954-.337 1.625-.879 1.936l8.352-4.67c.543-.312.88-.983.879-1.938l-.001-.07-8.353 4.672Z" fill="#FFB421"/><path d="M45.205 52.937a18.004 18.004 0 0 0 2.69-1.258c4.654-2.687 5.944-6.585 3.863-9.935-.783-1.264-2.046-2.449-3.79-3.461-1.955-1.136-4.287-1.924-6.766-2.361-5.587-.988-11.92-.201-16.357 2.361-.242.14-.476.283-.7.43-5.7 3.72-5.5 9.407.623 12.966 5.536 3.217 14.089 3.636 20.438 1.259Z" fill="#FF8666"/><path d="M45.205 52.937a18.004 18.004 0 0 0 2.69-1.258c4.654-2.687 5.944-6.585 3.863-9.935-.783-1.264-2.046-2.449-3.79-3.461-1.955-1.136-4.287-1.924-6.766-2.361-5.587-.988-11.92-.201-16.357 2.361-.242.14-.476.283-.7.43-5.7 3.72-5.5 9.407.623 12.966 5.536 3.217 14.089 3.636 20.438 1.259Z" fill="#FFB421"/><path d="m20.017 45.028.006 2.366c.007 2.408 1.59 8.049 4.751 9.886 6.366 3.699 16.721.463 23.128-3.236 3.224-1.86 4.833-1.068 4.826-3.507l-.007-5.602c.007 2.44-1.603 4.882-4.826 6.744-6.407 3.699-16.762 3.699-23.128 0-3.16-1.838-4.743-4.243-4.75-6.651Z" fill="#D69746"/><path d="M45.923 39.464c5.234 3.041 5.204 7.99-.063 11.031-5.269 3.042-13.81 3.042-19.045 0-5.232-3.041-5.206-7.99.063-11.031 5.267-3.042 13.812-3.041 19.045 0Zm-1.249 10.342c4.609-2.66 4.635-6.992.054-9.653-4.578-2.66-12.056-2.66-16.664 0-4.61 2.662-4.632 6.992-.054 9.653 4.58 2.661 12.054 2.661 16.664 0Z" fill="#FFDC5F"/><path fill-rule="evenodd" clip-rule="evenodd" d="M52.722 44.954c-.001 2.433-1.611 4.868-4.826 6.724-.348.2-.709.388-1.078.567-3.229 1.564-7.247 2.297-11.212 2.198v5.602c3.965.1 7.982-.633 11.212-2.195.372-.18.735-.37 1.084-.57 3.224-1.862 4.833-4.305 4.827-6.744l-.007-5.582Zm-27.148 7.16c2.877 1.462 6.43 2.239 10.032 2.329v5.601c-3.602-.09-7.156-.87-10.032-2.333-.272-.138-.54-.28-.8-.431-3.16-1.838-4.744-4.243-4.75-6.65l-.007-5.602c.006 2.408 1.589 4.813 4.75 6.65.262.152.533.295.807.435Z" fill="#B56B09"/><path fill-rule="evenodd" clip-rule="evenodd" d="M33.066 49.174c-1.112-.747-3.564-2.152-4.128-3.017-.938-1.435 1.026-2.919 3.436-4.023 2.41-1.105 5.185-1.728 7.538-1 1.446.447 3.482 2.062 4.584 2.801l-4.672 2.142.977.656-2.047.938-.977-.656-4.711 2.159Zm3.13-3.217-1.246-.836 2.047-.938 1.246.836 2.743-1.257c-.591-.396-1.484-1.097-2.225-1.37-1.52-.56-3.335.171-4.874.877-1.54.706-3.146 1.615-2.347 2.577.374.45 1.284.985 1.878 1.384l2.776-1.272h.002Z" fill="#FFDC5F"/></g><path d="m85.31 72.162.367-1.113 1.13.373a.348.348 0 0 0 .218-.66l-1.13-.373.371-1.131a.348.348 0 0 0-.66-.217l-.372 1.13-1.113-.366a.348.348 0 0 0-.217.661l1.113.367-.367 1.113a.348.348 0 0 0 .66.218v-.002Z" fill="#AEC7E6"/><path d="M52.517 67.111c1.79 2.672 2.873 5.758 2.421 6.892-.45 1.133-2.267-.113-4.056-2.785-1.789-2.672-2.874-5.757-2.422-6.891.451-1.134 2.268.113 4.057 2.784Zm2.006 6.27c.394-.988-.551-3.677-2.11-6.005-1.559-2.328-3.142-3.416-3.535-2.427-.394.989.551 3.678 2.11 6.006 1.56 2.329 3.142 3.415 3.535 2.427Z" fill="#FFDC5F"/><path d="M50.632 68.951c-.474-.71-.687-1.394-.532-1.782l.014-.035-.563-.841.1-.254.564.841.065-.164-.564-.84.101-.254.564.84.06-.15.12-.301.41.611-.057.142c-.035.088.049.327.188.534l1.683 2.514c.139.207.28.303.314.216l.057-.143.41.612-.121.301-.06.15.564.842-.1.253-.564-.84-.066.163.564.841-.1.254-.564-.841-.026.066c-.16.4-.573.153-1.07-.589-.342-.511-.592-1.115-.577-1.446-.16.057-.45-.156-.813-.699Zm1.901 1.771.137-.341-.663-.99-.135.335c-.062.155.025.435.239.755.213.32.36.396.422.241Zm-1.69-3.07-.122.303c-.06.152.018.402.222.709.205.307.346.383.407.23l.121-.303-.628-.94Z" fill="#FFB421"/><path d="M50.944 68.666c.205.307.346.383.407.23l.121-.303-.628-.94-.122.304c-.06.152.017.402.222.709Z" fill="#FFB421"/><path d="M52.413 67.376c1.56 2.33 2.504 5.018 2.11 6.006-.393.989-1.976-.099-3.535-2.427-1.559-2.328-2.504-5.017-2.11-6.005.393-.989 1.975.097 3.535 2.426Zm.679 4.312.026-.066.563.841.101-.254-.564-.84.065-.164.564.84.1-.253-.563-.841.06-.15.12-.302-.41-.611-.056.142c-.035.088-.175-.009-.314-.216L51.1 67.301c-.138-.207-.222-.447-.187-.535l.056-.142-.41-.611-.12.301-.06.15-.563-.84-.1.253.563.842-.065.163-.564-.84-.1.253.563.84-.014.036c-.154.389.058 1.072.532 1.782.364.543.655.757.813.7-.016.331.235.936.578 1.447.496.74.91.99 1.069.588Z" fill="#FFB421"/><path d="M52.11 70.48c-.213-.319-.3-.599-.238-.754l.135-.336.663.991-.137.341c-.061.156-.208.079-.422-.241Z" fill="#FFB421"/><path d="M52.706 66.847c2.084 3.113 3.348 6.708 2.82 8.03-.525 1.32-2.64-.132-4.726-3.245-2.084-3.113-3.348-6.708-2.821-8.029.526-1.321 2.642.131 4.727 3.244Zm2.232 7.156c.451-1.134-.633-4.22-2.421-6.891-1.788-2.672-3.605-3.919-4.057-2.785-.45 1.134.633 4.22 2.422 6.891 1.789 2.672 3.604 3.918 4.056 2.785Z" fill="#FFB421"/><path fill-rule="evenodd" clip-rule="evenodd" d="M46.652 67.302a.044.044 0 0 1 .002.005l.004-.001.029.091 1.575-.9v.001l-1.58.903.026.08.003.01.002.008c.004.01.008.02.01.03l.018.052a4.31 4.31 0 0 1 .027.082l.004.011a.345.345 0 0 0 .054.156l.003.01.026.071.017.045.004.012.003.01.012.032.012.033.022.061.005.01.01.026a1.747 1.747 0 0 0 .037.1l.003.007.002.006a1.544 1.544 0 0 0 .027.071l.023.059.002.005.002.006.03.075.01.028.012.029a.03.03 0 0 0 .002.005l.002.005.016.038.016.039.023.058.002.002.002.006c.023.057.046.115.071.172.002.002.002.005.003.007l.003.006.01.022.09.208c0 .005.003.01.005.014a24.986 24.986 0 0 0 .115.254l.013.03c.037.08.075.163.114.244l.005.01.004.011.004.007.007.015c.019.04.037.08.057.118l.009.02.009.018.002.005.003.006.051.104.022.046.001.002.001.003.076.15.002.004.001.002.026.05.025.049.008.016.009.015a.348.348 0 0 0 .008.018l.009.017.01.018a.604.604 0 0 0 .008.018l.046.087.003.006.002.005.002.004.028.05c.009.018.017.035.027.051l.007.014.007.014.009.016.01.017a.917.917 0 0 0 .02.04l.047.088.002.003v.002l.053.095.01.018.01.019.016.029.008.014.008.014.026.047.027.047a.02.02 0 0 0 .002.005l.002.004a.103.103 0 0 1 .006.01.105.105 0 0 0 .006.01l.039.069.013.022.012.021c.006.013.014.026.022.04a3.356 3.356 0 0 0 .123.215l.017.03.014.022.022.038.03.049.026.042.036.062a.27.27 0 0 0 .014.022l.005.01.03.048.025.041.015.025.017.026.007.012.008.012 1.579-.903-.016-.025a1.188 1.188 0 0 0-.04-.066l-.016-.025-.024-.04-.024-.04-.019-.031-.018-.03a3.026 3.026 0 0 1-.027-.046l-.027-.046-.023-.038-.078-.133-.006-.01L50 70.35l-.02-.034-.02-.038-.033-.057-.032-.056-.006-.01-.006-.01c-.014-.028-.03-.055-.044-.081l-.028-.051-.017-.03-.036-.066-.036-.067-.001-.002-.002-.003-.069-.127a.274.274 0 0 1-.009-.018l-.01-.016-.018-.035a5.079 5.079 0 0 1-.057-.109l-.032-.061-.032-.062-.009-.017-.008-.018a7.398 7.398 0 0 1-.068-.131v-.001l-.003-.007-.037-.073a5.625 5.625 0 0 0-.049-.099l-.013-.025a4.162 4.162 0 0 1-.025-.052l-.025-.052c-.01-.016-.017-.032-.024-.048l-.034-.072-.023-.047-.01-.022-.01-.021c-.04-.081-.077-.163-.114-.244l-.013-.03c-.04-.083-.076-.166-.113-.25a.093.093 0 0 0-.004-.009l-.003-.01-.028-.063-.062-.145-.008-.018-.008-.017-.071-.172a1.546 1.546 0 0 1-.027-.065l-.008-.018a1.887 1.887 0 0 1-.051-.126l-.029-.075-.027-.069-.008-.02-.02-.052-.027-.072-.013-.033a1.072 1.072 0 0 0-.012-.033l-.026-.071-.012-.033-.012-.032-.023-.065-.013-.037-.013-.036-.007-.021-.007-.021a12.935 12.935 0 0 1-.039-.112v-.001a5.48 5.48 0 0 1-.068-.205l-.013-.04-.012-.04.004-.002-.03-.09a.15.15 0 0 1-.005-.02 17.62 17.62 0 0 1-.13-.456l-.002-.008a.12.12 0 0 1-.002-.009l-.027-.106-.007-.026-.003-.014-.015-.067a8.451 8.451 0 0 1-.016-.069l-.005-.02-.01-.046a2.106 2.106 0 0 1-.01-.048l-.01-.047-.017-.086-.01-.048-.014-.075a.748.748 0 0 1-.009-.047l-.013-.081-.006-.038-.006-.042a1.637 1.637 0 0 1-.01-.071c-.005-.033-.01-.066-.013-.098l-.002-.011a.444.444 0 0 1-.004-.038l-.007-.067-.003-.039a1.209 1.209 0 0 1-.005-.062v-.005l-.009-.163V64.306c0-.044.001-.087.004-.13v-.023l.011-.125v-.005c.005-.038.01-.074.017-.11l.004-.022c.006-.036.014-.07.022-.103l.002-.01.002-.009c.008-.03.016-.06.025-.087l.002-.009.002-.005.025-.069.02-.048.006-.013.003-.005a.03.03 0 0 1 .003-.005l.029-.057a.073.073 0 0 1 .004-.006l.004-.007a.512.512 0 0 1 .029-.047l.004-.007c.01-.017.023-.032.035-.047 0-.002.001-.002.002-.003l.002-.003a.51.51 0 0 1 .031-.036l.002-.002.011-.013.03-.028a.652.652 0 0 1 .055-.044l.045-.03.005-.002m-.005.003-1.574.9-.006.003-.005.003a.77.77 0 0 0-.04.025l-.037.03c-.001 0-.002 0-.003.002l-.002.002a.043.043 0 0 0-.006.005.051.051 0 0 1-.006.006l-.03.028a.126.126 0 0 1-.011.013l-.004.003a.746.746 0 0 0-.018.02l-.012.015-.002.003-.002.002a.548.548 0 0 0-.034.044l-.002.004a.08.08 0 0 0-.005.006l-.004.007-.015.025-.01.016a.09.09 0 0 1-.004.007.061.061 0 0 0-.004.006l-.002.005-.002.003a1.02 1.02 0 0 0-.025.049l-.003.005a1.04 1.04 0 0 0-.055.134v.005l-.002.003a1.701 1.701 0 0 0-.028.099l-.002.007v.007a2.874 2.874 0 0 0-.043.235v.005c-.004.04-.008.082-.01.125-.002.005-.002.01-.002.014v.01a2.44 2.44 0 0 0-.004.13v.187c.002.056.005.11.01.167v.004c0 .02.003.042.005.062l.003.04c0 .014.003.03.004.044a1.68 1.68 0 0 1 .007.06l.001.011a4.114 4.114 0 0 0 .016.116l.002.018.011.077v.006l.003.016.003.016.013.08a.536.536 0 0 1 .004.024l.004.023a3.482 3.482 0 0 0 .014.076l.004.02.002.014.003.014a4.683 4.683 0 0 0 .017.086l.01.047.02.095.007.03a.02.02 0 0 1 .003.009l.004.02.023.096a2.503 2.503 0 0 0 .01.04l.027.106.002.007.001.004.002.006c.02.08.043.16.066.242l.002.007a.16.16 0 0 1 .003.008 16.95 16.95 0 0 0 .06.2l.003.013m3.76 3.728-.02-.031-.002.004-.005-.01a.44.44 0 0 0-.013-.02l-1.58.902.006.01.013.02.02.033c.007.01.014.02.02.032l.007.01.006.011.008.012.023.036.027.042.027.043.008.011a.133.133 0 0 0 .007.012l.012.019.012.018.027.042.044.068.01.016.011.016a5.954 5.954 0 0 0 .092.139l.026.039.006.008.006.009a7.09 7.09 0 0 0 .075.111l.038.056.006.009.006.009a.201.201 0 0 0 .007.01l.007.01.02.028c.035.052.07.103.106.153v.002l.002.003.002.003.04.055.094.133.006.008a.07.07 0 0 1 .005.008l.003.003.001.001.002.002c.045.064.09.126.136.188a.207.207 0 0 0 .012.016l.007.008.002.003a8.349 8.349 0 0 0 .16.212v.001l.142.183.011.014.005.006.002.003.003.003c.045.058.09.115.136.171l.014.018c.005.004.008.009.011.013a.049.049 0 0 1 .005.005l.004.005.157.19.01.011.005.006.005.005.009.011.058.068a.417.417 0 0 1 .01.013l.011.013.09.102v.001l.003.002.002.003.013.015.026.03.047.053.032.035.062.068a.205.205 0 0 0 .019.02l.012.014a3.52 3.52 0 0 0 .096.102l.003.003.048.05.048.05.01.01.013.013a10.119 10.119 0 0 1 .112.113l.005.006c.038.038.075.075.113.11l.013.013.007.008.043.04.02.02.039.035a2.195 2.195 0 0 0 .046.044l.008.008.055.049.085.076a.06.06 0 0 0 .009.007.032.032 0 0 1 .004.004l.002.002.003.002.045.039.016.013.016.014.047.04.014.012.014.012.018.014a.874.874 0 0 0 .051.043l.006.005a1.653 1.653 0 0 0 .092.072l.056.043.027.019.023.017.013.01.01.007.006.004.008.006.007.005.008.005.042.03.03.021.04.027a.511.511 0 0 0 .051.033.703.703 0 0 1 .02.013c.01.006.022.013.031.02l.038.023a.197.197 0 0 0 .01.006l.005.003.015.01.02.01.018.011.016.009.015.009.027.015.01.005.03.016a1.13 1.13 0 0 1 .066.035l.013.007.024.012.014.006.014.007.019.008.018.008.01.004.017.008.019.008.019.008.012.005.012.005.042.016.018.008.049.016.011.004h.002l.003.001.004.001.05.016.009.002c.004 0 .008.002.011.003l.037.01.011.002.003.001.006.001.003.001.029.007h.005a.217.217 0 0 0 .023.005l.005.001c.009.002.017.004.027.004l.007.002a.096.096 0 0 0 .017.002l.011.001.019.002.024.002c.01.002.02.002.029.002H53.342l.002-.001a.121.121 0 0 1 .02-.002l.027-.003.021-.003a.3.3 0 0 0 .026-.005l.012-.003.006-.002h.003l.026-.007a.083.083 0 0 1 .01-.003.233.233 0 0 0 .035-.011l.008-.003.009-.003.021-.01.007-.002.004-.002.003-.001.007-.004.01-.005.03-.015 1.574-.9a.447.447 0 0 1-.035.017l-.007.004-.007.003-.007.003a.208.208 0 0 1-.021.009l-.009.003-.008.003a.198.198 0 0 1-.013.005l-.013.004-.01.003-.006.001-.003.002-.026.006-.018.004h-.002a.215.215 0 0 1-.026.006h-.005l-.003.001a.063.063 0 0 1-.014.002h-.003l-.008.001a.097.097 0 0 1-.016.002.132.132 0 0 1-.022.002l-.027.001H54.819l-.029-.002a.176.176 0 0 0-.024-.002l-.03-.003-.024-.003-.01-.002-.006-.001-.015-.003-.008-.001-.006-.001h-.003l-.007-.002-.017-.004-.008-.002-.009-.002a.157.157 0 0 0-.011-.002l-.012-.003a1.72 1.72 0 0 0-.057-.015l-.024-.008-.014-.004-.01-.004h-.004l-.003-.002a1.917 1.917 0 0 1-.063-.021c-.006-.004-.012-.006-.019-.008l-.042-.016-.012-.005-.012-.005a1.445 1.445 0 0 0-.038-.016l-.01-.005-.017-.007-.018-.008-.019-.008-.014-.007-.014-.006-.013-.007-.024-.012-.007-.004-.007-.003a.34.34 0 0 1-.015-.008c-.013-.006-.025-.013-.036-.02a.758.758 0 0 1-.031-.016l-.019-.01-.018-.01-.015-.009-.015-.009a.453.453 0 0 1-.023-.013l-.014-.008-.023-.013-.009-.006a.402.402 0 0 0-.038-.024l-.015-.01-.016-.01a.773.773 0 0 1-.07-.045l-.04-.027-.013-.008-.018-.012-.042-.03-.008-.005-.023-.016-.016-.012-.006-.005a1.107 1.107 0 0 0-.037-.027l-.013-.01a7.354 7.354 0 0 1-.054-.04l-.01-.008-.004-.003-.006-.005a4.187 4.187 0 0 0-.072-.057l-.002-.001-.01-.009-.011-.009a1.872 1.872 0 0 1-.07-.055l-.006-.006-.008-.006-.023-.02-.01-.008-.013-.01-.017-.014a.802.802 0 0 1-.047-.04l-.013-.012-.01-.008-.009-.008a6.495 6.495 0 0 1-.139-.125l-.002-.002-.006-.005a.185.185 0 0 1-.008-.008l.002-.001-.002-.003-.075-.07-.031-.03a1.09 1.09 0 0 1-.045-.043l-.007-.007a10.369 10.369 0 0 1-.113-.11l-.005-.006-.112-.112a.248.248 0 0 1-.016-.016l-.008-.008-.048-.05a5.608 5.608 0 0 0-.048-.051l-.003-.004-.002-.002-.003-.002a.027.027 0 0 1-.003-.004l-.087-.093-.015-.017-.016-.017-.062-.068-.031-.035-.074-.083a.153.153 0 0 1-.01-.01.18.18 0 0 0-.008-.01l-.031-.036c-.02-.022-.04-.044-.058-.067a4.433 4.433 0 0 1-.08-.094l-.01-.01-.019-.023-.156-.19c-.006-.009-.013-.016-.02-.024l-.014-.018-.136-.17a.419.419 0 0 0-.01-.014l-.01-.013-.056-.071-.086-.113-.022-.028-.035-.046c-.034-.046-.07-.092-.104-.14a.3.3 0 0 0-.01-.014l-.01-.014c-.046-.061-.092-.124-.137-.187a8.455 8.455 0 0 1-.153-.213l-.001-.002-.001-.002-.063-.09c-.02-.031-.042-.062-.063-.092a1.173 1.173 0 0 1-.026-.037l-.038-.056a7.463 7.463 0 0 1-.111-.167l-.037-.056a3.588 3.588 0 0 0-.037-.056l-.02-.03-.02-.03-.05-.08-.02-.029-.02-.03-.019-.03-.014-.024-.04-.062a2.682 2.682 0 0 1-.044-.07l-.02-.031Z" fill="#B56B09"/><path fill-rule="evenodd" clip-rule="evenodd" d="M51.559 67.269c-.401-.219-1.252-.743-1.526-.768-.457-.042-.159.836.312 1.789.471.952 1.109 1.934 1.833 2.546.445.376 1.217.733 1.615.949l-.913-1.846.352.192-.4-.809-.352-.192-.921-1.861Zm.35 1.55-.45-.245.4.809.45.245.536 1.084c-.213-.117-.55-.274-.785-.46-.48-.379-.85-1.078-1.151-1.686-.3-.609-.59-1.274-.239-1.192.164.039.482.23.697.348l.542 1.096v.001Z" fill="#FFDC5F"/></svg>