<?xml version="1.0" encoding="utf-8"?>
<svg version="1.1" xmlns="http://www.w3.org/2000/svg" xmlns:xlink="http://www.w3.org/1999/xlink"
	x="0px" y="0px"
	viewBox="0 0 259.2 255.2" style="enable-background:new 0 0 259.2 255.2;" xml:space="preserve">
<style type="text/css">
	.st0{fill:#F0B90B;fill-opacity:0;}
	.st1{fill:#F0B90B;}
</style>
<g transform="translate(21.8743896484375,95.46575355529785)">
	<g transform="matrix(1,0,0,1,0,0)">
		<g>
			<rect x="-21.9" y="-95.5" class="st0" width="259.2" height="255.2"/>
			<path class="st1" d="M153.9,56.2l-25.2,25.2l-21.5,21.5l-52.4,52.4c-6.5,5.4-16.2,4.5-21.6-2.1c-4.7-5.6-4.7-13.8,0-19.4
				l52.5-52.4l21.5-21.5l25.3-25.3L153.9,56.2z M237.3-33.5c0,4-1.6,7.9-4.5,10.7l-57.5,57.4l-21.5-21.5l57.4-57.4
				c6-5.9,15.7-5.8,21.7,0.2C235.7-41.2,237.3-37.5,237.3-33.5z"/>
			<path class="st1" d="M190.5-80.2c0,4-1.6,7.9-4.4,10.7L81.8,34.7L60.4,13.2L85.6-12l21.5-21.6L164.5-91
				c6.1-5.9,15.8-5.7,21.7,0.4C188.9-87.8,190.4-84,190.5-80.2z M60.4,56.2L8,108.5c-6.7,5.2-16.3,4-21.5-2.7
				c-4.3-5.5-4.3-13.3,0-18.8l52.4-52.3L60.4,56.2z"/>
			<path class="st1" d="M107.2-33.6L85.7-12.1L28.3-69.5c-5.9-6.1-5.7-15.8,0.4-21.7c2.8-2.7,6.5-4.2,10.4-4.3c4,0,7.9,1.6,10.7,4.5
				L107.2-33.6z M227.8,108.5c-5.9,5.9-15.5,6-21.4,0.1c0,0,0,0-0.1-0.1L107.2,9.4l21.5-21.5L154,13.1l21.4,21.5L227.8,87
				C233.6,93,233.6,102.6,227.8,108.5L227.8,108.5z"/>
			<path class="st1" d="M107.2,59.9L85.6,81.4L-18.6-22.8c-5.3-6.6-4.2-16.3,2.5-21.5c5.6-4.4,13.5-4.4,19,0l57.4,57.4l21.5,21.5
				L107.2,59.9z M181,155.3c-6,5.9-15.5,5.9-21.5,0l-52.3-52.4l21.5-21.5l52.3,52.4C186.9,139.8,186.9,149.3,181,155.3z"/>
		</g>
	</g>
</g>
</svg>